Heraclito-Italic[wght].glyphspackage
{
glyphname = exclam;
layers = (
{
layerId = "E7B352D6-DDF7-4BB1-9248-C29C5148A582";
shapes = (
{
closed = 1;
nodes = (
(131,566,l),
(195,871,o),
(256,1171,o),
(317,1466,c),
(787,1478,l),
(687,1175,o),
(589,881,o),
(489,570,c)
);
},
{
closed = 1;
nodes = (
(130,-32,o),
(85,-19,o),
(49,8,cs),
(-23,60,o),
(-50,148,o),
(-30,237,cs),
(-1,364,o),
(76,438,o),
(232,438,cs),
(288,438,o),
(332,426,o),
(368,399,cs),
(440,347,o),
(470,260,o),
(450,168,cs),
(422,44,o),
(345,-32,o),
(190,-32,cs)
);
}
);
width = 590;
},
{
layerId = "1ECFA0BB-D4D0-440A-AF13-F612441316F9";
shapes = (
{
closed = 1;
nodes = (
(159,513,l),
(236,838,o),
(305,1152,o),
(373,1465,c),
(643,1473,l),
(543,1154,o),
(447,843,o),
(351,516,c)
);
},
{
closed = 1;
nodes = (
(99,-24,o),
(69,-15,o),
(46,2,cs),
(-2,37,o),
(-21,95,o),
(-6,156,cs),
(15,243,o),
(67,288,o),
(167,288,cs),
(202,288,o),
(232,280,o),
(256,263,cs),
(303,230,o),
(323,174,o),
(310,110,c),
(291,26,o),
(238,-24,o),
(138,-24,cs)
);
}
);
width = 502;
},
{
layerId = "3DB0A36A-4459-4A7E-AA85-C98DCD1D5A19";
shapes = (
{
closed = 1;
nodes = (
(169,495,l),
(250,826,o),
(322,1144,o),
(392,1465,c),
(594,1471,l),
(494,1146,o),
(398,830,o),
(305,498,c)
);
},
{
closed = 1;
nodes = (
(89,-22,o),
(64,-15,o),
(45,0,c),
(5,29,o),
(-11,77,o),
(2,128,cs),
(21,202,o),
(64,238,o),
(145,238,cs),
(174,238,o),
(198,231,o),
(218,217,cs),
(257,190,o),
(274,144,o),
(263,91,cs),
(247,20,o),
(202,-22,o),
(120,-22,cs)
);
}
);
width = 472;
},
{
layerId = "63B846B6-E5C3-431C-B192-887AE8F7062B";
shapes = (
{
closed = 1;
nodes = (
(183,468,l),
(272,809,o),
(348,1133,o),
(421,1464,c),
(521,1468,l),
(421,1135,o),
(324,811,o),
(235,470,c)
);
},
{
closed = 1;
nodes = (
(73,-18,o),
(56,-14,o),
(43,-3,c),
(15,17,o),
(5,50,o),
(14,87,c),
(29,140,o),
(60,162,o),
(112,162,cs),
(131,162,o),
(148,158,o),
(161,149,cs),
(188,130,o),
(200,98,o),
(192,62,cs),
(180,10,o),
(149,-18,o),
(94,-18,cs)
);
}
);
width = 428;
}
);
leftKerningGroup = b2;
rightKerningGroup = d;
unicode = 33;
}
{
glyphname = quotedbl;
layers = (
{
layerId = "E7B352D6-DDF7-4BB1-9248-C29C5148A582";
shapes = (
{
closed = 1;
nodes = (
(148,718,l),
(199,977,o),
(249,1228,o),
(297,1480,c),
(718,1490,l),
(634,1230,o),
(553,983,o),
(468,720,c)
);
},
{
closed = 1;
nodes = (
(656,718,l),
(707,977,o),
(757,1228,o),
(805,1480,c),
(1226,1490,l),
(1142,1230,o),
(1061,983,o),
(976,720,c)
);
}
);
width = 1012;
},
{
layerId = "1ECFA0BB-D4D0-440A-AF13-F612441316F9";
shapes = (
{
closed = 1;
nodes = (
(202,834,l),
(253,1055,o),
(295,1268,o),
(336,1483,c),
(586,1489,l),
(513,1270,o),
(446,1059,o),
(378,836,c)
);
},
{
closed = 1;
nodes = (
(584,834,l),
(635,1055,o),
(677,1268,o),
(718,1483,c),
(968,1489,l),
(895,1270,o),
(828,1059,o),
(760,836,c)
);
}
);
width = 811;
},
{
layerId = "3DB0A36A-4459-4A7E-AA85-C98DCD1D5A19";
shapes = (
{
closed = 1;
nodes = (
(220,873,l),
(271,1082,o),
(311,1282,o),
(349,1484,c),
(541,1489,l),
(472,1284,o),
(409,1085,o),
(348,875,c)
);
},
{
closed = 1;
nodes = (
(560,873,l),
(610,1082,o),
(650,1282,o),
(689,1484,c),
(881,1489,l),
(811,1284,o),
(748,1085,o),
(687,875,c)
);
}
);
width = 743;
},
{
layerId = "63B846B6-E5C3-431C-B192-887AE8F7062B";
shapes = (
{
closed = 1;
nodes = (
(248,932,l),
(297,1123,o),
(334,1302,o),
(369,1486,c),
(474,1488,l),
(410,1304,o),
(353,1123,o),
(302,934,c)
);
},
{
closed = 1;
nodes = (
(524,932,l),
(573,1123,o),
(610,1302,o),
(645,1486,c),
(750,1488,l),
(686,1304,o),
(629,1123,o),
(578,934,c)
);
}
);
width = 642;
}
);
leftKerningGroup = quotedbl2;
rightKerningGroup = quotedbl;
unicode = 34;
}
{
glyphname = numbersign;
layers = (
{
layerId = "E7B352D6-DDF7-4BB1-9248-C29C5148A582";
shapes = (
{
closed = 1;
nodes = (
(-48,216,l),
(23,536,l),
(439,536,l),
(907,536,l),
(1323,536,l),
(1252,216,l),
(836,216,l),
(368,216,l)
);
},
{
closed = 1;
nodes = (
(46,0,l),
(73,65,o),
(101,133,o),
(132,205,cs),
(163,277,o),
(195,354,o),
(232,439,cs),
(430,907,ls),
(455,967,o),
(477,1019,o),
(497,1066,cs),
(537,1159,o),
(573,1242,o),
(616,1346,c),
(953,1346,l),
(933,1297,o),
(914,1250,o),
(895,1207,cs),
(858,1120,o),
(819,1031,o),
(767,907,cs),
(569,439,ls),
(532,354,o),
(500,278,o),
(471,209,cs),
(442,140,o),
(412,72,o),
(383,0,c)
);
},
{
closed = 1;
nodes = (
(194,804,l),
(265,1124,l),
(681,1124,l),
(1149,1124,l),
(1565,1124,l),
(1494,804,l),
(1078,804,l),
(610,804,l)
);
},
{
closed = 1;
nodes = (
(566,0,l),
(593,65,o),
(621,133,o),
(652,205,cs),
(683,277,o),
(715,354,o),
(752,439,cs),
(950,907,ls),
(975,967,o),
(997,1019,o),
(1017,1066,cs),
(1057,1159,o),
(1093,1242,o),
(1136,1346,c),
(1473,1346,l),
(1453,1297,o),
(1434,1250,o),
(1415,1207,cs),
(1378,1120,o),
(1339,1031,o),
(1287,907,cs),
(1089,439,ls),
(1052,354,o),
(1020,277,o),
(991,208,cs),
(962,139,o),
(932,72,o),
(903,0,c)
);
}
);
width = 1428;
},
{
layerId = "1ECFA0BB-D4D0-440A-AF13-F612441316F9";
shapes = (
{
closed = 1;
nodes = (
(-22,284,l),
(19,461,l),
(383,461,l),
(868,461,l),
(1232,461,l),
(1191,284,l),
(827,284,l),
(342,284,l)
);
},
{
closed = 1;
nodes = (
(90,0,l),
(121,68,o),
(151,135,o),
(182,203,cs),
(213,271,o),
(245,344,o),
(284,428,cs),
(493,890,ls),
(520,950,o),
(542,1002,o),
(565,1049,c),
(609,1145,o),
(647,1228,o),
(690,1324,c),
(880,1324,l),
(859,1277,o),
(839,1232,o),
(820,1189,cs),
(780,1102,o),
(738,1010,o),
(683,890,cs),
(475,428,ls),
(436,344,o),
(402,270,o),
(373,205,cs),
(342,137,o),
(312,72,o),
(281,0,c)
);
},
{
closed = 1;
nodes = (
(235,857,l),
(276,1034,l),
(640,1034,l),
(1125,1034,l),
(1489,1034,l),
(1448,857,l),
(1085,857,l),
(599,857,l)
);
},
{
closed = 1;
nodes = (
(578,0,l),
(609,68,o),
(638,135,o),
(669,203,cs),
(700,271,o),
(733,344,o),
(772,428,cs),
(980,890,ls),
(1007,950,o),
(1030,1002,o),
(1053,1049,c),
(1096,1145,o),
(1134,1228,o),
(1177,1324,c),
(1368,1324,l),
(1347,1277,o),
(1327,1232,o),
(1307,1189,cs),
(1267,1102,o),
(1226,1010,o),
(1171,890,cs),
(962,428,ls),
(923,343,o),
(889,269,o),
(860,204,cs),
(831,139,o),
(800,72,o),
(768,0,c)
);
}
);
width = 1381;
},
{
layerId = "3DB0A36A-4459-4A7E-AA85-C98DCD1D5A19";
shapes = (
{
closed = 1;
nodes = (
(-13,307,l),
(17,436,l),
(364,436,l),
(855,436,l),
(1201,436,l),
(1171,307,l),
(824,307,l),
(333,307,l)
);
},
{
closed = 1;
nodes = (
(105,0,l),
(137,70,o),
(168,136,o),
(199,203,cs),
(230,269,o),
(263,341,o),
(302,424,cs),
(514,884,ls),
(541,944,o),
(565,996,o),
(588,1043,cs),
(633,1139,o),
(672,1224,o),
(715,1317,c),
(856,1317,l),
(835,1271,o),
(814,1226,o),
(794,1183,cs),
(754,1097,o),
(710,1004,o),
(655,884,cs),
(443,424,ls),
(404,340,o),
(370,268,o),
(340,203,cs),
(309,137,o),
(278,72,o),
(247,0,c)
);
},
{
closed = 1;
nodes = (
(249,875,l),
(280,1004,l),
(626,1004,l),
(1117,1004,l),
(1463,1004,l),
(1433,875,l),
(1087,875,l),
(595,875,l)
);
},
{
closed = 1;
nodes = (
(582,0,l),
(614,70,o),
(644,136,o),
(675,203,cs),
(706,269,o),
(739,341,o),
(778,424,cs),
(990,884,ls),
(1017,944,o),
(1042,996,o),
(1065,1043,cs),
(1109,1139,o),
(1148,1224,o),
(1191,1317,c),
(1332,1317,l),
(1311,1271,o),
(1291,1226,o),
(1271,1183,cs),
(1230,1097,o),
(1187,1004,o),
(1132,884,cs),
(919,424,ls),
(880,339,o),
(846,267,o),
(816,202,cs),
(786,138,o),
(755,72,o),
(723,0,c)
);
}
);
width = 1365;
},
{
layerId = "63B846B6-E5C3-431C-B192-887AE8F7062B";
shapes = (
{
closed = 1;
nodes = (
(0,342,l),
(15,398,l),
(335,398,l),
(835,398,l),
(1155,398,l),
(1140,342,l),
(820,342,l),
(320,342,l)
);
},
{
closed = 1;
nodes = (
(128,0,l),
(161,72,o),
(193,138,o),
(224,202,cs),
(255,266,o),
(289,337,o),
(328,418,cs),
(546,875,l),
(573,935,o),
(599,986,o),
(622,1035,cs),
(669,1131,o),
(709,1217,o),
(752,1306,c),
(819,1306,l),
(798,1261,o),
(777,1217,o),
(756,1174,cs),
(715,1089,o),
(669,994,o),
(613,875,cs),
(395,418,ls),
(356,334,o),
(322,265,o),
(291,201,cs),
(260,137,o),
(228,72,o),
(195,0,c)
);
},
{
closed = 1;
nodes = (
(270,902,l),
(285,958,l),
(605,958,l),
(1105,958,l),
(1425,958,l),
(1410,902,l),
(1090,902,l),
(590,902,l)
);
},
{
closed = 1;
nodes = (
(588,0,l),
(621,72,o),
(653,138,o),
(684,202,cs),
(715,266,o),
(749,337,o),
(788,418,cs),
(1006,875,l),
(1033,935,o),
(1059,986,o),
(1082,1035,cs),
(1129,1131,o),
(1169,1217,o),
(1212,1306,c),
(1279,1306,l),
(1258,1261,o),
(1237,1217,o),
(1216,1174,cs),
(1175,1089,o),
(1129,994,o),
(1073,875,cs),
(855,418,ls),
(815,334,o),
(781,264,o),
(750,200,cs),
(719,136,o),
(688,72,o),
(655,0,c)
);
}
);
width = 1342;
}
);
unicode = 35;
}
{
glyphname = dollar;
layers = (
{
layerId = "376EABCF-4C28-4B8D-84B7-F555BD3ECEE4";
shapes = (
{
closed = 1;
nodes = (
(435,-30,o),
(367,-25,o),
(295,-14,cs),
(152,9,o),
(29,48,o),
(-36,92,c),
(78,477,l),
(117,448,o),
(159,422,o),
(206,401,cs),
(298,357,o),
(402,332,o),
(519,332,cs),
(551,332,o),
(579,334,o),
(602,337,cs),
(625,340,o),
(644,346,o),
(659,353,cs),
(674,360,o),
(683,370,o),
(690,381,c),
(697,400,o),
(690,418,o),
(669,435,cs),
(626,470,o),
(543,504,o),
(447,545,c),
(375,574,o),
(317,610,o),
(270,651,cs),
(177,734,o),
(142,850,o),
(187,1033,cs),
(208,1120,o),
(240,1188,o),
(285,1243,cs),
(373,1351,o),
(514,1400,o),
(733,1400,cs),
(830,1400,o),
(937,1386,o),
(1034,1363,cs),
(1130,1339,o),
(1215,1307,o),
(1275,1271,c),
(1157,903,l),
(1121,931,o),
(1079,955,o),
(1032,974,cs),
(936,1013,o),
(836,1030,o),
(760,1030,cs),
(733,1030,o),
(708,1030,o),
(685,1027,cs),
(662,1024,o),
(643,1020,o),
(628,1013,cs),
(613,1006,o),
(603,997,o),
(596,984,cs),
(589,969,o),
(592,954,o),
(603,939,cs),
(626,907,o),
(690,873,o),
(809,826,cs),
(902,790,o),
(973,750,o),
(1022,707,cs),
(1121,619,o),
(1141,507,o),
(1101,347,cs),
(1078,251,o),
(1044,179,o),
(997,123,cs),
(904,14,o),
(748,-30,o),
(507,-30,cs)
);
},
{
closed = 1;
nodes = (
(237,-274,l),
(269,-157,o),
(298,-46,o),
(327,62,cs),
(355,170,o),
(384,276,o),
(412,384,cs),
(562,948,ls),
(590,1056,o),
(619,1162,o),
(648,1270,cs),
(677,1378,o),
(705,1489,o),
(737,1606,c),
(1057,1606,l),
(1025,1489,o),
(997,1378,o),
(968,1270,cs),
(939,1162,o),
(910,1056,o),
(882,948,cs),
(732,384,ls),
(704,276,o),
(675,170,o),
(647,62,cs),
(618,-46,o),
(589,-157,o),
(557,-274,c)
);
}
);
width = 1176;
},
{
layerId = "10853CE6-D5C4-42A5-A345-B8D535EFC5CA";
shapes = (
{
closed = 1;
nodes = (
(427,-23,o),
(360,-16,o),
(296,-3,cs),
(167,24,o),
(70,70,o),
(10,114,c),
(77,322,l),
(113,293,o),
(152,268,o),
(195,247,c),
(279,203,o),
(381,177,o),
(506,177,cs),
(549,177,o),
(591,181,o),
(632,189,cs),
(673,197,o),
(709,213,o),
(740,237,cs),
(771,261,o),
(793,296,o),
(806,343,cs),
(818,383,o),
(814,419,o),
(793,450,cs),
(752,513,o),
(658,563,o),
(533,620,c),
(450,656,o),
(386,694,o),
(335,735,cs),
(234,816,o),
(199,921,o),
(240,1080,cs),
(259,1152,o),
(287,1210,o),
(330,1257,cs),
(414,1352,o),
(544,1396,o),
(737,1396,cs),
(822,1396,o),
(913,1379,o),
(997,1355,cs),
(1081,1331,o),
(1151,1300,o),
(1195,1269,c),
(1124,1069,l),
(1092,1096,o),
(1054,1117,o),
(1010,1136,cs),
(922,1172,o),
(826,1192,o),
(750,1192,cs),
(709,1192,o),
(668,1189,o),
(627,1182,cs),
(586,1175,o),
(551,1161,o),
(522,1140,cs),
(491,1119,o),
(471,1089,o),
(459,1049,cs),
(448,1012,o),
(449,979,o),
(462,950,cs),
(489,893,o),
(570,841,o),
(719,776,cs),
(815,735,o),
(888,692,o),
(939,648,cs),
(1039,560,o),
(1061,453,o),
(1026,320,cs),
(1006,240,o),
(976,175,o),
(933,124,cs),
(848,23,o),
(709,-23,o),
(500,-23,cs)
);
},
{
closed = 1;
nodes = (
(286,-274,l),
(318,-157,o),
(347,-46,o),
(376,62,cs),
(404,170,o),
(433,276,o),
(461,384,cs),
(611,948,ls),
(639,1056,o),
(668,1162,o),
(697,1270,cs),
(726,1378,o),
(754,1489,o),
(786,1606,c),
(965,1606,l),
(933,1489,o),
(905,1378,o),
(876,1270,cs),
(847,1162,o),
(818,1056,o),
(790,948,cs),
(640,384,ls),
(612,276,o),
(583,170,o),
(555,62,cs),
(526,-46,o),
(497,-157,o),
(465,-274,c)
);
}
);
width = 1137;
},
{
layerId = "6A906F70-B0A1-4ED9-B478-C4668F59BF3C";
shapes = (
{
closed = 1;
nodes = (
(419,-18,o),
(354,-10,o),
(297,6,cs),
(181,37,o),
(101,88,o),
(48,132,c),
(76,191,l),
(109,164,o),
(146,139,o),
(185,118,cs),
(265,74,o),
(362,46,o),
(495,46,cs),
(548,46,o),
(602,52,o),
(658,64,cs),
(714,76,o),
(763,100,o),
(808,139,cs),
(852,178,o),
(884,234,o),
(904,311,cs),
(919,370,o),
(917,419,o),
(898,462,c),
(858,547,o),
(757,611,o),
(605,683,c),
(513,724,o),
(442,765,o),
(389,806,cs),
(282,887,o),
(248,982,o),
(285,1119,c),
(300,1179,o),
(328,1227,o),
(367,1268,c),
(447,1349,o),
(569,1392,o),
(741,1392,cs),
(814,1392,o),
(894,1374,o),
(966,1349,cs),
(1038,1324,o),
(1095,1294,o),
(1127,1267,c),
(1097,1209,l),
(1068,1233,o),
(1033,1253,o),
(992,1272,c),
(908,1308,o),
(815,1328,o),
(742,1328,cs),
(687,1328,o),
(634,1323,o),
(578,1312,cs),
(522,1301,o),
(475,1279,o),
(432,1247,cs),
(389,1215,o),
(361,1168,o),
(344,1104,cs),
(329,1047,o),
(328,999,o),
(343,959,cs),
(372,878,o),
(468,814,o),
(643,734,cs),
(743,689,o),
(817,644,o),
(868,599,cs),
(972,508,o),
(994,410,o),
(963,297,c),
(946,229,o),
(918,172,o),
(879,125,cs),
(802,32,o),
(676,-18,o),
(495,-18,cs)
);
},
{
closed = 1;
nodes = (
(327,-274,l),
(359,-157,o),
(388,-46,o),
(417,62,cs),
(445,170,o),
(474,276,o),
(502,384,cs),
(652,948,ls),
(680,1056,o),
(709,1162,o),
(738,1270,cs),
(767,1378,o),
(795,1489,o),
(827,1606,c),
(887,1606,l),
(855,1489,o),
(827,1378,o),
(798,1270,cs),
(769,1162,o),
(740,1056,o),
(712,948,cs),
(562,384,ls),
(534,276,o),
(505,170,o),
(477,62,cs),
(448,-46,o),
(419,-157,o),
(387,-274,c)
);
}
);
width = 1104;
}
);
unicode = 36;
}
{
glyphname = percent;
layers = (
{
layerId = "AFF82BBF-FC41-4F44-8FB2-1B474D793435";
shapes = (
{
closed = 1;
nodes = (
(258,0,l),
(322,73,o),
(383,144,o),
(444,216,cs),
(504,288,o),
(574,368,o),
(654,461,cs),
(1079,955,ls),
(1135,1019,o),
(1182,1075,o),
(1227,1127,cs),
(1316,1231,o),
(1396,1322,o),
(1484,1426,c),
(1872,1426,l),
(1828,1375,o),
(1785,1325,o),
(1744,1277,cs),
(1660,1181,o),
(1574,1079,o),
(1466,954,cs),
(1041,461,ls),
(961,368,o),
(892,288,o),
(831,216,cs),
(770,144,o),
(709,73,o),
(645,0,c)
);
},
{
closed = 1;
nodes = (
(493,708,o),
(414,728,o),
(349,768,cs),
(284,807,o),
(238,859,o),
(213,927,cs),
(188,995,o),
(185,1067,o),
(208,1151,cs),
(227,1219,o),
(254,1275,o),
(293,1322,cs),
(370,1414,o),
(490,1458,o),
(647,1458,cs),
(743,1458,o),
(822,1438,o),
(887,1397,cs),
(952,1356,o),
(997,1304,o),
(1024,1239,cs),
(1051,1174,o),
(1054,1104,o),
(1035,1031,cs),
(1015,954,o),
(985,891,o),
(945,844,cs),
(865,748,o),
(746,708,o),
(593,708,cs)
);
},
{
closed = 1;
nodes = (
(658,970,o),
(696,997,o),
(719,1065,cs),
(726,1085,o),
(727,1105,o),
(722,1125,cs),
(711,1165,o),
(680,1196,o),
(632,1196,cs),
(572,1196,o),
(534,1159,o),
(514,1102,c),
(503,1067,o),
(506,1038,o),
(523,1011,cs),
(540,984,o),
(568,970,o),
(607,970,cs)
);
},
{
closed = 1;
nodes = (
(1386,-32,o),
(1307,-12,o),
(1242,27,cs),
(1177,67,o),
(1131,119,o),
(1106,187,cs),
(1081,255,o),
(1078,327,o),
(1101,411,cs),
(1120,479,o),
(1147,535,o),
(1186,582,cs),
(1263,674,o),
(1383,718,o),
(1540,718,cs),
(1636,718,o),
(1715,698,o),
(1780,657,cs),
(1845,616,o),
(1890,564,o),
(1917,499,cs),
(1944,434,o),
(1947,364,o),
(1928,291,cs),
(1908,214,o),
(1878,151,o),
(1838,104,cs),
(1758,8,o),
(1639,-32,o),
(1486,-32,cs)
);
},
{
closed = 1;
nodes = (
(1551,230,o),
(1589,257,o),
(1612,325,cs),
(1619,345,o),
(1620,365,o),
(1615,385,cs),
(1604,425,o),
(1573,456,o),
(1525,456,cs),
(1465,456,o),
(1427,419,o),
(1407,362,c),
(1396,327,o),
(1399,298,o),
(1416,271,cs),
(1433,244,o),
(1461,230,o),
(1500,230,cs)
);
}
);
width = 2008;
},
{
layerId = "846F9768-90E9-4F6E-87A4-D262F6DA6C19";
shapes = (
{
closed = 1;
nodes = (
(263,0,l),
(327,76,o),
(385,145,o),
(445,217,cs),
(505,289,o),
(569,367,o),
(649,459,c),
(1065,957,ls),
(1118,1021,o),
(1167,1078,o),
(1210,1130,cs),
(1298,1234,o),
(1374,1322,o),
(1459,1426,c),
(1678,1426,l),
(1635,1375,o),
(1593,1325,o),
(1554,1278,cs),
(1474,1182,o),
(1389,1082,o),
(1284,957,cs),
(866,459,ls),
(789,367,o),
(723,289,o),
(663,217,cs),
(603,145,o),
(545,76,o),
(481,0,c)
);
},
{
closed = 1;
nodes = (
(490,734,o),
(418,752,o),
(358,791,cs),
(298,830,o),
(257,878,o),
(234,942,cs),
(211,1006,o),
(209,1072,o),
(230,1148,cs),
(249,1216,o),
(276,1272,o),
(313,1317,cs),
(389,1409,o),
(495,1454,o),
(636,1454,cs),
(720,1454,o),
(789,1434,o),
(849,1395,cs),
(909,1355,o),
(948,1306,o),
(973,1242,cs),
(997,1178,o),
(1001,1115,o),
(982,1043,cs),
(963,970,o),
(935,911,o),
(896,866,c),
(820,774,o),
(711,734,o),
(578,734,cs)
);
},
{
closed = 1;
nodes = (
(697,888,o),
(768,937,o),
(804,1064,cs),
(815,1104,o),
(815,1142,o),
(804,1178,cs),
(781,1250,o),
(720,1300,o),
(628,1300,cs),
(511,1300,o),
(436,1239,o),
(403,1122,cs),
(386,1058,o),
(393,1004,o),
(426,957,cs),
(458,910,o),
(509,888,o),
(585,888,cs)
);
},
{
closed = 1;
nodes = (
(1223,-24,o),
(1152,-6,o),
(1092,33,cs),
(1032,72,o),
(991,120,o),
(968,184,cs),
(945,248,o),
(943,313,o),
(963,389,cs),
(982,457,o),
(1009,512,o),
(1046,559,c),
(1122,651,o),
(1229,695,o),
(1370,695,cs),
(1454,695,o),
(1523,675,o),
(1583,636,cs),
(1643,596,o),
(1682,547,o),
(1706,483,cs),
(1730,419,o),
(1734,356,o),
(1715,284,cs),
(1696,212,o),
(1667,153,o),
(1630,108,cs),
(1554,16,o),
(1444,-24,o),
(1311,-24,cs)
);
},
{
closed = 1;
nodes = (
(1430,129,o),
(1502,180,o),
(1537,305,cs),
(1548,346,o),
(1548,384,o),
(1537,420,cs),
(1514,492,o),
(1453,542,o),
(1361,542,cs),
(1244,542,o),
(1169,484,o),
(1137,363,cs),
(1120,299,o),
(1127,246,o),
(1160,199,cs),
(1192,152,o),
(1243,129,o),
(1319,129,cs)
);
}
);
width = 1824;
},
{
layerId = "3B700FF8-47B9-4100-B03E-59DC0E1692C9";
shapes = (
{
closed = 1;
nodes = (
(268,0,l),
(329,76,o),
(389,145,o),
(446,217,cs),
(503,289,o),
(568,366,o),
(644,458,cs),
(1054,959,ls),
(1106,1023,o),
(1153,1080,o),
(1196,1131,c),
(1280,1235,o),
(1354,1322,o),
(1438,1426,c),
(1514,1426,l),
(1471,1375,o),
(1432,1326,o),
(1393,1279,cs),
(1316,1184,o),
(1234,1087,o),
(1130,959,cs),
(719,458,ls),
(643,366,o),
(578,289,o),
(521,217,cs),
(464,145,o),
(404,76,o),
(343,0,c)
);
},
{
closed = 1;
nodes = (
(485,756,o),
(419,774,o),
(366,811,c),
(310,848,o),
(274,895,o),
(253,955,c),
(230,1015,o),
(229,1077,o),
(248,1145,cs),
(267,1213,o),
(293,1268,o),
(329,1313,cs),
(401,1405,o),
(502,1450,o),
(627,1450,cs),
(703,1450,o),
(764,1431,o),
(817,1392,cs),
(870,1353,o),
(907,1304,o),
(930,1244,cs),
(953,1183,o),
(954,1121,o),
(937,1053,c),
(918,984,o),
(891,928,o),
(855,884,cs),
(783,796,o),
(682,756,o),
(565,756,cs)
);
},
{
closed = 1;
nodes = (
(730,818,o),
(830,887,o),
(875,1063,cs),
(890,1120,o),
(889,1174,o),
(873,1223,cs),
(840,1323,o),
(753,1388,o),
(624,1388,cs),
(463,1388,o),
(353,1310,o),
(310,1138,cs),
(287,1049,o),
(299,976,o),
(344,912,cs),
(389,848,o),
(463,818,o),
(567,818,cs)
);
},
{
closed = 1;
nodes = (
(1084,-18,o),
(1018,0,o),
(965,37,c),
(909,74,o),
(873,121,o),
(852,181,c),
(829,241,o),
(828,303,o),
(847,371,cs),
(866,439,o),
(892,494,o),
(928,539,cs),
(1000,631,o),
(1101,676,o),
(1226,676,cs),
(1302,676,o),
(1363,657,o),
(1416,618,cs),
(1469,579,o),
(1506,530,o),
(1529,470,cs),
(1552,409,o),
(1553,347,o),
(1536,279,c),
(1517,210,o),
(1490,154,o),
(1454,110,cs),
(1382,22,o),
(1281,-18,o),
(1164,-18,cs)
);
},
{
closed = 1;
nodes = (
(1329,44,o),
(1429,113,o),
(1474,289,cs),
(1489,346,o),
(1488,400,o),
(1472,449,cs),
(1439,549,o),
(1352,614,o),
(1223,614,cs),
(1062,614,o),
(952,536,o),
(909,364,cs),
(886,275,o),
(898,202,o),
(943,138,cs),
(988,74,o),
(1062,44,o),
(1166,44,cs)
);
}
);
width = 1668;
}
);
unicode = 37;
}
{
glyphname = ampersand;
layers = (
{
layerId = "3CA9A7E0-8162-4AA0-82FE-E4D3CFC06BA1";
shapes = (
{
closed = 1;
nodes = (
(952,0,l),
(895,92,o),
(837,180,o),
(780,272,cs),
(483,740,l),
(450,796,o),
(427,859,o),
(412,936,cs),
(397,1013,o),
(400,1088,o),
(419,1161,cs),
(439,1238,o),
(473,1298,o),
(521,1341,cs),
(617,1429,o),
(753,1458,o),
(906,1458,cs),
(1002,1458,o),
(1085,1442,o),
(1157,1407,cs),
(1229,1372,o),
(1279,1327,o),
(1312,1267,cs),
(1345,1207,o),
(1352,1143,o),
(1333,1067,c),
(1306,971,o),
(1247,901,o),
(1175,853,cs),
(1103,805,o),
(1025,772,o),
(957,748,c),
(835,939,l),
(866,954,o),
(890,967,o),
(911,982,cs),
(951,1010,o),
(975,1043,o),
(991,1084,c),
(1000,1111,o),
(999,1135,o),
(988,1160,c),
(976,1184,o),
(958,1196,o),
(931,1196,cs),
(908,1196,o),
(889,1190,o),
(873,1179,cs),
(856,1167,o),
(844,1149,o),
(833,1126,c),
(813,1065,o),
(817,998,o),
(862,922,c),
(1136,492,ls),
(1245,325,o),
(1349,169,o),
(1462,0,c)
);
},
{
closed = 1;
nodes = (
(301,-28,o),
(216,-5,o),
(152,40,cs),
(88,85,o),
(46,144,o),
(25,217,cs),
(4,290,o),
(5,366,o),
(26,447,cs),
(45,519,o),
(77,580,o),
(120,629,cs),
(207,728,o),
(327,789,o),
(459,833,c),
(595,602,l),
(568,587,o),
(545,574,o),
(528,559,c),
(492,530,o),
(472,497,o),
(457,462,cs),
(448,441,o),
(445,419,o),
(449,395,cs),
(456,347,o),
(490,308,o),
(551,308,cs),
(570,308,o),
(590,311,o),
(609,318,c),
(648,330,o),
(685,354,o),
(720,383,c),
(869,188,l),
(880,136,l),
(846,136,l),
(803,101,o),
(760,71,o),
(715,47,cs),
(624,-2,o),
(525,-28,o),
(409,-28,cs)
);
},
{
closed = 1;
nodes = (
(1007,555,l),
(1108,667,o),
(1210,778,o),
(1310,887,c),
(1609,654,l),
(1468,541,o),
(1330,428,o),
(1189,311,c)
);
}
);
width = 1594;
},
{
layerId = "E0A1A151-DA4E-45E7-B25E-CE8CFFEFF43B";
shapes = (
{
closed = 1;
nodes = (
(1072,0,l),
(1011,88,o),
(941,181,o),
(876,273,cs),
(541,738,ls),
(498,799,o),
(466,865,o),
(443,941,cs),
(420,1014,o),
(420,1092,o),
(441,1173,cs),
(458,1238,o),
(486,1292,o),
(529,1333,c),
(613,1417,o),
(733,1454,o),
(862,1454,cs),
(942,1454,o),
(1011,1437,o),
(1071,1402,cs),
(1131,1367,o),
(1173,1322,o),
(1200,1262,cs),
(1227,1202,o),
(1232,1141,o),
(1215,1073,c),
(1188,973,o),
(1133,901,o),
(1057,849,cs),
(981,797,o),
(895,760,o),
(811,728,c),
(697,865,l),
(750,885,o),
(797,905,o),
(840,925,cs),
(923,965,o),
(978,1017,o),
(1001,1102,cs),
(1016,1154,o),
(1006,1196,o),
(974,1229,cs),
(942,1262,o),
(904,1278,o),
(861,1278,cs),
(820,1278,o),
(782,1268,o),
(746,1249,cs),
(710,1229,o),
(684,1195,o),
(669,1148,c),
(641,1047,o),
(658,954,o),
(734,846,cs),
(1054,397,ls),
(1150,264,o),
(1242,137,o),
(1342,0,c)
);
},
{
closed = 1;
nodes = (
(351,-22,o),
(268,0,o),
(204,47,c),
(140,92,o),
(96,150,o),
(73,222,cs),
(49,294,o),
(47,363,o),
(66,439,cs),
(86,516,o),
(118,581,o),
(163,632,cs),
(252,735,o),
(376,798,o),
(513,839,c),
(597,692,l),
(541,673,o),
(496,653,o),
(455,630,cs),
(371,585,o),
(318,523,o),
(293,434,cs),
(280,390,o),
(279,348,o),
(290,309,c),
(310,229,o),
(376,176,o),
(485,176,cs),
(528,176,o),
(566,182,o),
(603,195,cs),
(675,220,o),
(745,276,o),
(828,371,c),
(927,234,l),
(940,194,l),
(910,194,l),
(859,147,o),
(812,107,o),
(765,75,cs),
(672,11,o),
(575,-22,o),
(455,-22,cs)
);
},
{
closed = 1;
nodes = (
(963,485,l),
(1072,606,o),
(1172,720,o),
(1280,837,c),
(1457,708,l),
(1328,587,o),
(1210,470,o),
(1081,345,c)
);
}
);
width = 1500;
},
{
layerId = "C537678D-9F31-4CE8-A163-37FABCD6ED8A";
shapes = (
{
closed = 1;
nodes = (
(1113,0,l),
(1049,88,o),
(978,181,o),
(910,273,cs),
(563,738,ls),
(516,801,o),
(481,868,o),
(457,942,c),
(432,1014,o),
(432,1093,o),
(454,1178,cs),
(470,1238,o),
(497,1289,o),
(536,1330,cs),
(613,1412,o),
(724,1452,o),
(846,1452,cs),
(914,1452,o),
(973,1436,o),
(1025,1404,cs),
(1076,1371,o),
(1112,1328,o),
(1136,1272,cs),
(1159,1216,o),
(1162,1158,o),
(1146,1092,c),
(1119,990,o),
(1061,918,o),
(983,866,cs),
(905,815,o),
(819,778,o),
(733,746,c),
(654,843,l),
(710,865,o),
(762,886,o),
(811,908,cs),
(907,952,o),
(974,1012,o),
(1001,1115,cs),
(1018,1177,o),
(1009,1228,o),
(975,1268,cs),
(941,1308,o),
(897,1328,o),
(844,1328,cs),
(787,1328,o),
(738,1313,o),
(696,1285,cs),
(653,1257,o),
(624,1214,o),
(607,1158,c),
(576,1043,o),
(601,938,o),
(690,817,cs),
(1028,361,ls),
(1119,239,o),
(1206,122,o),
(1297,0,c)
);
},
{
closed = 1;
nodes = (
(355,-20,o),
(275,2,o),
(213,48,cs),
(150,93,o),
(108,150,o),
(86,221,cs),
(63,291,o),
(61,360,o),
(80,433,cs),
(101,512,o),
(134,577,o),
(182,628,cs),
(275,731,o),
(405,791,o),
(544,832,c),
(598,726,l),
(532,705,o),
(477,683,o),
(428,657,cs),
(327,605,o),
(261,533,o),
(232,424,cs),
(217,371,o),
(217,321,o),
(232,274,c),
(259,179,o),
(341,117,o),
(472,117,cs),
(523,117,o),
(568,124,o),
(610,139,cs),
(693,169,o),
(774,235,o),
(874,344,c),
(950,252,l),
(957,219,l),
(930,219,l),
(875,168,o),
(826,124,o),
(778,88,cs),
(681,17,o),
(584,-20,o),
(455,-20,cs)
);
},
{
closed = 1;
nodes = (
(963,418,l),
(1075,544,o),
(1176,658,o),
(1285,779,c),
(1405,693,l),
(1281,568,o),
(1169,449,o),
(1045,321,c)
);
}
);
width = 1464;
},
{
layerId = "FCB7EB2F-12FE-49E3-9961-0638D9E3BD27";
shapes = (
{
closed = 1;
nodes = (
(1164,0,l),
(1096,88,o),
(1024,180,o),
(952,272,cs),
(589,738,ls),
(538,803,o),
(499,871,o),
(474,943,c),
(447,1015,o),
(446,1094,o),
(469,1183,c),
(485,1239,o),
(510,1286,o),
(545,1326,cs),
(614,1406,o),
(713,1450,o),
(826,1450,cs),
(879,1450,o),
(927,1435,o),
(968,1406,c),
(1009,1375,o),
(1038,1336,o),
(1057,1285,cs),
(1076,1234,o),
(1076,1179,o),
(1061,1115,c),
(1034,1011,o),
(973,938,o),
(893,887,cs),
(813,836,o),
(725,800,o),
(637,768,c),
(601,817,l),
(662,840,o),
(720,863,o),
(776,888,cs),
(887,936,o),
(969,1006,o),
(1001,1130,cs),
(1020,1206,o),
(1012,1266,o),
(976,1315,cs),
(939,1364,o),
(888,1388,o),
(823,1388,cs),
(747,1388,o),
(684,1369,o),
(635,1330,cs),
(584,1291,o),
(550,1238,o),
(531,1170,cs),
(496,1037,o),
(532,919,o),
(636,782,cs),
(996,316,ls),
(1081,208,o),
(1162,104,o),
(1242,0,c)
);
},
{
closed = 1;
nodes = (
(359,-18,o),
(283,5,o),
(223,50,cs),
(163,95,o),
(123,151,o),
(102,220,cs),
(81,288,o),
(79,356,o),
(98,425,cs),
(119,506,o),
(154,573,o),
(205,624,c),
(304,727,o),
(440,783,o),
(581,823,c),
(599,768,l),
(522,745,o),
(454,719,o),
(394,690,cs),
(273,630,o),
(192,545,o),
(157,412,cs),
(140,347,o),
(141,287,o),
(160,231,c),
(196,118,o),
(298,44,o),
(455,44,cs),
(516,44,o),
(570,52,o),
(619,71,cs),
(716,107,o),
(809,184,o),
(930,311,c),
(977,274,l),
(978,250,l),
(954,250,l),
(894,193,o),
(842,144,o),
(793,104,cs),
(693,24,o),
(594,-18,o),
(455,-18,cs)
);
},
{
closed = 1;
nodes = (
(963,337,l),
(1079,469,o),
(1181,582,o),
(1290,707,c),
(1341,674,l),
(1224,545,o),
(1118,424,o),
(1001,291,c)
);
}
);
width = 1420;
}
);
unicode = 38;
}
{
glyphname = quotesingle;
layers = (
{
layerId = "56A8602E-BDC2-46DE-85D6-EBC995AB5C7F";
shapes = (
{
closed = 1;
nodes = (
(148,718,l),
(199,975,o),
(249,1229,o),
(297,1480,c),
(718,1490,l),
(634,1231,o),
(553,981,o),
(468,720,c)
);
}
);
width = 504;
},
{
layerId = "7D741856-296A-45BF-88B8-057E37E60DB7";
shapes = (
{
closed = 1;
nodes = (
(202,834,l),
(253,1054,o),
(295,1270,o),
(336,1483,c),
(586,1489,l),
(513,1272,o),
(446,1057,o),
(378,836,c)
);
}
);
width = 429;
},
{
layerId = "355BC9C9-DFF3-4FFB-B20D-156268081B81";
shapes = (
{
closed = 1;
nodes = (
(248,932,l),
(297,1121,o),
(334,1303,o),
(369,1486,c),
(474,1488,l),
(410,1305,o),
(353,1122,o),
(302,934,c)
);
}
);
width = 366;
}
);
leftKerningGroup = quotedbl2;
rightKerningGroup = quotedbl;
unicode = 39;
}
{
glyphname = parenleft;
layers = (
{
layerId = "56A8602E-BDC2-46DE-85D6-EBC995AB5C7F";
shapes = (
{
closed = 1;
nodes = (
(411,-290,l),
(279,-193,o),
(179,-51,o),
(123,125,cs),
(66,300,o),
(58,500,o),
(115,720,cs),
(172,940,o),
(264,1116,o),
(389,1261,cs),
(513,1405,o),
(661,1510,o),
(836,1582,c),
(1117,1454,l),
(1042,1406,o),
(970,1346,o),
(897,1274,cs),
(752,1130,o),
(626,931,o),
(555,667,cs),
(520,534,o),
(504,419,o),
(509,316,cs),
(518,111,o),
(588,-44,o),
(680,-168,c)
);
}
);
width = 882;
},
{
layerId = "7D741856-296A-45BF-88B8-057E37E60DB7";
shapes = (
{
closed = 1;
nodes = (
(399,-254,l),
(286,-146,o),
(200,-12,o),
(152,149,cs),
(104,310,o),
(101,495,o),
(157,708,cs),
(213,923,o),
(304,1091,o),
(421,1228,cs),
(538,1365,o),
(679,1468,o),
(836,1548,c),
(1000,1474,l),
(916,1425,o),
(838,1364,o),
(758,1292,cs),
(601,1148,o),
(465,949,o),
(393,680,cs),
(357,544,o),
(343,425,o),
(351,320,cs),
(366,108,o),
(446,-53,o),
(553,-182,c)
);
}
);
width = 799;
},
{
layerId = "355BC9C9-DFF3-4FFB-B20D-156268081B81";
shapes = (
{
closed = 1;
nodes = (
(389,-224,l),
(292,-108,o),
(217,19,o),
(177,168,cs),
(137,317,o),
(137,490,o),
(193,698,cs),
(249,907,o),
(335,1068,o),
(448,1201,cs),
(561,1333,o),
(691,1432,o),
(836,1520,c),
(901,1490,l),
(812,1439,o),
(725,1380,o),
(640,1308,cs),
(471,1164,o),
(330,964,o),
(257,691,cs),
(220,554,o),
(206,432,o),
(217,324,cs),
(237,107,o),
(327,-61,o),
(446,-194,c)
);
}
);
width = 728;
}
);
unicode = 40;
}
{
glyphname = parenright;
layers = (
{
layerId = "ED5B59FA-EE81-4681-A18F-45A8C2547072";
shapes = (
{
closed = 1;
nodes = (
(-157,-162,l),
(-81,-114,o),
(-10,-54,o),
(63,19,cs),
(136,91,o),
(202,177,o),
(262,277,cs),
(322,377,o),
(370,493,o),
(405,626,cs),
(440,759,o),
(456,873,o),
(451,977,cs),
(442,1181,o),
(372,1336,o),
(280,1460,c),
(549,1582,l),
(678,1485,o),
(781,1344,o),
(838,1168,cs),
(894,992,o),
(902,793,o),
(845,572,cs),
(789,352,o),
(697,177,o),
(572,32,cs),
(447,-113,o),
(300,-218,o),
(123,-290,c)
);
}
);
width = 882;
},
{
layerId = "05BA3582-6D3A-46F3-B384-2CB43233C8D8";
shapes = (
{
closed = 1;
nodes = (
(-121,-179,l),
(-37,-130,o),
(42,-70,o),
(122,3,cs),
(202,75,o),
(272,161,o),
(336,262,cs),
(400,362,o),
(450,478,o),
(486,615,cs),
(522,751,o),
(536,867,o),
(529,975,cs),
(513,1186,o),
(433,1347,o),
(326,1476,c),
(480,1548,l),
(593,1440,o),
(679,1308,o),
(727,1147,cs),
(775,986,o),
(778,801,o),
(722,586,cs),
(666,371,o),
(576,204,o),
(459,67,cs),
(342,-70,o),
(203,-174,o),
(42,-254,c)
);
}
);
width = 799;
},
{
layerId = "E54FAD38-750E-4B71-8DF5-F51E86814837";
shapes = (
{
closed = 1;
nodes = (
(-90,-194,l),
(-1,-143,o),
(86,-83,o),
(171,-11,cs),
(256,62,o),
(331,148,o),
(399,249,cs),
(467,350,o),
(517,469,o),
(554,606,cs),
(591,743,o),
(605,864,o),
(594,973,cs),
(574,1189,o),
(484,1357,o),
(365,1490,c),
(422,1520,l),
(519,1403,o),
(594,1277,o),
(634,1128,cs),
(674,979,o),
(674,807,o),
(618,598,cs),
(562,387,o),
(477,229,o),
(364,96,cs),
(251,-37,o),
(119,-136,o),
(-26,-224,c)
);
}
);
width = 728;
}
);
unicode = 41;
}
{
glyphname = asterisk;
layers = (
{
layerId = "DCD9BE68-FED3-41C3-ADD5-AD2185E63040";
shapes = (
{
closed = 1;
nodes = (
(893,596,l),
(796,721,o),
(700,842,o),
(600,971,c),
(475,1067,o),
(353,1163,o),
(228,1259,c),
(413,1459,l),
(513,1330,o),
(606,1214,o),
(706,1085,c),
(827,989,o),
(953,892,o),
(1078,796,c)
);
},
{
closed = 1;
nodes = (
(158,1036,l),
(315,1059,o),
(473,1081,o),
(630,1104,c),
(775,1164,o),
(922,1221,o),
(1067,1281,c),
(1148,1022,l),
(991,999,o),
(837,977,o),
(676,953,c),
(531,893,o),
(388,834,o),
(239,774,c)
);
},
{
closed = 1;
nodes = (
(398,604,l),
(458,753,o),
(515,896,o),
(575,1045,c),
(598,1202,o),
(620,1356,o),
(641,1513,c),
(908,1454,l),
(848,1305,o),
(791,1160,o),
(731,1011,c),
(710,854,o),
(688,700,o),
(665,543,c)
);
}
);
width = 1026;
},
{
layerId = "DED4F76D-EFC3-498C-92B4-55F170A79545";
shapes = (
{
closed = 1;
nodes = (
(890,643,l),
(790,764,o),
(692,876,o),
(591,997,c),
(474,1101,o),
(364,1205,o),
(251,1306,c),
(361,1421,l),
(461,1300,o),
(558,1188,o),
(659,1067,c),
(772,963,o),
(887,862,o),
(1000,758,c)
);
},
{
closed = 1;
nodes = (
(159,981,l),
(312,1014,o),
(459,1047,o),
(612,1080,c),
(757,1133,o),
(899,1184,o),
(1044,1237,c),
(1092,1085,l),
(943,1052,o),
(793,1019,o),
(640,986,c),
(495,933,o),
(351,880,o),
(206,827,c)
);
},
{
closed = 1;
nodes = (
(428,605,l),
(479,754,o),
(528,896,o),
(577,1045,c),
(608,1194,o),
(638,1343,o),
(667,1496,c),
(822,1461,l),
(773,1312,o),
(724,1168,o),
(673,1023,c),
(644,870,o),
(613,718,o),
(584,569,c)
);
}
);
width = 966;
},
{
layerId = "E6B2DDE4-B374-42D9-B082-10C4C39516BB";
shapes = (
{
closed = 1;
nodes = (
(889,661,l),
(789,778,o),
(690,888,o),
(588,1007,c),
(476,1113,o),
(369,1219,o),
(260,1324,c),
(341,1407,l),
(442,1289,o),
(539,1179,o),
(641,1060,c),
(750,954,o),
(861,849,o),
(970,744,c)
);
},
{
closed = 1;
nodes = (
(159,960,l),
(311,997,o),
(455,1034,o),
(605,1071,c),
(748,1121,o),
(890,1170,o),
(1035,1220,c),
(1070,1109,l),
(923,1072,o),
(778,1036,o),
(627,998,c),
(482,948,o),
(339,898,o),
(194,847,c)
);
},
{
closed = 1;
nodes = (
(440,605,l),
(487,753,o),
(533,896,o),
(578,1045,c),
(611,1192,o),
(644,1340,o),
(677,1489,c),
(790,1463,l),
(744,1316,o),
(699,1173,o),
(651,1028,c),
(619,876,o),
(585,726,o),
(553,579,c)
);
}
);
width = 944;
},
{
layerId = "63D0EC33-6CBF-45D2-A66C-DB5F90B9B4D9";
shapes = (
{
closed = 1;
nodes = (
(887,682,l),
(787,795,o),
(688,902,o),
(584,1019,c),
(479,1127,o),
(374,1237,o),
(270,1345,c),
(317,1389,l),
(418,1276,o),
(516,1168,o),
(620,1051,c),
(724,943,o),
(830,834,o),
(934,726,c)
);
},
{
closed = 1;
nodes = (
(160,934,l),
(309,977,o),
(451,1017,o),
(596,1060,c),
(737,1107,o),
(880,1152,o),
(1025,1199,c),
(1044,1138,l),
(899,1097,o),
(759,1056,o),
(610,1013,c),
(465,966,o),
(324,920,o),
(179,872,c)
);
},
{
closed = 1;
nodes = (
(454,606,l),
(497,751,o),
(538,896,o),
(579,1045,c),
(615,1190,o),
(652,1336,o),
(689,1481,c),
(750,1466,l),
(709,1321,o),
(668,1178,o),
(625,1033,c),
(588,884,o),
(551,736,o),
(515,591,c)
);
}
);
width = 916;
}
);
leftKerningGroup = degree2;
rightKerningGroup = degree;
unicode = 42;
}
{
glyphname = plus;
layers = (
{
layerId = "3CA9A7E0-8162-4AA0-82FE-E4D3CFC06BA1";
shapes = (
{
closed = 1;
nodes = (
(304,88,l),
(343,241,o),
(378,381,o),
(409,502,c),
(472,726,l),
(505,859,o),
(542,999,o),
(579,1148,c),
(976,1148,l),
(937,999,o),
(901,861,o),
(869,728,c),
(806,502,l),
(775,381,o),
(738,241,o),
(701,88,c)
);
},
{
closed = 1;
nodes = (
(68,428,l),
(153,808,l),
(569,808,l),
(797,808,l),
(1213,808,l),
(1128,428,l),
(712,428,l),
(484,428,l)
);
}
);
width = 1220;
},
{
layerId = "E0A1A151-DA4E-45E7-B25E-CE8CFFEFF43B";
shapes = (
{
closed = 1;
nodes = (
(383,111,l),
(418,244,o),
(450,366,o),
(477,474,c),
(547,728,l),
(576,841,o),
(609,966,o),
(642,1095,c),
(858,1095,l),
(823,966,o),
(790,842,o),
(763,729,c),
(693,474,ls),
(665,366,o),
(632,244,o),
(599,111,c)
);
},
{
closed = 1;
nodes = (
(117,500,l),
(164,706,l),
(528,706,l),
(762,706,l),
(1126,706,l),
(1079,500,l),
(715,500,l),
(481,500,l)
);
}
);
width = 1187;
},
{
layerId = "C537678D-9F31-4CE8-A163-37FABCD6ED8A";
shapes = (
{
closed = 1;
nodes = (
(413,120,l),
(446,244,o),
(477,362,o),
(503,463,c),
(575,729,l),
(603,834,o),
(635,953,o),
(666,1075,c),
(813,1075,l),
(780,953,o),
(748,835,o),
(723,729,c),
(650,463,ls),
(624,362,o),
(592,244,o),
(560,120,c)
);
},
{
closed = 1;
nodes = (
(135,527,l),
(168,667,l),
(512,667,l),
(749,667,l),
(1093,667,l),
(1061,527,l),
(716,527,l),
(480,527,l)
);
}
);
width = 1175;
},
{
layerId = "FCB7EB2F-12FE-49E3-9961-0638D9E3BD27";
shapes = (
{
closed = 1;
nodes = (
(450,130,l),
(481,243,o),
(510,357,o),
(535,450,cs),
(610,730,ls),
(635,826,o),
(666,937,o),
(695,1050,c),
(758,1050,l),
(727,937,o),
(697,826,o),
(673,730,cs),
(598,450,ls),
(573,357,o),
(542,243,o),
(513,130,c)
);
},
{
closed = 1;
nodes = (
(158,560,l),
(173,620,l),
(493,620,l),
(733,620,l),
(1053,620,l),
(1038,560,l),
(718,560,l),
(478,560,l)
);
}
);
width = 1160;
}
);
leftKerningGroup = plus2;
rightKerningGroup = plus;
unicode = 43;
}
{
glyphname = comma;
layers = (
{
layerId = "88659256-3F30-40E7-9696-2B2DC1F8E116";
shapes = (
{
closed = 1;
nodes = (
(-227,-314,l),
(-194,-275,o),
(-165,-234,o),
(-138,-191,cs),
(-85,-103,o),
(-44,-9,o),
(-16,104,cs),
(7,200,o),
(32,313,o),
(59,422,c),
(249,440,l),
(325,423,o),
(370,388,o),
(393,337,cs),
(416,285,o),
(418,226,o),
(403,154,cs),
(378,41,o),
(312,-55,o),
(232,-135,cs),
(152,-215,o),
(63,-273,o),
(-9,-310,c)
);
}
);
width = 544;
},
{
layerId = "21D94FDA-A95C-474B-951E-BE67C5105DB2";
shapes = (
{
closed = 1;
nodes = (
(-171,-314,l),
(-136,-277,o),
(-105,-239,o),
(-80,-200,cs),
(-28,-120,o),
(5,-38,o),
(32,62,c),
(49,131,o),
(67,209,o),
(86,285,c),
(196,295,l),
(243,284,o),
(271,263,o),
(286,231,c),
(299,198,o),
(301,160,o),
(290,113,cs),
(269,21,o),
(220,-65,o),
(156,-138,cs),
(92,-211,o),
(22,-271,o),
(-39,-311,c)
);
}
);
width = 481;
},
{
layerId = "3D47BFF5-453B-49C2-B010-5B64E116DAF2";
shapes = (
{
closed = 1;
nodes = (
(-149,-314,l),
(-114,-277,o),
(-83,-240,o),
(-58,-203,cs),
(-7,-127,o),
(24,-49,o),
(50,46,cs),
(65,105,o),
(81,170,o),
(96,233,c),
(176,240,l),
(212,231,o),
(234,215,o),
(245,191,c),
(255,165,o),
(256,135,o),
(247,97,cs),
(227,14,o),
(184,-67,o),
(127,-139,cs),
(70,-212,o),
(7,-271,o),
(-51,-311,c)
);
}
);
width = 457;
},
{
layerId = "CBE96DA9-FC64-4659-8F3D-7668682A4A62";
shapes = (
{
closed = 1;
nodes = (
(-123,-314,l),
(-86,-277,o),
(-55,-242,o),
(-30,-207,cs),
(19,-135,o),
(48,-63,o),
(72,26,cs),
(85,74,o),
(97,122,o),
(109,170,c),
(151,172,l),
(174,167,o),
(188,157,o),
(195,141,cs),
(202,125,o),
(202,105,o),
(195,78,cs),
(176,5,o),
(139,-69,o),
(91,-141,cs),
(43,-213,o),
(-12,-271,o),
(-65,-312,c)
);
}
);
width = 428;
}
);
leftKerningGroup = comma2;
rightKerningGroup = comma;
unicode = 44;
}
{
glyphname = hyphen;
layers = (
{
layerId = "E7B352D6-DDF7-4BB1-9248-C29C5148A582";
shapes = (
{
closed = 1;
nodes = (
(64,418,l),
(147,798,l),
(497,798,l),
(847,798,l),
(764,418,l),
(414,418,l)
);
}
);
width = 860;
},
{
layerId = "1ECFA0BB-D4D0-440A-AF13-F612441316F9";
shapes = (
{
closed = 1;
nodes = (
(115,495,l),
(161,701,l),
(473,701,l),
(785,701,l),
(739,495,l),
(427,495,l)
);
}
);
width = 849;
},
{
layerId = "3DB0A36A-4459-4A7E-AA85-C98DCD1D5A19";
shapes = (
{
closed = 1;
nodes = (
(132,521,l),
(166,669,l),
(465,669,l),
(764,669,l),
(731,521,l),
(431,521,l)
);
}
);
width = 845;
},
{
layerId = "63B846B6-E5C3-431C-B192-887AE8F7062B";
shapes = (
{
closed = 1;
nodes = (
(158,560,l),
(173,620,l),
(453,620,l),
(733,620,l),
(718,560,l),
(438,560,l)
);
}
);
width = 840;
}
);
leftKerningGroup = hyphen2;
rightKerningGroup = hyphen;
unicode = 45;
}
{
glyphname = period;
layers = (
{
layerId = "E7B352D6-DDF7-4BB1-9248-C29C5148A582";
shapes = (
{
closed = 1;
nodes = (
(130,-32,o),
(85,-19,o),
(49,8,cs),
(-23,60,o),
(-50,148,o),
(-30,237,cs),
(-1,364,o),
(76,438,o),
(232,438,cs),
(288,438,o),
(332,426,o),
(368,399,cs),
(440,347,o),
(470,260,o),
(450,168,cs),
(422,44,o),
(345,-32,o),
(190,-32,cs)
);
}
);
width = 590;
},
{
layerId = "1ECFA0BB-D4D0-440A-AF13-F612441316F9";
shapes = (
{
closed = 1;
nodes = (
(99,-24,o),
(69,-15,o),
(46,2,cs),
(-2,37,o),
(-21,95,o),
(-6,156,cs),
(15,243,o),
(67,288,o),
(167,288,cs),
(202,288,o),
(232,280,o),
(256,263,cs),
(303,230,o),
(323,174,o),
(310,110,c),
(291,26,o),
(238,-24,o),
(138,-24,cs)
);
}
);
width = 502;
},
{
layerId = "3DB0A36A-4459-4A7E-AA85-C98DCD1D5A19";
shapes = (
{
closed = 1;
nodes = (
(89,-22,o),
(64,-15,o),
(45,0,c),
(5,29,o),
(-11,77,o),
(2,128,cs),
(21,202,o),
(64,238,o),
(145,238,cs),
(174,238,o),
(198,231,o),
(218,217,cs),
(257,190,o),
(274,144,o),
(263,91,cs),
(247,20,o),
(202,-22,o),
(120,-22,cs)
);
}
);
width = 472;
},
{
layerId = "63B846B6-E5C3-431C-B192-887AE8F7062B";
shapes = (
{
closed = 1;
nodes = (
(73,-18,o),
(56,-14,o),
(43,-3,c),
(15,17,o),
(5,50,o),
(14,87,c),
(29,140,o),
(60,162,o),
(112,162,cs),
(131,162,o),
(148,158,o),
(161,149,cs),
(188,130,o),
(200,98,o),
(192,62,cs),
(180,10,o),
(149,-18,o),
(94,-18,cs)
);
}
);
width = 428;
}
);
leftKerningGroup = comma2;
rightKerningGroup = comma;
unicode = 46;
}
{
glyphname = slash;
layers = (
{
layerId = "E7B352D6-DDF7-4BB1-9248-C29C5148A582";
shapes = (
{
closed = 1;
nodes = (
(-130,0,l),
(-85,76,o),
(-42,144,o),
(-1,216,c),
(40,285,o),
(88,364,o),
(144,456,cs),
(441,954,ls),
(498,1050,o),
(548,1131,o),
(591,1203,cs),
(634,1275,o),
(677,1349,o),
(724,1426,c),
(1169,1426,l),
(1138,1375,o),
(1109,1325,o),
(1080,1277,cs),
(1020,1180,o),
(960,1077,o),
(883,948,cs),
(589,456,ls),
(533,364,o),
(486,285,o),
(445,216,c),
(404,144,o),
(361,76,o),
(316,0,c)
);
}
);
width = 928;
},
{
layerId = "1ECFA0BB-D4D0-440A-AF13-F612441316F9";
shapes = (
{
closed = 1;
nodes = (
(-87,0,l),
(-38,76,o),
(9,146,o),
(56,215,c),
(101,284,o),
(155,364,o),
(216,456,cs),
(543,953,ls),
(607,1049,o),
(662,1131,o),
(709,1203,cs),
(756,1275,o),
(805,1349,o),
(856,1426,c),
(1100,1426,l),
(1065,1375,o),
(1033,1325,o),
(1001,1277,cs),
(937,1180,o),
(869,1077,o),
(784,948,cs),
(459,456,ls),
(398,364,o),
(345,284,o),
(300,215,cs),
(255,146,o),
(207,76,o),
(158,0,c)
);
}
);
width = 900;
},
{
layerId = "3DB0A36A-4459-4A7E-AA85-C98DCD1D5A19";
shapes = (
{
closed = 1;
nodes = (
(-72,0,l),
(-22,76,o),
(27,146,o),
(75,215,cs),
(122,284,o),
(176,364,o),
(240,456,c),
(577,953,ls),
(643,1049,o),
(700,1131,o),
(749,1203,cs),
(798,1275,o),
(848,1349,o),
(901,1426,c),
(1076,1426,l),
(1041,1375,o),
(1008,1325,o),
(975,1277,cs),
(909,1180,o),
(839,1077,o),
(751,948,cs),
(415,456,ls),
(352,364,o),
(298,284,o),
(251,215,cs),
(205,146,o),
(155,76,o),
(104,0,c)
);
}
);
width = 890;
},
{
layerId = "63B846B6-E5C3-431C-B192-887AE8F7062B";
shapes = (
{
closed = 1;
nodes = (
(-50,0,l),
(3,76,o),
(55,146,o),
(104,215,cs),
(153,284,o),
(208,364,o),
(276,456,c),
(629,952,ls),
(698,1048,o),
(758,1131,o),
(809,1203,cs),
(860,1275,o),
(912,1349,o),
(968,1426,c),
(1041,1426,l),
(1004,1375,o),
(970,1325,o),
(935,1277,cs),
(866,1180,o),
(793,1077,o),
(701,948,cs),
(349,456,ls),
(284,364,o),
(227,284,o),
(178,215,cs),
(129,146,o),
(77,76,o),
(24,0,c)
);
}
);
width = 876;
}
);
unicode = 47;
}
{
glyphname = zero;
layers = (
{
layerId = "56A8602E-BDC2-46DE-85D6-EBC995AB5C7F";
shapes = (
{
closed = 1;
nodes = (
(401,-31,o),
(242,66,o),
(161,223,cs),
(81,380,o),
(73,581,o),
(128,793,cs),
(165,934,o),
(214,1054,o),
(274,1154,cs),
(394,1353,o),
(577,1458,o),
(857,1458,cs,{name = .dv04;}),
(1096,1458,o),
(1256,1366,o),
(1340,1213,cs),
(1424,1060,o),
(1434,857,o),
(1377,632,cs),
(1338,487,o),
(1287,366,o),
(1227,267,cs),
(1103,70,o),
(921,-31,o),
(650,-31,cs,{name = .dv01;})
);
},
{
closed = 1;
nodes = (
(703,355,o),
(732,368,o),
(759,393,cs),
(812,442,o),
(855,540,o),
(896,677,c),
(919,749,o),
(932,813,o),
(936,873,cs),
(940,933,o),
(936,981,o),
(921,1017,cs),
(905,1053,o),
(881,1069,o),
(846,1069,cs,{name = .dv03;}),
(811,1069,o),
(780,1058,o),
(753,1034,cs),
(700,985,o),
(657,889,o),
(614,746,c),
(591,677,o),
(580,613,o),
(573,553,c),
(568,493,o),
(572,446,o),
(587,410,cs),
(602,374,o),
(628,355,o),
(668,355,cs,{name = .dv02;})
);
}
);
width = 1401;
},
{
layerId = "7D741856-296A-45BF-88B8-057E37E60DB7";
shapes = (
{
closed = 1;
nodes = (
(409,-24,o),
(265,71,o),
(192,224,cs),
(119,380,o),
(114,582,o),
(170,805,c),
(209,944,o),
(257,1060,o),
(317,1159,cs),
(436,1354,o),
(611,1454,o),
(859,1454,cs,{name = .dv04;}),
(1064,1454,o),
(1207,1365,o),
(1280,1213,cs),
(1353,1060,o),
(1362,858,o),
(1302,627,cs),
(1263,482,o),
(1214,362,o),
(1154,266,cs),
(1033,73,o),
(863,-24,o),
(626,-24,cs,{name = .dv01;})
);
},
{
closed = 1;
nodes = (
(707,189,o),
(770,207,o),
(822,246,cs),
(925,321,o),
(993,463,o),
(1046,655,cs),
(1077,766,o),
(1090,865,o),
(1085,953,cs),
(1080,1042,o),
(1060,1111,o),
(1021,1163,cs),
(982,1214,o),
(926,1239,o),
(854,1239,cs,{name = .dv03;}),
(778,1239,o),
(715,1221,o),
(662,1185,cs),
(554,1109,o),
(484,970,o),
(429,775,cs),
(398,667,o),
(386,570,o),
(390,482,cs),
(393,394,o),
(414,322,o),
(455,269,c),
(494,216,o),
(555,189,o),
(635,189,cs,{name = .dv02;})
);
}
);
width = 1368;
},
{
layerId = "355BC9C9-DFF3-4FFB-B20D-156268081B81";
shapes = (
{
closed = 1;
nodes = (
(417,-18,o),
(287,73,o),
(220,226,cs),
(152,379,o),
(149,583,o),
(208,814,cs),
(245,951,o),
(294,1066,o),
(354,1162,cs),
(474,1353,o),
(642,1450,o),
(862,1450,cs,{name = .dv04;}),
(1038,1450,o),
(1164,1362,o),
(1229,1211,cs),
(1296,1060,o),
(1299,858,o),
(1239,623,cs),
(1200,478,o),
(1152,361,o),
(1092,265,cs),
(976,76,o),
(816,-18,o),
(608,-18,cs,{name = .dv01;})
);
},
{
closed = 1;
nodes = (
(714,49,o),
(803,72,o),
(876,121,cs),
(1020,217,o),
(1111,398,o),
(1175,637,cs),
(1212,781,o),
(1225,907,o),
(1213,1020,cs),
(1202,1133,o),
(1167,1222,o),
(1107,1287,cs),
(1047,1352,o),
(966,1383,o),
(862,1383,cs,{name = .dv03;}),
(754,1383,o),
(662,1360,o),
(586,1312,cs),
(434,1216,o),
(337,1038,o),
(273,798,cs),
(237,659,o),
(223,536,o),
(235,421,cs),
(246,306,o),
(281,218,o),
(344,150,cs),
(405,82,o),
(492,49,o),
(609,49,cs,{name = .dv02;})
);
}
);
width = 1341;
}
);
leftKerningGroup = six2;
rightKerningGroup = six;
unicode = 48;
}
{
glyphname = one;
layers = (
{
layerId = "E7B352D6-DDF7-4BB1-9248-C29C5148A582";
shapes = (
{
closed = 1;
nodes = (
(191,1166,l),
(424,1257,o),
(651,1334,o),
(883,1426,c),
(772,995,l),
(587,927,o),
(408,861,o),
(219,789,c)
);
},
{
closed = 1;
nodes = (
(256,0,l),
(276,72,o),
(293,140,o),
(312,208,cs),
(331,276,o),
(350,352,o),
(374,440,cs),
(480,828,ls),
(519,965,o),
(553,1097,o),
(590,1234,c),
(883,1426,l),
(1107,1426,l),
(1062,1254,o),
(1019,1094,o),
(976,930,cs),
(849,442,ls),
(826,353,o),
(806,277,o),
(787,209,c),
(770,141,o),
(751,72,o),
(732,0,c)
);
}
);
width = 992;
},
{
layerId = "1ECFA0BB-D4D0-440A-AF13-F612441316F9";
shapes = (
{
closed = 1;
nodes = (
(226,1161,l),
(433,1253,o),
(633,1334,o),
(838,1426,c),
(777,1189,l),
(596,1109,o),
(422,1033,o),
(239,953,c)
);
},
{
closed = 1;
nodes = (
(329,0,l),
(350,76,o),
(369,145,o),
(388,217,cs),
(407,289,o),
(427,364,o),
(451,452,cs),
(567,884,ls),
(606,1033,o),
(643,1172,o),
(683,1320,c),
(838,1426,l),
(959,1426,l),
(918,1269,o),
(873,1106,o),
(829,933,cs),
(703,453,ls),
(679,365,o),
(658,290,o),
(641,218,c),
(622,149,o),
(602,76,o),
(582,0,c)
);
}
);
width = 915;
},
{
layerId = "3DB0A36A-4459-4A7E-AA85-C98DCD1D5A19";
shapes = (
{
closed = 1;
nodes = (
(238,1159,l),
(436,1251,o),
(626,1334,o),
(822,1426,c),
(779,1255,l),
(600,1172,o),
(426,1092,o),
(246,1009,c)
);
},
{
closed = 1;
nodes = (
(354,0,l),
(375,78,o),
(395,149,o),
(414,221,cs),
(433,293,o),
(453,369,o),
(477,456,cs),
(596,903,ls),
(637,1057,o),
(673,1198,o),
(715,1349,c),
(822,1426,l),
(909,1426,l),
(868,1273,o),
(823,1110,o),
(779,934,c),
(653,457,ls),
(629,369,o),
(608,293,o),
(591,221,c),
(571,151,o),
(551,78,o),
(531,0,c)
);
}
);
width = 889;
},
{
layerId = "63B846B6-E5C3-431C-B192-887AE8F7062B";
shapes = (
{
closed = 1;
nodes = (
(255,1157,l),
(440,1249,o),
(616,1334,o),
(799,1426,c),
(781,1354,l),
(605,1266,o),
(432,1180,o),
(256,1092,c)
);
},
{
closed = 1;
nodes = (
(392,0,l),
(413,80,o),
(433,154,o),
(452,226,cs),
(471,298,o),
(492,376,o),
(515,461,cs),
(640,932,ls),
(683,1092,o),
(719,1236,o),
(762,1393,c),
(799,1426,l),
(833,1426,l),
(794,1278,o),
(748,1115,o),
(703,935,cs),
(577,462,ls),
(554,374,o),
(534,297,o),
(515,225,cs),
(495,153,o),
(475,80,o),
(454,0,c)
);
}
);
width = 851;
}
);
leftKerningGroup = one;
unicode = 49;
}
{
glyphname = two;
layers = (
{
layerId = "7EF4C8C3-176E-4742-B97B-8B3D28CEB20F";
shapes = (
{
closed = 1;
nodes = (
(-60,0,l),
(9,312,l),
(93,367,o),
(165,416,o),
(248,471,cs),
(340,532,o),
(421,588,o),
(493,639,cs),
(636,739,o),
(727,827,o),
(756,922,c),
(772,962,o),
(769,996,o),
(749,1024,cs),
(730,1052,o),
(694,1066,o),
(645,1066,cs),
(585,1066,o),
(518,1047,o),
(446,1015,cs),
(374,982,o),
(302,941,o),
(226,898,c),
(286,1362,l),
(355,1389,o),
(426,1413,o),
(505,1430,cs),
(584,1447,o),
(669,1459,o),
(769,1459,cs),
(894,1459,o),
(997,1437,o),
(1078,1390,cs),
(1158,1343,o),
(1212,1282,o),
(1243,1202,cs),
(1274,1122,o),
(1276,1032,o),
(1249,932,cs),
(1230,864,o),
(1202,803,o),
(1163,747,cs),
(1124,691,o),
(1074,639,o),
(1006,587,cs),
(939,534,o),
(857,479,o),
(756,422,cs),
(545,301,l),
(499,401,l),
(722,401,l),
(1088,401,l),
(1000,0,l)
);
}
);
width = 1209;
},
{
layerId = "34633467-B0C3-42A4-965D-4826287A5801";
shapes = (
{
closed = 1;
nodes = (
(-42,0,l),
(-1,173,l),
(100,244,o),
(194,311,o),
(294,380,cs),
(410,460,o),
(508,533,o),
(595,598,cs),
(766,727,o),
(873,843,o),
(910,972,c),
(933,1047,o),
(927,1109,o),
(895,1161,cs),
(863,1213,o),
(802,1239,o),
(714,1239,cs),
(658,1239,o),
(592,1226,o),
(516,1198,cs),
(440,1169,o),
(359,1132,o),
(271,1081,c),
(302,1339,l),
(366,1367,o),
(435,1395,o),
(515,1418,cs),
(594,1439,o),
(679,1455,o),
(771,1455,cs),
(882,1455,o),
(969,1433,o),
(1037,1389,cs),
(1104,1344,o),
(1148,1286,o),
(1171,1211,c),
(1192,1136,o),
(1192,1055,o),
(1171,967,c),
(1150,890,o),
(1114,819,o),
(1065,754,cs),
(1014,689,o),
(947,624,o),
(863,557,cs),
(779,489,o),
(675,415,o),
(554,334,cs),
(290,159,l),
(261,218,l),
(533,218,l),
(979,218,l),
(931,0,l)
);
}
);
width = 1167;
},
{
layerId = "C71A4940-BE13-40D7-A764-AD65D9EEA0EA";
shapes = (
{
closed = 1;
nodes = (
(-25,0,l),
(-9,56,l),
(108,140,o),
(217,219,o),
(334,302,cs),
(469,399,o),
(583,486,o),
(682,563,cs),
(878,718,o),
(999,854,o),
(1040,1015,cs),
(1068,1118,o),
(1061,1205,o),
(1018,1277,cs),
(975,1349,o),
(894,1384,o),
(771,1384,cs),
(718,1384,o),
(655,1377,o),
(576,1353,cs),
(499,1329,o),
(410,1293,o),
(310,1236,c),
(316,1317,l),
(372,1348,o),
(442,1380,o),
(522,1407,c),
(602,1432,o),
(687,1451,o),
(771,1451,cs),
(868,1451,o),
(945,1429,o),
(1001,1386,cs),
(1057,1343,o),
(1091,1287,o),
(1108,1218,cs),
(1124,1149,o),
(1122,1076,o),
(1102,996,c),
(1079,912,o),
(1040,835,o),
(980,760,cs),
(919,685,o),
(840,611,o),
(740,531,cs),
(640,451,o),
(521,362,o),
(381,261,cs),
(72,39,l),
(57,63,l),
(372,63,l),
(887,63,l),
(871,0,l)
);
}
);
width = 1132;
}
);
leftKerningGroup = two2;
rightKerningGroup = two;
unicode = 50;
}
{
glyphname = three;
layers = (
{
layerId = "E7B352D6-DDF7-4BB1-9248-C29C5148A582";
shapes = (
{
closed = 1;
nodes = (
(383,-33,o),
(273,-18,o),
(173,6,cs),
(73,30,o),
(-4,61,o),
(-51,93,c),
(70,507,l),
(131,464,o),
(200,429,o),
(276,402,cs),
(349,375,o),
(425,360,o),
(498,360,cs),
(545,360,o),
(580,366,o),
(606,379,cs),
(632,391,o),
(648,411,o),
(659,439,cs),
(672,474,o),
(668,500,o),
(647,521,c),
(624,541,o),
(588,552,o),
(535,552,cs),
(325,552,l),
(395,860,l),
(586,860,ls),
(622,860,o),
(652,862,o),
(676,865,cs),
(724,872,o),
(753,890,o),
(770,934,c),
(782,973,o),
(779,1002,o),
(762,1029,c),
(743,1054,o),
(709,1066,o),
(658,1066,cs),
(597,1066,o),
(531,1050,o),
(459,1022,cs),
(386,993,o),
(313,957,o),
(237,920,c),
(297,1367,l),
(366,1391,o),
(435,1414,o),
(515,1431,cs),
(592,1448,o),
(677,1459,o),
(777,1459,cs),
(902,1459,o),
(1000,1438,o),
(1084,1395,cs),
(1168,1352,o),
(1222,1297,o),
(1255,1225,c),
(1290,1156,o),
(1295,1082,o),
(1274,1002,cs),
(1259,942,o),
(1236,898,o),
(1205,865,cs),
(1141,797,o),
(1059,769,o),
(959,752,c),
(953,719,l),
(1014,696,o),
(1070,657,o),
(1109,593,c),
(1146,529,o),
(1160,445,o),
(1129,337,c),
(1108,249,o),
(1074,183,o),
(1025,127,cs),
(928,19,o),
(761,-33,o),
(492,-33,cs)
);
}
);
width = 1232;
},
{
layerId = "1ECFA0BB-D4D0-440A-AF13-F612441316F9";
shapes = (
{
closed = 1;
nodes = (
(380,-25,o),
(276,-8,o),
(188,20,cs),
(100,47,o),
(27,82,o),
(-22,118,c),
(50,342,l),
(114,299,o),
(182,261,o),
(254,234,cs),
(327,207,o),
(406,191,o),
(490,191,cs),
(586,191,o),
(656,206,o),
(707,236,cs),
(758,266,o),
(791,312,o),
(808,373,c),
(831,449,o),
(818,510,o),
(771,559,cs),
(723,608,o),
(645,631,o),
(532,631,cs),
(377,631,l),
(424,835,l),
(568,835,ls),
(644,835,o),
(703,841,o),
(754,853,cs),
(854,877,o),
(911,927,o),
(936,1007,c),
(956,1079,o),
(946,1132,o),
(909,1175,c),
(870,1218,o),
(812,1238,o),
(728,1238,cs),
(672,1238,o),
(609,1227,o),
(536,1203,cs),
(463,1178,o),
(384,1142,o),
(296,1095,c),
(325,1343,l),
(386,1370,o),
(453,1397,o),
(533,1420,cs),
(613,1443,o),
(691,1456,o),
(783,1456,cs),
(887,1456,o),
(970,1436,o),
(1042,1397,c),
(1111,1357,o),
(1160,1304,o),
(1189,1239,cs),
(1217,1174,o),
(1221,1104,o),
(1202,1024,c),
(1186,964,o),
(1161,919,o),
(1129,883,c),
(1061,810,o),
(970,773,o),
(862,754,c),
(858,731,l),
(919,711,o),
(983,671,o),
(1028,599,c),
(1073,530,o),
(1091,441,o),
(1060,324,c),
(1041,244,o),
(1007,182,o),
(963,131,cs),
(871,27,o),
(720,-25,o),
(488,-25,cs)
);
}
);
width = 1198;
},
{
layerId = "3DB0A36A-4459-4A7E-AA85-C98DCD1D5A19";
shapes = (
{
closed = 1;
nodes = (
(380,-22,o),
(280,-5,o),
(194,24,cs),
(108,52,o),
(38,89,o),
(-12,127,c),
(42,285,l),
(108,241,o),
(173,203,o),
(247,176,cs),
(321,149,o),
(400,134,o),
(492,134,cs),
(602,134,o),
(683,153,o),
(743,190,cs),
(802,227,o),
(840,282,o),
(860,353,cs),
(886,447,o),
(871,521,o),
(814,581,cs),
(756,641,o),
(663,669,o),
(531,669,cs),
(395,669,l),
(430,816,l),
(559,816,ls),
(648,816,o),
(718,823,o),
(778,839,cs),
(897,869,o),
(963,931,o),
(992,1025,c),
(1014,1109,o),
(1003,1173,o),
(958,1223,cs),
(912,1273,o),
(845,1296,o),
(752,1296,cs),
(698,1296,o),
(636,1287,o),
(562,1264,c),
(487,1240,o),
(407,1204,o),
(316,1153,c),
(335,1334,l),
(394,1362,o),
(461,1391,o),
(539,1415,cs),
(618,1439,o),
(696,1454,o),
(785,1454,cs),
(881,1454,o),
(960,1435,o),
(1027,1397,c),
(1093,1358,o),
(1138,1307,o),
(1167,1243,c),
(1193,1179,o),
(1197,1110,o),
(1177,1031,cs),
(1161,972,o),
(1136,926,o),
(1103,889,cs),
(1035,813,o),
(941,773,o),
(829,754,c),
(826,735,l),
(889,716,o),
(954,675,o),
(1002,601,cs),
(1048,530,o),
(1067,439,o),
(1036,318,cs),
(1017,243,o),
(985,182,o),
(941,132,cs),
(852,31,o),
(707,-22,o),
(491,-22,cs)
);
}
);
width = 1186;
},
{
layerId = "63B846B6-E5C3-431C-B192-887AE8F7062B";
shapes = (
{
closed = 1;
nodes = (
(379,-18,o),
(286,-1,o),
(202,30,cs),
(121,59,o),
(54,99,o),
(3,140,c),
(31,200,l),
(99,153,o),
(160,117,o),
(236,90,cs),
(312,63,o),
(392,49,o),
(496,49,cs),
(625,49,o),
(724,73,o),
(797,121,cs),
(869,168,o),
(914,236,o),
(938,324,cs),
(969,445,o),
(950,538,o),
(878,614,cs),
(806,690,o),
(690,725,o),
(529,725,cs),
(422,725,l),
(440,788,l),
(545,788,ls),
(653,788,o),
(741,797,o),
(814,817,cs),
(962,856,o),
(1042,936,o),
(1075,1053,cs),
(1102,1154,o),
(1088,1234,o),
(1032,1295,cs),
(976,1355,o),
(895,1383,o),
(787,1383,cs),
(736,1383,o),
(676,1376,o),
(600,1355,c),
(524,1332,o),
(442,1297,o),
(345,1241,c),
(351,1321,l),
(407,1350,o),
(473,1381,o),
(549,1408,c),
(625,1433,o),
(704,1450,o),
(788,1450,cs),
(872,1450,o),
(944,1433,o),
(1005,1397,cs),
(1065,1360,o),
(1106,1311,o),
(1133,1250,c),
(1158,1186,o),
(1160,1118,o),
(1139,1042,cs),
(1124,985,o),
(1099,936,o),
(1064,897,cs),
(995,817,o),
(897,774,o),
(780,755,c),
(778,742,l),
(843,723,o),
(911,681,o),
(962,605,c),
(1011,529,o),
(1031,435,o),
(999,310,c),
(980,241,o),
(952,182,o),
(909,133,cs),
(824,36,o),
(687,-18,o),
(496,-18,cs)
);
}
);
width = 1169;
}
);
leftKerningGroup = three;
rightKerningGroup = six;
unicode = 51;
}
{
glyphname = four;
layers = (
{
layerId = "56A8602E-BDC2-46DE-85D6-EBC995AB5C7F";
shapes = (
{
closed = 1;
nodes = (
(970,0,l),
(1007,144,o),
(1040,267,o),
(1086,443,cs),
(1214,929,ls),
(1256,1090,o),
(1300,1254,o),
(1344,1426,c),
(849,1426,l),
(774,1345,o),
(700,1268,o),
(627,1190,cs),
(408,957,ls),
(301,844,o),
(155,688,o),
(54,581,c),
(-26,269,l),
(722,269,ls),
(859,269,o),
(1057,269,o),
(1181,269,c),
(1284,670,l),
(1160,670,o),
(962,670,o),
(825,670,c),
(778,628,l),
(435,628,l),
(454,601,l),
(529,680,o),
(606,761,o),
(680,840,cs),
(955,1130,ls),
(1043,1223,o),
(1125,1310,o),
(1215,1405,c),
(862,1234,l),
(825,1097,o),
(790,963,o),
(754,827,cs),
(667,498,l),
(611,440,l),
(566,268,o),
(532,143,o),
(495,0,c)
);
}
);
width = 1301;
},
{
layerId = "7D741856-296A-45BF-88B8-057E37E60DB7";
shapes = (
{
closed = 1;
nodes = (
(836,0,l),
(873,138,o),
(901,245,o),
(943,405,cs),
(1079,926,ls),
(1122,1089,o),
(1165,1253,o),
(1210,1426,c),
(951,1426,l),
(865,1338,o),
(778,1245,o),
(693,1157,cs),
(450,903,ls),
(329,777,o),
(163,604,o),
(49,484,c),
(4,313,l),
(764,313,ls),
(880,313,o),
(1048,313,o),
(1154,313,c),
(1209,531,l),
(1105,531,o),
(935,531,o),
(819,531,cs),
(788,531,l),
(262,531,l),
(263,439,l),
(349,528,o),
(437,620,o),
(522,708,cs),
(845,1045,ls),
(947,1152,o),
(1043,1251,o),
(1147,1359,c),
(939,1315,l),
(900,1170,o),
(862,1026,o),
(822,876,cs),
(708,446,l),
(689,405,l),
(647,245,o),
(619,138,o),
(583,0,c)
);
}
);
width = 1260;
},
{
layerId = "355BC9C9-DFF3-4FFB-B20D-156268081B81";
shapes = (
{
closed = 1;
nodes = (
(722,0,l),
(757,127,o),
(782,228,o),
(821,374,cs),
(967,925,ls),
(1011,1092,o),
(1054,1249,o),
(1101,1426,c),
(1036,1426,l),
(941,1328,o),
(844,1228,o),
(749,1130,cs),
(486,859,ls),
(353,721,o),
(170,534,o),
(44,402,c),
(30,352,l),
(799,352,ls),
(897,352,o),
(1041,352,o),
(1131,352,c),
(1146,415,l),
(1057,415,o),
(913,415,o),
(815,415,cs),
(788,415,l),
(104,415,l),
(101,378,l),
(198,478,o),
(294,576,o),
(391,677,cs),
(754,1052,ls),
(865,1166,o),
(978,1281,o),
(1091,1398,c),
(1028,1383,l),
(986,1226,o),
(947,1080,o),
(905,923,cs),
(767,402,l),
(759,374,ls),
(720,228,o),
(694,127,o),
(660,0,c)
);
}
);
width = 1228;
}
);
leftKerningGroup = four2;
rightKerningGroup = four;
unicode = 52;
}
{
glyphname = five;
layers = (
{
layerId = "DD05D972-36B8-4829-B947-B0CCB227D6F6";
shapes = (
{
closed = 1;
nodes = (
(372,-32,o),
(265,-18,o),
(168,6,cs),
(72,30,o),
(-6,60,o),
(-51,92,c),
(70,507,l),
(130,464,o),
(196,429,o),
(268,402,cs),
(340,375,o),
(410,361,o),
(478,361,cs),
(522,361,o),
(559,367,o),
(590,380,c),
(621,395,o),
(643,419,o),
(658,458,c),
(669,483,o),
(671,505,o),
(664,526,c),
(659,546,o),
(647,562,o),
(624,575,cs),
(601,587,o),
(573,593,o),
(536,593,cs),
(508,593,o),
(478,590,o),
(445,585,cs),
(410,580,o),
(369,569,o),
(322,556,c),
(125,570,l),
(391,1426,l),
(1341,1426,l),
(1255,1025,l),
(578,1025,l),
(730,1170,l),
(611,847,l),
(644,847,l),
(679,862,o),
(707,871,o),
(734,879,cs),
(759,887,o),
(790,891,o),
(826,891,cs),
(902,891,o),
(965,869,o),
(1021,825,cs),
(1077,780,o),
(1115,720,o),
(1138,643,c),
(1159,563,o),
(1158,478,o),
(1134,378,c),
(1110,290,o),
(1073,216,o),
(1022,155,cs),
(921,32,o),
(748,-32,o),
(476,-32,cs)
);
}
);
width = 1226;
},
{
layerId = "169D2073-077B-44F5-BCEC-2735DA378421";
shapes = (
{
closed = 1;
nodes = (
(365,-24,o),
(268,-9,o),
(184,19,cs),
(100,46,o),
(30,78,o),
(-23,113,c),
(49,343,l),
(109,298,o),
(170,263,o),
(246,235,cs),
(322,207,o),
(396,192,o),
(472,192,cs),
(564,193,o),
(640,210,o),
(700,245,cs),
(760,280,o),
(802,340,o),
(826,428,cs),
(843,492,o),
(844,544,o),
(829,588,c),
(813,631,o),
(785,665,o),
(746,689,c),
(705,712,o),
(659,724,o),
(603,725,c),
(551,725,o),
(506,719,o),
(463,707,cs),
(422,696,o),
(369,675,o),
(309,644,c),
(202,652,l),
(428,1427,l),
(1267,1427,l),
(1217,1209,l),
(524,1209,l),
(639,1292,l),
(500,876,l),
(520,876,l),
(560,893,o),
(596,907,o),
(628,916,cs),
(661,925,o),
(698,931,o),
(741,931,cs),
(821,931,o),
(892,909,o),
(953,864,c),
(1017,819,o),
(1056,760,o),
(1083,680,cs),
(1110,600,o),
(1109,513,o),
(1082,409,cs),
(1055,309,o),
(1018,229,o),
(967,165,cs),
(863,36,o),
(702,-24,o),
(473,-24,cs)
);
}
);
width = 1202;
},
{
layerId = "B4BCD950-06D7-4C92-89A8-A8FD079D3312";
shapes = (
{
closed = 1;
nodes = (
(368,-21,o),
(273,-5,o),
(191,24,cs),
(109,51,o),
(41,86,o),
(-11,123,c),
(41,278,l),
(103,233,o),
(165,197,o),
(239,170,cs),
(313,142,o),
(388,128,o),
(469,128,c),
(580,128,o),
(671,148,o),
(742,193,cs),
(813,237,o),
(862,310,o),
(890,417,cs),
(910,495,o),
(911,559,o),
(892,612,cs),
(872,664,o),
(839,705,o),
(792,733,c),
(745,760,o),
(692,774,o),
(629,775,c),
(571,775,o),
(520,768,o),
(473,754,cs),
(427,740,o),
(368,715,o),
(290,677,c),
(218,683,l),
(442,1427,l),
(1239,1427,l),
(1204,1278,l),
(495,1278,l),
(581,1337,l),
(424,852,l),
(440,852,l),
(492,872,o),
(533,889,o),
(570,901,c),
(609,912,o),
(653,918,o),
(705,918,cs),
(787,918,o),
(859,897,o),
(923,853,cs),
(989,809,o),
(1031,749,o),
(1058,671,cs),
(1086,592,o),
(1086,504,o),
(1059,400,c),
(1032,302,o),
(995,224,o),
(944,162,cs),
(841,37,o),
(685,-21,o),
(471,-21,cs)
);
}
);
width = 1194;
},
{
layerId = "55FA06AC-4879-4DE1-88D6-2E093DDAA9A7";
shapes = (
{
closed = 1;
nodes = (
(371,-18,o),
(280,0,o),
(200,29,cs),
(120,58,o),
(54,96,o),
(3,135,c),
(31,199,l),
(95,154,o),
(159,117,o),
(231,90,cs),
(303,63,o),
(378,49,o),
(466,49,cs),
(599,49,o),
(709,73,o),
(793,129,cs),
(878,185,o),
(936,274,o),
(968,403,cs),
(992,499,o),
(993,577,o),
(969,641,cs),
(945,705,o),
(905,754,o),
(849,787,cs),
(793,819,o),
(732,836,o),
(660,836,cs),
(596,836,o),
(538,828,o),
(485,811,cs),
(432,794,o),
(367,764,o),
(267,717,c),
(237,721,l),
(459,1426,l),
(1205,1426,l),
(1189,1363,l),
(460,1363,l),
(509,1393,l),
(331,823,l),
(343,823,l),
(408,847,o),
(455,867,o),
(500,882,c),
(545,895,o),
(598,903,o),
(662,903,cs),
(746,903,o),
(819,882,o),
(887,839,cs),
(955,796,o),
(1000,736,o),
(1028,660,cs),
(1056,583,o),
(1058,494,o),
(1031,390,c),
(1004,294,o),
(967,218,o),
(916,158,cs),
(815,38,o),
(664,-18,o),
(468,-18,cs)
);
}
);
width = 1184;
}
);
leftKerningGroup = five2;
rightKerningGroup = five;
unicode = 53;
}
{
glyphname = six;
layers = (
{
layerId = "AFF82BBF-FC41-4F44-8FB2-1B474D793435";
shapes = (
{
closed = 1;
nodes = (
(72,172,o),
(257,-33,o),
(602,-33,cs),
(954,-33,o),
(1217,181,o),
(1217,536,cs),
(1217,753,o),
(1073,893,o),
(864,893,cs),
(792,893,o),
(704,877,o),
(624,816,c),
(582,816,l),
(458,713,o),
(417,682,o),
(516,546,c),
(547,576,o),
(598,601,o),
(667,601,cs),
(722,601,o),
(757,565,o),
(757,512,cs),
(757,436,o),
(708,360,o),
(626,360,cs),
(546,360,o),
(530,448,o),
(530,512,cs),
(530,870,o),
(814,1118,o),
(1224,1118,c),
(1165,1458,l),
(563,1458,o),
(72,1027,o),
(72,500,cs)
);
}
);
width = 1298;
},
{
layerId = "846F9768-90E9-4F6E-87A4-D262F6DA6C19";
shapes = (
{
closed = 1;
nodes = (
(112,171,o),
(275,-24,o),
(583,-24,cs),
(900,-24,o),
(1133,218,o),
(1133,527,cs),
(1133,737,o),
(997,900,o),
(775,900,cs),
(663,900,o),
(553,856,o),
(430,756,c),
(398,758,l),
(335,684,o),
(309,650,o),
(348,560,c),
(471,667,o),
(575,704,o),
(681,704,cs),
(824,704,o),
(893,613,o),
(893,504,cs),
(893,336,o),
(769,184,o),
(593,184,cs),
(436,184,o),
(374,286,o),
(374,470,cs),
(374,898,o),
(732,1252,o),
(1167,1252,c,{name = .dv03;}),
(1123,1454,l),
(569,1454,o),
(120,1019,o),
(115,479,cs)
);
}
);
width = 1270;
},
{
layerId = "3B700FF8-47B9-4100-B03E-59DC0E1692C9";
shapes = (
{
closed = 1;
nodes = (
(154,187,o),
(306,-19,o),
(587,-19,cs),
(896,-19,o),
(1127,229,o),
(1127,530,cs),
(1127,738,o),
(986,907,o),
(738,907,cs),
(573,907,o),
(439,844,o),
(276,721,c),
(240,723,l),
(228,694,o),
(221,657,o),
(222,613,c),
(433,790,o),
(590,840,o),
(735,840,cs),
(963,840,o),
(1063,696,o),
(1063,532,cs),
(1063,264,o),
(860,48,o),
(585,48,cs),
(343,48,o),
(218,203,o),
(218,453,cs),
(218,1017,o),
(567,1390,o),
(1094,1390,c,{name = .dv03;}),
(1081,1450,l,{name = .dv04;}),
(521,1450,o),
(154,1055,o),
(154,453,cs)
);
}
);
width = 1248;
}
);
leftKerningGroup = six2;
rightKerningGroup = six;
unicode = 54;
}
{
glyphname = seven;
layers = (
{
layerId = "E7B352D6-DDF7-4BB1-9248-C29C5148A582";
shapes = (
{
closed = 1;
nodes = (
(5,0,l),
(122,167,o),
(227,318,o),
(340,482,cs),
(593,845,ls),
(661,941,o),
(719,1026,o),
(780,1114,c),
(875,1025,l),
(633,1025,l),
(204,1025,l),
(289,1426,l),
(1370,1426,l),
(1304,1114,l),
(1207,969,o),
(1111,829,o),
(1012,684,cs),
(842,436,ls),
(742,291,o),
(646,149,o),
(546,0,c)
);
}
);
width = 1184;
},
{
layerId = "1ECFA0BB-D4D0-440A-AF13-F612441316F9";
shapes = (
{
closed = 1;
nodes = (
(68,0,l),
(197,185,o),
(326,360,o),
(455,541,cs),
(751,956,ls),
(827,1060,o),
(897,1157,o),
(969,1261,c),
(1020,1208,l),
(741,1208,l),
(243,1208,l),
(291,1426,l),
(1285,1426,l),
(1247,1256,l),
(1132,1093,o),
(1022,937,o),
(903,770,cs),
(704,489,ls),
(591,328,o),
(475,168,o),
(358,0,c)
);
}
);
width = 1120;
},
{
layerId = "3DB0A36A-4459-4A7E-AA85-C98DCD1D5A19";
shapes = (
{
closed = 1;
nodes = (
(89,0,l),
(224,191,o),
(360,374,o),
(493,561,cs),
(804,993,ls),
(882,1101,o),
(956,1203,o),
(1033,1310,c),
(1068,1270,l),
(777,1270,l),
(256,1270,l),
(291,1426,l),
(1255,1426,l),
(1228,1304,l),
(1106,1135,o),
(991,973,o),
(866,798,cs),
(657,507,ls),
(538,340,o),
(417,173,o),
(294,0,c)
);
}
);
width = 1098;
},
{
layerId = "63B846B6-E5C3-431C-B192-887AE8F7062B";
shapes = (
{
closed = 1;
nodes = (
(120,0,l),
(265,201,o),
(410,396,o),
(551,592,cs),
(884,1049,ls),
(964,1162,o),
(1045,1271,o),
(1129,1384,c),
(1141,1363,l),
(831,1363,l),
(276,1363,l),
(292,1426,l),
(1211,1426,l),
(1199,1376,l),
(1068,1197,o),
(945,1028,o),
(810,841,cs),
(587,535,ls),
(458,359,o),
(330,181,o),
(198,0,c)
);
}
);
width = 1065;
}
);
leftKerningGroup = seven2;
rightKerningGroup = seven;
unicode = 55;
}
{
glyphname = eight;
layers = (
{
layerId = "88659256-3F30-40E7-9696-2B2DC1F8E116";
shapes = (
{
closed = 1;
nodes = (
(440,-32,o),
(320,-9,o),
(228,42,cs),
(136,93,o),
(80,155,o),
(51,235,c),
(20,312,o),
(17,394,o),
(40,482,cs),
(60,554,o),
(88,607,o),
(127,647,cs),
(166,687,o),
(209,716,o),
(257,735,cs),
(306,754,o),
(354,767,o),
(405,775,c),
(411,808,l),
(372,819,o),
(339,841,o),
(308,872,c),
(279,903,o),
(257,941,o),
(246,988,cs),
(235,1035,o),
(236,1087,o),
(252,1147,cs),
(271,1219,o),
(306,1278,o),
(359,1325,cs),
(463,1417,o),
(621,1458,o),
(821,1458,cs),
(957,1458,o),
(1063,1438,o),
(1151,1397,c),
(1239,1354,o),
(1297,1300,o),
(1332,1231,cs),
(1367,1159,o),
(1373,1086,o),
(1353,1005,c),
(1338,953,o),
(1317,911,o),
(1289,876,c),
(1229,808,o),
(1147,775,o),
(1034,763,c),
(1028,730,l),
(1069,713,o),
(1108,688,o),
(1143,655,cs),
(1178,622,o),
(1202,579,o),
(1215,526,c),
(1230,473,o),
(1225,408,o),
(1205,331,cs),
(1184,251,o),
(1150,187,o),
(1103,131,c),
(1006,23,o),
(847,-32,o),
(600,-32,cs)
);
},
{
closed = 1;
nodes = (
(643,348,o),
(662,350,o),
(681,358,c),
(717,370,o),
(740,396,o),
(755,436,cs),
(764,459,o),
(766,480,o),
(759,500,c),
(748,540,o),
(713,566,o),
(660,566,cs),
(637,566,o),
(615,564,o),
(596,559,cs),
(559,550,o),
(531,527,o),
(514,484,cs),
(505,461,o),
(503,441,o),
(508,421,c),
(515,398,o),
(525,381,o),
(544,368,c),
(561,353,o),
(587,348,o),
(619,348,cs)
);
},
{
closed = 1;
nodes = (
(821,876,o),
(869,903,o),
(890,968,cs),
(903,1007,o),
(902,1037,o),
(883,1064,cs),
(866,1089,o),
(841,1100,o),
(806,1100,cs),
(779,1100,o),
(757,1095,o),
(736,1083,cs),
(713,1070,o),
(696,1046,o),
(684,1010,cs),
(676,987,o),
(674,965,o),
(678,945,cs),
(686,904,o),
(717,876,o),
(764,876,cs)
);
}
);
width = 1304;
},
{
layerId = "21D94FDA-A95C-474B-951E-BE67C5105DB2";
shapes = (
{
closed = 1;
nodes = (
(435,-24,o),
(325,-1,o),
(244,50,c),
(163,99,o),
(110,162,o),
(83,238,cs),
(56,314,o),
(52,392,o),
(75,476,cs),
(95,549,o),
(126,608,o),
(169,651,cs),
(212,694,o),
(259,725,o),
(310,745,cs),
(361,764,o),
(407,778,o),
(454,785,c),
(458,806,l),
(422,818,o),
(390,841,o),
(359,873,c),
(330,906,o),
(307,948,o),
(296,996,cs),
(284,1044,o),
(284,1099,o),
(300,1159,cs),
(319,1228,o),
(351,1284,o),
(400,1327,c),
(496,1415,o),
(640,1454,o),
(816,1454,cs),
(933,1454,o),
(1025,1437,o),
(1101,1398,cs),
(1177,1359,o),
(1228,1310,o),
(1259,1242,cs),
(1290,1177,o),
(1293,1106,o),
(1273,1029,cs),
(1260,976,o),
(1237,932,o),
(1206,895,c),
(1142,823,o),
(1054,784,o),
(953,769,c),
(949,748,l),
(988,733,o),
(1024,710,o),
(1063,675,c),
(1099,640,o),
(1125,595,o),
(1144,538,c),
(1161,481,o),
(1160,412,o),
(1137,332,c),
(1118,256,o),
(1085,192,o),
(1038,139,cs),
(945,32,o),
(797,-24,o),
(580,-24,cs)
);
},
{
closed = 1;
nodes = (
(645,194,o),
(695,200,o),
(736,215,cs),
(820,244,o),
(872,298,o),
(897,386,cs),
(913,442,o),
(912,489,o),
(896,530,cs),
(863,614,o),
(780,658,o),
(667,658,cs),
(611,658,o),
(562,653,o),
(517,644,c),
(428,623,o),
(361,572,o),
(330,469,cs),
(317,424,o),
(317,381,o),
(328,338,cs),
(340,295,o),
(365,261,o),
(408,234,cs),
(451,207,o),
(508,194,o),
(588,194,cs)
);
},
{
closed = 1;
nodes = (
(894,854,o),
(995,906,o),
(1026,1019,c),
(1046,1087,o),
(1034,1140,o),
(994,1183,c),
(951,1223,o),
(889,1242,o),
(805,1242,cs),
(741,1242,o),
(684,1235,o),
(636,1212,cs),
(587,1189,o),
(554,1149,o),
(535,1089,cs),
(522,1048,o),
(522,1010,o),
(534,974,cs),
(558,902,o),
(628,854,o),
(737,854,cs)
);
}
);
width = 1272;
},
{
layerId = "3D47BFF5-453B-49C2-B010-5B64E116DAF2";
shapes = (
{
closed = 1;
nodes = (
(435,-21,o),
(330,2,o),
(251,52,cs),
(172,101,o),
(122,163,o),
(97,239,cs),
(71,315,o),
(68,391,o),
(89,473,cs),
(109,549,o),
(142,608,o),
(186,652,cs),
(230,696,o),
(278,728,o),
(330,748,cs),
(382,767,o),
(427,781,o),
(472,788,c),
(476,806,l),
(441,818,o),
(410,841,o),
(379,874,c),
(350,907,o),
(326,950,o),
(315,998,cs),
(303,1047,o),
(303,1103,o),
(319,1163,cs),
(338,1231,o),
(369,1284,o),
(417,1327,cs),
(511,1414,o),
(649,1452,o),
(815,1452,cs),
(923,1452,o),
(1009,1435,o),
(1082,1398,c),
(1154,1359,o),
(1202,1311,o),
(1232,1246,cs),
(1261,1182,o),
(1263,1114,o),
(1243,1038,cs),
(1229,983,o),
(1206,939,o),
(1175,902,c),
(1109,828,o),
(1020,787,o),
(923,771,c),
(920,754,l),
(957,741,o),
(993,718,o),
(1032,683,c),
(1069,648,o),
(1097,601,o),
(1116,543,cs),
(1134,485,o),
(1134,415,o),
(1111,333,c),
(1092,258,o),
(1060,195,o),
(1014,142,cs),
(923,36,o),
(779,-21,o),
(572,-21,cs)
);
},
{
closed = 1;
nodes = (
(648,129,o),
(707,137,o),
(758,155,cs),
(861,192,o),
(922,261,o),
(951,367,cs),
(970,436,o),
(968,493,o),
(948,543,cs),
(907,644,o),
(807,698,o),
(672,698,cs),
(605,698,o),
(544,691,o),
(488,679,c),
(378,653,o),
(295,591,o),
(259,465,cs),
(244,409,o),
(243,356,o),
(258,304,cs),
(273,251,o),
(303,210,o),
(356,177,cs),
(408,144,o),
(479,129,o),
(577,129,cs)
);
},
{
closed = 1;
nodes = (
(921,834,o),
(1042,900,o),
(1078,1037,c),
(1101,1119,o),
(1088,1183,o),
(1037,1233,cs),
(986,1282,o),
(911,1305,o),
(806,1305,cs),
(728,1305,o),
(659,1295,o),
(598,1266,cs),
(537,1238,o),
(498,1190,o),
(478,1119,cs),
(463,1068,o),
(463,1022,o),
(478,979,cs),
(508,892,o),
(591,834,o),
(725,834,cs)
);
}
);
width = 1260;
},
{
layerId = "CBE96DA9-FC64-4659-8F3D-7668682A4A62";
shapes = (
{
closed = 1;
nodes = (
(434,-18,o),
(335,6,o),
(259,55,cs),
(183,104,o),
(137,164,o),
(113,240,cs),
(89,316,o),
(87,389,o),
(106,469,c),
(127,549,o),
(161,609,o),
(206,654,c),
(253,698,o),
(301,731,o),
(354,751,cs),
(407,771,o),
(452,785,o),
(495,792,c),
(497,805,l),
(465,818,o),
(434,841,o),
(403,876,cs),
(374,909,o),
(350,952,o),
(339,1001,cs),
(327,1050,o),
(327,1107,o),
(343,1167,cs),
(362,1235,o),
(392,1285,o),
(437,1328,c),
(529,1412,o),
(660,1450,o),
(813,1450,cs),
(910,1450,o),
(990,1433,o),
(1058,1397,cs),
(1126,1360,o),
(1171,1312,o),
(1198,1251,cs),
(1225,1187,o),
(1227,1124,o),
(1207,1048,cs),
(1192,992,o),
(1168,948,o),
(1136,911,cs),
(1068,835,o),
(979,790,o),
(886,773,c),
(884,761,l),
(919,750,o),
(955,728,o),
(994,692,cs),
(1033,657,o),
(1062,609,o),
(1082,549,cs),
(1102,489,o),
(1102,418,o),
(1079,334,cs),
(1060,261,o),
(1029,198,o),
(984,146,cs),
(895,41,o),
(756,-18,o),
(563,-18,cs)
);
},
{
closed = 1;
nodes = (
(651,49,o),
(721,59,o),
(785,82,cs),
(910,129,o),
(984,216,o),
(1017,344,cs),
(1040,428,o),
(1037,498,o),
(1012,559,cs),
(961,680,o),
(839,746,o),
(678,746,cs),
(597,746,o),
(522,738,o),
(453,722,cs),
(316,690,o),
(214,614,o),
(173,459,cs),
(154,390,o),
(153,326,o),
(172,262,cs),
(191,198,o),
(228,147,o),
(292,107,cs),
(356,68,o),
(443,49,o),
(563,49,cs)
);
},
{
closed = 1;
nodes = (
(955,809,o),
(1099,892,o),
(1142,1060,c),
(1169,1157,o),
(1154,1235,o),
(1090,1295,c),
(1029,1355,o),
(937,1383,o),
(808,1383,cs),
(711,1383,o),
(628,1368,o),
(552,1333,cs),
(476,1298,o),
(429,1240,o),
(408,1156,cs),
(391,1092,o),
(391,1037,o),
(410,985,c),
(446,880,o),
(546,809,o),
(711,809,cs)
);
}
);
width = 1246;
}
);
leftKerningGroup = six2;
rightKerningGroup = six;
unicode = 56;
}
{
glyphname = nine;
layers = (
{
layerId = "181BD7BB-C34D-461B-B27B-8D2A9629369B";
name = "#instance";
shapes = (
{
closed = 1;
nodes = (
(1332,1250,o),
(1142,1460,o),
(801,1456,c),
(445,1460,o),
(195,1273,o),
(191,912,c),
(195,701,o),
(312,548,o),
(525,544,c),
(593,548,o),
(702,561,o),
(786,624,c),
(826,624,l),
(950,725,o),
(998,756,o),
(905,888,c),
(868,862,o),
(805,838,o),
(738,832,c),
(681,838,o),
(644,876,o),
(647,912,c),
(635,990,o),
(692,1066,o),
(776,1064,c),
(854,1066,o),
(888,986,o),
(884,928,c),
(888,768,o),
(824,624,o),
(702,520,c),
(558,377,o),
(356,310,o),
(132,304,c),
(186,-32,l),
(481,-34,o),
(777,72,o),
(992,256,c),
(1210,432,o),
(1332,670,o),
(1332,928,cs)
);
}
);
width = 1298;
},
{
layerId = "1AD4D874-E916-4D35-AED1-4CCD341C5511";
shapes = (
{
closed = 1;
nodes = (
(1332,1250,o),
(1142,1460,o),
(801,1456,cs),
(445,1460,o),
(195,1273,o),
(191,912,c),
(195,701,o),
(312,548,o),
(525,544,c),
(593,548,o),
(702,561,o),
(786,624,c),
(826,624,l),
(950,725,o),
(998,756,o),
(905,888,c),
(868,862,o),
(805,838,o),
(738,832,c),
(681,838,o),
(644,876,o),
(647,912,c),
(635,990,o),
(692,1066,o),
(776,1064,c),
(854,1066,o),
(888,986,o),
(884,928,c),
(888,768,o),
(824,624,o),
(702,520,c),
(558,377,o),
(356,310,o),
(132,304,c),
(186,-32,l),
(481,-34,o),
(777,72,o),
(992,256,c),
(1210,432,o),
(1332,670,o),
(1332,928,cs)
);
}
);
width = 1298;
},
{
layerId = "6EECF198-EA47-4997-AC52-FDCC72651283";
shapes = (
{
closed = 1;
nodes = (
(1283,1246,o),
(1110,1454,o),
(796,1452,c),
(462,1454,o),
(222,1242,o),
(220,908,c),
(222,699,o),
(351,546,o),
(580,544,c),
(693,546,o),
(815,581,o),
(935,672,c),
(971,672,l),
(1044,740,o),
(1075,774,o),
(1024,866,c),
(907,770,o),
(799,732,o),
(696,729,c),
(560,732,o),
(493,810,o),
(494,905,c),
(488,1070,o),
(614,1212,o),
(786,1211,c),
(940,1212,o),
(1014,1096,o),
(1011,950,c),
(1014,767,o),
(941,599,o),
(811,472,c),
(630,282,o),
(409,186,o),
(184,183,c),
(221,-25,l),
(484,-26,o),
(753,89,o),
(978,300,c),
(1175,477,o),
(1283,706,o),
(1283,950,cs)
);
}
);
width = 1275;
},
{
layerId = "C478EF9B-FDD2-4ED0-8B69-07360DB9D5A9";
shapes = (
{
closed = 1;
nodes = (
(1225,1242,o),
(1072,1448,o),
(791,1448,cs),
(482,1448,o),
(253,1205,o),
(253,904,cs),
(253,696,o),
(397,544,o),
(645,544,cs),
(810,544,o),
(947,605,o),
(1110,728,c),
(1142,728,l),
(1154,757,o),
(1165,796,o),
(1164,840,c),
(953,663,o),
(791,608,o),
(646,608,cs),
(418,608,o),
(315,732,o),
(315,896,cs),
(315,1164,o),
(523,1384,o),
(798,1384,cs),
(1040,1384,o),
(1161,1226,o),
(1161,976,cs),
(1161,765,o),
(1078,570,o),
(938,416,cs),
(715,170,o),
(472,40,o),
(246,40,c,{name = .dv03;}),
(263,-16,l,{name = .dv04;}),
(488,-16,o),
(725,108,o),
(961,352,cs),
(1133,530,o),
(1225,749,o),
(1225,976,cs)
);
}
);
width = 1248;
}
);
leftKerningGroup = six2;
rightKerningGroup = six;
unicode = 57;
}
{
glyphname = colon;
layers = (
{
layerId = "E7B352D6-DDF7-4BB1-9248-C29C5148A582";
shapes = (
{
closed = 1;
nodes = (
(301,566,o),
(256,579,o),
(220,606,cs),
(148,658,o),
(121,746,o),
(141,835,cs),
(170,962,o),
(247,1036,o),
(403,1036,cs),
(459,1036,o),
(503,1024,o),
(539,997,cs),
(611,945,o),
(641,858,o),
(621,766,cs),
(593,642,o),
(516,566,o),
(361,566,cs)
);
},
{
closed = 1;
nodes = (
(130,-32,o),
(85,-19,o),
(49,8,cs),
(-23,60,o),
(-50,148,o),
(-30,237,cs),
(-1,364,o),
(76,438,o),
(232,438,cs),
(288,438,o),
(332,426,o),
(368,399,cs),
(440,347,o),
(470,260,o),
(450,168,cs),
(422,44,o),
(345,-32,o),
(190,-32,cs)
);
}
);
width = 590;
},
{
layerId = "1ECFA0BB-D4D0-440A-AF13-F612441316F9";
shapes = (
{
closed = 1;
nodes = (
(299,709,o),
(269,718,o),
(246,735,cs),
(198,770,o),
(179,828,o),
(194,889,cs),
(215,976,o),
(267,1021,o),
(367,1021,cs),
(402,1021,o),
(432,1013,o),
(456,996,cs),
(503,963,o),
(523,907,o),
(510,843,c),
(491,759,o),
(438,709,o),
(338,709,cs)
);
},
{
closed = 1;
nodes = (
(99,-24,o),
(69,-15,o),
(46,2,cs),
(-2,37,o),
(-21,95,o),
(-6,156,cs),
(15,243,o),
(67,288,o),
(167,288,cs),
(202,288,o),
(232,280,o),
(256,263,cs),
(303,230,o),
(323,174,o),
(310,110,c),
(291,26,o),
(238,-24,o),
(138,-24,cs)
);
}
);
width = 502;
},
{
layerId = "3DB0A36A-4459-4A7E-AA85-C98DCD1D5A19";
shapes = (
{
closed = 1;
nodes = (
(299,757,o),
(274,764,o),
(255,778,cs),
(215,807,o),
(199,855,o),
(212,907,cs),
(231,980,o),
(274,1016,o),
(355,1016,cs),
(384,1016,o),
(408,1009,o),
(428,996,c),
(467,968,o),
(484,922,o),
(473,869,cs),
(457,798,o),
(412,757,o),
(330,757,cs)
);
},
{
closed = 1;
nodes = (
(89,-22,o),
(64,-15,o),
(45,0,c),
(5,29,o),
(-11,77,o),
(2,128,cs),
(21,202,o),
(64,238,o),
(145,238,cs),
(174,238,o),
(198,231,o),
(218,217,cs),
(257,190,o),
(274,144,o),
(263,91,cs),
(247,20,o),
(202,-22,o),
(120,-22,cs)
);
}
);
width = 472;
},
{
layerId = "63B846B6-E5C3-431C-B192-887AE8F7062B";
shapes = (
{
closed = 1;
nodes = (
(298,828,o),
(281,832,o),
(268,843,c),
(240,863,o),
(230,896,o),
(239,933,c),
(254,986,o),
(285,1008,o),
(337,1008,cs),
(356,1008,o),
(373,1004,o),
(386,995,cs),
(413,976,o),
(425,944,o),
(417,908,cs),
(405,856,o),
(374,828,o),
(319,828,cs)
);
},
{
closed = 1;
nodes = (
(73,-18,o),
(56,-14,o),
(43,-3,c),
(15,17,o),
(5,50,o),
(14,87,c),
(29,140,o),
(60,162,o),
(112,162,cs),
(131,162,o),
(148,158,o),
(161,149,cs),
(188,130,o),
(200,98,o),
(192,62,cs),
(180,10,o),
(149,-18,o),
(94,-18,cs)
);
}
);
width = 428;
}
);
leftKerningGroup = colon2;
rightKerningGroup = colon;
unicode = 58;
}
{
glyphname = less;
layers = (
{
layerId = "E7B352D6-DDF7-4BB1-9248-C29C5148A582";
shapes = (
{
closed = 1;
nodes = (
(990,66,l),
(857,118,o),
(725,170,o),
(612,214,cs),
(445,280,ls),
(332,324,o),
(200,376,o),
(67,428,c),
(152,808,l),
(313,860,o),
(470,912,o),
(607,956,cs),
(812,1022,ls),
(949,1066,o),
(1107,1118,o),
(1268,1170,c),
(1177,749,l),
(1076,721,o),
(970,693,o),
(862,662,cs),
(699,617,l),
(692,585,l),
(823,537,l),
(907,508,o),
(992,476,o),
(1076,445,c)
);
}
);
width = 1180;
},
{
layerId = "1ECFA0BB-D4D0-440A-AF13-F612441316F9";
shapes = (
{
closed = 1;
nodes = (
(938,126,l),
(821,178,o),
(709,229,o),
(612,273,cs),
(441,352,ls),
(345,395,o),
(233,445,o),
(116,497,c),
(163,706,l),
(308,758,o),
(448,809,o),
(565,852,cs),
(780,931,ls),
(905,975,o),
(1040,1026,o),
(1185,1078,c),
(1134,847,l),
(989,795,o),
(838,741,o),
(689,685,cs),
(457,601,l),
(451,580,l),
(635,494,ls),
(752,441,o),
(871,384,o),
(988,331,c)
);
}
);
width = 1147;
},
{
layerId = "3DB0A36A-4459-4A7E-AA85-C98DCD1D5A19";
shapes = (
{
closed = 1;
nodes = (
(921,146,l),
(810,198,o),
(704,249,o),
(612,293,cs),
(439,376,ls),
(349,419,o),
(243,469,o),
(133,521,c),
(167,672,l),
(306,724,o),
(439,775,o),
(551,817,cs),
(769,900,l),
(888,944,o),
(1018,995,o),
(1157,1047,c),
(1120,880,l),
(960,820,o),
(794,757,o),
(631,693,c),
(375,595,l),
(369,578,l),
(572,479,l),
(700,418,o),
(830,353,o),
(958,293,c)
);
}
);
width = 1136;
},
{
layerId = "63B846B6-E5C3-431C-B192-887AE8F7062B";
shapes = (
{
closed = 1;
nodes = (
(895,176,l),
(794,228,o),
(697,278,o),
(612,322,cs),
(437,412,ls),
(356,455,o),
(259,504,o),
(158,556,c),
(173,620,l),
(302,672,o),
(425,723,o),
(529,764,cs),
(753,854,ls),
(862,898,o),
(986,948,o),
(1115,1000,c),
(1098,929,l),
(917,857,o),
(728,781,o),
(544,705,cs),
(252,587,l),
(247,575,l),
(477,457,ls),
(622,384,o),
(768,307,o),
(913,235,c)
);
}
);
width = 1120;
}
);
leftKerningGroup = plus2;
unicode = 60;
}
{
glyphname = equal;
layers = (
{
layerId = "88659256-3F30-40E7-9696-2B2DC1F8E116";
shapes = (
{
closed = 1;
nodes = (
(23,168,l),
(108,548,l),
(524,548,l),
(672,548,l),
(1088,548,l),
(1003,168,l),
(587,168,l),
(439,168,l)
);
},
{
closed = 1;
nodes = (
(155,688,l),
(240,1068,l),
(656,1068,l),
(804,1068,l),
(1220,1068,l),
(1135,688,l),
(719,688,l),
(571,688,l)
);
}
);
width = 1180;
},
{
layerId = "21D94FDA-A95C-474B-951E-BE67C5105DB2";
shapes = (
{
closed = 1;
nodes = (
(67,267,l),
(115,473,l),
(478,473,l),
(655,473,l),
(1019,473,l),
(972,267,l),
(608,267,l),
(431,267,l)
);
},
{
closed = 1;
nodes = (
(186,732,l),
(233,939,l),
(597,939,l),
(774,939,l),
(1138,939,l),
(1091,732,l),
(727,732,l),
(550,732,l)
);
}
);
width = 1147;
},
{
layerId = "3D47BFF5-453B-49C2-B010-5B64E116DAF2";
shapes = (
{
closed = 1;
nodes = (
(84,304,l),
(117,445,l),
(461,445,l),
(648,445,l),
(992,445,l),
(960,304,l),
(616,304,l),
(428,304,l)
);
},
{
closed = 1;
nodes = (
(198,749,l),
(231,890,l),
(575,890,l),
(762,890,l),
(1107,890,l),
(1074,749,l),
(730,749,l),
(542,749,l)
);
}
);
width = 1135;
},
{
layerId = "CBE96DA9-FC64-4659-8F3D-7668682A4A62";
shapes = (
{
closed = 1;
nodes = (
(105,350,l),
(120,410,l),
(440,410,l),
(640,410,l),
(960,410,l),
(945,350,l),
(625,350,l),
(425,350,l)
);
},
{
closed = 1;
nodes = (
(213,770,l),
(228,830,l),
(548,830,l),
(748,830,l),
(1068,830,l),
(1053,770,l),
(733,770,l),
(533,770,l)
);
}
);
width = 1120;
}
);
unicode = 61;
}
{
glyphname = greater;
layers = (
{
layerId = "E7B352D6-DDF7-4BB1-9248-C29C5148A582";
shapes = (
{
closed = 1;
nodes = (
(63,487,l),
(164,515,o),
(273,547,o),
(381,576,cs),
(541,620,l),
(548,652,l),
(416,700,ls),
(335,731,o),
(248,763,o),
(164,792,c),
(249,1170,l),
(382,1118,o),
(514,1066,o),
(627,1022,cs),
(795,956,ls),
(908,912,o),
(1040,860,o),
(1173,808,c),
(1088,428,l),
(927,376,o),
(769,324,o),
(632,280,cs),
(427,214,ls),
(290,170,o),
(132,118,o),
(-29,66,c)
);
}
);
width = 1180;
},
{
layerId = "1ECFA0BB-D4D0-440A-AF13-F612441316F9";
shapes = (
{
closed = 1;
nodes = (
(68,357,l),
(213,409,o),
(365,467,o),
(514,520,cs),
(746,604,l),
(752,625,l),
(566,711,ls),
(449,767,o),
(332,821,o),
(215,873,c),
(263,1078,l),
(380,1026,o),
(493,975,o),
(590,931,cs),
(763,851,ls),
(859,808,o),
(969,757,o),
(1086,706,c),
(1039,497,l),
(894,445,o),
(757,395,o),
(636,352,cs),
(422,273,ls),
(301,229,o),
(162,178,o),
(17,126,c)
);
}
);
width = 1147;
},
{
layerId = "3DB0A36A-4459-4A7E-AA85-C98DCD1D5A19";
shapes = (
{
closed = 1;
nodes = (
(70,313,l),
(229,373,o),
(396,440,o),
(559,501,c),
(815,598,l),
(821,616,l),
(616,715,l),
(488,779,o),
(359,841,o),
(232,901,c),
(268,1047,l),
(378,995,o),
(485,944,o),
(577,900,cs),
(752,816,ls),
(842,774,o),
(947,723,o),
(1057,672,c),
(1023,521,l),
(884,469,o),
(752,419,o),
(638,376,cs),
(420,293,ls),
(304,249,o),
(171,198,o),
(32,146,c)
);
}
);
width = 1136;
},
{
layerId = "63B846B6-E5C3-431C-B192-887AE8F7062B";
shapes = (
{
closed = 1;
nodes = (
(73,247,l),
(253,319,o),
(442,399,o),
(627,472,cs),
(919,590,l),
(924,602,l),
(692,720,ls),
(547,796,o),
(399,870,o),
(258,942,c),
(275,1000,l),
(375,948,o),
(473,898,o),
(558,854,cs),
(736,763,ls),
(816,722,o),
(913,671,o),
(1013,620,c),
(998,556,l),
(869,504,o),
(745,455,o),
(640,412,cs),
(417,322,ls),
(309,278,o),
(184,228,o),
(55,176,c)
);
}
);
width = 1120;
}
);
rightKerningGroup = plus;
unicode = 62;
}
{
glyphname = question;
layers = (
{
layerId = "181BD7BB-C34D-461B-B27B-8D2A9629369B";
name = "#instance";
shapes = (
{
closed = 1;
nodes = (
(222,-16,o),
(250,-11,o),
(269,8,cs),
(288,27,o),
(299,57,o),
(299,88,cs),
(299,112,o),
(289,131,o),
(274,144,cs),
(259,157,o),
(238,160,o),
(214,160,cs),
(185,160,o),
(152,153,o),
(135,136,cs),
(118,119,o),
(108,95,o),
(108,64,cs),
(108,40,o),
(118,23,o),
(133,8,cs),
(148,-7,o),
(167,-16,o),
(191,-16,cs)
);
},
{
closed = 1;
nodes = (
(831,1188,o),
(791,1281,o),
(723,1344,cs),
(617,1443,o),
(521,1488,o),
(426,1488,c),
(385,1424,l),
(464,1423,o),
(555,1389,o),
(637,1320,cs),
(715,1255,o),
(754,1168,o),
(754,1072,cs),
(754,987,o),
(713,931,o),
(657,888,cs),
(601,844,o),
(529,812,o),
(461,784,c),
(443,776,ls),
(386,752,o),
(343,730,o),
(312,704,cs),
(280,678,o),
(257,647,o),
(246,608,cs),
(242,592,o),
(244,579,o),
(241,560,cs),
(237,541,o),
(234,515,o),
(230,488,cs),
(221,424,l),
(274,416,l),
(296,528,ls),
(307,583,o),
(321,620,o),
(345,648,cs),
(369,676,o),
(398,695,o),
(450,712,cs),
(476,720,ls),
(567,749,o),
(653,788,o),
(718,848,cs),
(783,907,o),
(831,983,o),
(831,1088,cs)
);
}
);
width = 745;
},
{
layerId = "6EECF198-EA47-4997-AC52-FDCC72651283";
shapes = (
{
closed = 1;
nodes = (
(289,-25,o),
(333,-12,o),
(368,21,cs),
(402,53,o),
(422,104,o),
(422,161,cs),
(422,208,o),
(406,248,o),
(378,274,cs),
(349,300,o),
(309,311,o),
(263,311,cs),
(207,311,o),
(155,293,o),
(122,261,c),
(88,230,o),
(69,188,o),
(69,129,cs),
(69,81,o),
(89,43,o),
(118,17,c),
(146,-10,o),
(186,-25,o),
(232,-25,cs)
);
},
{
closed = 1;
nodes = (
(992,1175,o),
(949,1270,o),
(854,1348,c),
(738,1445,o),
(607,1493,o),
(466,1493,c),
(361,1287,l),
(435,1286,o),
(532,1256,o),
(627,1203,cs),
(719,1153,o),
(763,1096,o),
(763,1042,cs),
(763,999,o),
(737,972,o),
(703,948,cs),
(670,925,o),
(625,907,o),
(577,892,c),
(492,880,l),
(408,862,o),
(347,840,o),
(306,812,cs),
(264,784,o),
(236,747,o),
(223,699,cs),
(216,672,o),
(219,655,o),
(217,633,cs),
(215,612,o),
(214,588,o),
(214,557,cs),
(213,493,l),
(331,481,l),
(347,541,l),
(354,571,o),
(367,589,o),
(389,605,cs),
(411,620,o),
(436,630,o),
(465,639,c),
(566,651,l),
(688,669,o),
(793,712,o),
(869,783,cs),
(944,853,o),
(992,947,o),
(992,1062,cs)
);
}
);
width = 902;
},
{
layerId = "1AD4D874-E916-4D35-AED1-4CCD341C5511";
shapes = (
{
closed = 1;
nodes = (
(346,-32,o),
(404,-12,o),
(452,32,cs),
(499,76,o),
(527,144,o),
(527,224,cs),
(527,289,o),
(506,347,o),
(466,384,cs),
(426,421,o),
(369,440,o),
(305,440,cs),
(225,440,o),
(157,412,o),
(110,368,cs),
(62,324,o),
(36,268,o),
(36,184,cs),
(36,116,o),
(65,60,o),
(105,24,cs),
(145,-12,o),
(202,-32,o),
(266,-32,cs)
);
},
{
closed = 1;
nodes = (
(1130,1164,o),
(1084,1261,o),
(965,1352,cs),
(841,1447,o),
(680,1498,o),
(500,1498,c),
(340,1170,l),
(410,1170,o),
(513,1142,o),
(619,1104,cs),
(723,1066,o),
(771,1035,o),
(771,1016,cs),
(771,1009,o),
(758,1006,o),
(743,1000,cs),
(728,994,o),
(707,988,o),
(675,984,cs),
(534,968,ls),
(426,955,o),
(351,934,o),
(301,904,cs),
(251,874,o),
(218,833,o),
(203,776,cs),
(194,740,o),
(197,719,o),
(197,696,c),
(196,672,o),
(197,651,o),
(200,616,cs),
(207,552,l),
(379,536,l),
(391,552,ls),
(394,560,o),
(407,563,o),
(427,568,cs),
(446,573,o),
(468,575,o),
(477,576,cs),
(642,592,ls),
(791,601,o),
(913,648,o),
(998,728,cs),
(1082,807,o),
(1130,916,o),
(1130,1040,cs)
);
}
);
width = 1035;
},
{
layerId = "C478EF9B-FDD2-4ED0-8B69-07360DB9D5A9";
shapes = (
{
closed = 1;
nodes = (
(222,-16,o),
(250,-11,o),
(269,8,cs),
(288,27,o),
(299,57,o),
(299,88,cs),
(299,112,o),
(289,131,o),
(274,144,cs),
(259,157,o),
(238,160,o),
(214,160,cs),
(185,160,o),
(152,153,o),
(135,136,cs),
(118,119,o),
(108,95,o),
(108,64,cs),
(108,40,o),
(118,23,o),
(133,8,cs),
(148,-7,o),
(167,-16,o),
(191,-16,cs)
);
},
{
closed = 1;
nodes = (
(831,1188,o),
(791,1281,o),
(723,1344,cs),
(617,1443,o),
(521,1488,o),
(426,1488,c),
(385,1424,l),
(464,1423,o),
(555,1389,o),
(637,1320,cs),
(715,1255,o),
(754,1168,o),
(754,1072,cs),
(754,987,o),
(713,931,o),
(657,888,cs),
(601,844,o),
(529,812,o),
(461,784,cs),
(443,776,ls),
(386,752,o),
(343,730,o),
(312,704,cs),
(280,678,o),
(257,647,o),
(246,608,cs),
(242,592,o),
(244,579,o),
(241,560,cs),
(237,541,o),
(234,515,o),
(230,488,cs),
(221,424,l),
(274,416,l),
(296,528,ls),
(307,583,o),
(321,620,o),
(345,648,cs),
(369,676,o),
(398,695,o),
(450,712,cs),
(476,720,ls),
(567,749,o),
(653,788,o),
(718,848,cs),
(783,907,o),
(831,983,o),
(831,1088,cs)
);
}
);
width = 745;
}
);
unicode = 63;
}
{
glyphname = at;
layers = (
{
layerId = "C35C82B5-966E-4E5A-A975-45FF48335915";
shapes = (
{
closed = 1;
nodes = (
(816,-314,o),
(671,-287,o),
(546,-231,cs),
(421,-175,o),
(321,-100,o),
(244,-3,cs),
(167,94,o),
(116,204,o),
(91,332,cs),
(66,459,o),
(68,591,o),
(99,734,cs),
(151,978,o),
(269,1152,o),
(430,1267,cs),
(590,1382,o),
(780,1434,o),
(979,1434,cs),
(1251,1434,o),
(1467,1336,o),
(1611,1169,cs),
(1755,1002,o),
(1812,778,o),
(1763,522,cs),
(1734,366,o),
(1667,265,o),
(1584,204,cs),
(1501,143,o),
(1413,118,o),
(1337,118,cs),
(1281,118,o),
(1231,125,o),
(1186,138,cs),
(1094,165,o),
(1026,210,o),
(993,270,c),
(969,270,l),
(942,218,o),
(909,182,o),
(870,163,cs),
(831,144,o),
(791,134,o),
(751,134,cs),
(679,134,o),
(620,156,o),
(573,203,cs),
(525,250,o),
(493,309,o),
(474,385,cs),
(455,461,o),
(456,540,o),
(473,628,cs),
(486,692,o),
(507,750,o),
(538,806,cs),
(599,917,o),
(693,990,o),
(817,990,cs),
(846,990,o),
(874,986,o),
(899,977,cs),
(950,958,o),
(986,921,o),
(1009,864,c),
(1035,864,l),
(1069,964,l),
(1373,980,l),
(1346,856,o),
(1317,723,o),
(1288,587,cs),
(1281,554,ls),
(1266,489,o),
(1268,445,o),
(1285,418,cs),
(1301,391,o),
(1320,378,o),
(1343,378,cs),
(1379,378,o),
(1412,394,o),
(1440,427,cs),
(1468,459,o),
(1490,509,o),
(1503,574,cs),
(1542,771,o),
(1507,923,o),
(1411,1031,cs),
(1315,1139,o),
(1167,1194,o),
(975,1194,cs),
(852,1194,o),
(750,1172,o),
(665,1125,cs),
(496,1032,o),
(396,868,o),
(353,676,cs),
(304,456,o),
(337,272,o),
(445,137,cs),
(553,4,o),
(736,-74,o),
(985,-74,cs),
(1034,-74,o),
(1087,-69,o),
(1147,-60,cs),
(1266,-40,o),
(1400,6,o),
(1553,102,c),
(1553,-170,l),
(1496,-203,o),
(1437,-231,o),
(1376,-252,cs),
(1255,-295,o),
(1126,-314,o),
(985,-314,cs)
);
},
{
closed = 1;
nodes = (
(888,436,o),
(909,454,o),
(921,478,c),
(959,656,l),
(951,671,o),
(931,682,o),
(911,682,cs),
(886,682,o),
(866,672,o),
(847,649,cs),
(828,626,o),
(816,599,o),
(809,564,cs),
(805,545,o),
(804,526,o),
(807,507,c),
(811,467,o),
(829,436,o),
(861,436,cs)
);
}
);
width = 1804;
},
{
layerId = "C5E7CDC0-006A-44D9-BB84-2E22B5F2F578";
shapes = (
{
closed = 1;
nodes = (
(803,-276,o),
(665,-249,o),
(548,-196,cs),
(429,-143,o),
(336,-70,o),
(264,22,cs),
(192,114,o),
(144,218,o),
(120,335,cs),
(95,452,o),
(96,573,o),
(123,701,cs),
(171,934,o),
(282,1100,o),
(431,1211,cs),
(580,1322,o),
(761,1372,o),
(956,1372,cs),
(1211,1372,o),
(1412,1277,o),
(1545,1116,cs),
(1678,955,o),
(1732,742,o),
(1685,501,cs),
(1658,361,o),
(1598,268,o),
(1526,208,cs),
(1454,148,o),
(1376,122,o),
(1312,122,cs),
(1259,122,o),
(1215,129,o),
(1178,144,cs),
(1103,173,o),
(1058,222,o),
(1039,274,c),
(1022,274,l),
(991,227,o),
(953,193,o),
(906,172,cs),
(859,151,o),
(816,141,o),
(773,141,cs),
(696,141,o),
(634,163,o),
(587,208,c),
(539,252,o),
(507,310,o),
(491,382,cs),
(474,454,o),
(474,529,o),
(491,613,cs),
(506,685,o),
(529,746,o),
(564,802,cs),
(632,913,o),
(732,978,o),
(857,978,cs),
(892,978,o),
(925,974,o),
(956,963,cs),
(1016,942,o),
(1064,904,o),
(1097,855,c),
(1114,855,l),
(1142,956,l),
(1312,967,l),
(1283,822,o),
(1250,666,o),
(1215,509,cs),
(1207,470,ls),
(1192,398,o),
(1196,350,o),
(1217,319,cs),
(1237,288,o),
(1267,274,o),
(1307,274,cs),
(1359,274,o),
(1407,299,o),
(1447,344,cs),
(1487,388,o),
(1518,452,o),
(1533,532,cs),
(1573,733,o),
(1534,906,o),
(1430,1031,cs),
(1326,1156,o),
(1164,1229,o),
(953,1229,cs),
(833,1229,o),
(729,1207,o),
(636,1164,cs),
(451,1076,o),
(324,908,o),
(273,671,cs),
(225,454,o),
(263,256,o),
(380,107,cs),
(497,-42,o),
(694,-133,o),
(963,-133,cs),
(1015,-133,o),
(1071,-128,o),
(1132,-119,cs),
(1253,-100,o),
(1388,-54,o),
(1529,38,c),
(1529,-127,l),
(1473,-162,o),
(1417,-189,o),
(1354,-212,cs),
(1229,-256,o),
(1096,-276,o),
(963,-276,cs)
);
},
{
closed = 1;
nodes = (
(895,311,o),
(963,349,o),
(1008,429,c),
(1070,722,l),
(1030,770,o),
(978,804,o),
(902,804,cs),
(842,804,o),
(793,783,o),
(756,740,cs),
(719,697,o),
(694,644,o),
(679,580,cs),
(668,532,o),
(668,488,o),
(675,447,cs),
(690,366,o),
(739,311,o),
(827,311,cs)
);
}
);
width = 1775;
},
{
layerId = "57A176C1-94EA-43E2-97B3-7F69FACCBA50";
shapes = (
{
closed = 1;
nodes = (
(792,-244,o),
(661,-218,o),
(549,-167,cs),
(437,-115,o),
(348,-45,o),
(280,43,cs),
(212,131,o),
(166,229,o),
(143,338,cs),
(120,447,o),
(120,558,o),
(143,674,cs),
(188,898,o),
(291,1057,o),
(432,1164,cs),
(573,1271,o),
(746,1320,o),
(937,1320,cs),
(1177,1320,o),
(1365,1228,o),
(1490,1072,cs),
(1614,916,o),
(1663,712,o),
(1619,484,cs),
(1595,359,o),
(1542,271,o),
(1478,212,cs),
(1414,153,o),
(1347,126,o),
(1291,126,cs),
(1240,126,o),
(1201,134,o),
(1172,150,c),
(1112,181,o),
(1085,231,o),
(1077,278,c),
(1067,278,l),
(1031,234,o),
(987,202,o),
(935,179,cs),
(883,156,o),
(835,146,o),
(791,146,cs),
(710,146,o),
(646,168,o),
(599,211,cs),
(551,254,o),
(520,310,o),
(505,379,cs),
(490,448,o),
(490,520,o),
(507,600,cs),
(523,677,o),
(549,742,o),
(586,798,cs),
(659,909,o),
(766,968,o),
(891,968,cs),
(932,968,o),
(969,962,o),
(1004,951,cs),
(1073,928,o),
(1130,889,o),
(1171,848,c),
(1181,848,l),
(1203,950,l),
(1261,956,l),
(1228,795,o),
(1191,619,o),
(1154,443,cs),
(1145,400,ls),
(1130,324,o),
(1135,269,o),
(1159,236,cs),
(1183,203,o),
(1221,186,o),
(1277,186,cs),
(1342,186,o),
(1403,218,o),
(1454,274,cs),
(1505,330,o),
(1542,407,o),
(1559,496,cs),
(1600,703,o),
(1559,890,o),
(1447,1031,cs),
(1334,1172,o),
(1162,1258,o),
(935,1258,cs),
(818,1258,o),
(712,1238,o),
(612,1197,cs),
(412,1116,o),
(264,943,o),
(205,666,cs),
(160,451,o),
(201,245,o),
(326,82,cs),
(451,-81,o),
(658,-182,o),
(945,-182,cs),
(1000,-182,o),
(1056,-178,o),
(1119,-169,cs),
(1244,-150,o),
(1376,-105,o),
(1509,-16,c),
(1509,-90,l),
(1456,-126,o),
(1399,-155,o),
(1335,-178,cs),
(1206,-223,o),
(1070,-244,o),
(945,-244,cs)
);
},
{
closed = 1;
nodes = (
(902,206,o),
(1008,260,o),
(1081,388,c),
(1163,778,l),
(1098,854,o),
(1016,906,o),
(895,906,cs),
(803,906,o),
(732,877,o),
(679,817,cs),
(624,757,o),
(588,683,o),
(569,594,cs),
(554,521,o),
(552,457,o),
(564,397,cs),
(588,280,o),
(666,206,o),
(799,206,cs)
);
}
);
width = 1750;
}
);
leftKerningGroup = c;
rightKerningGroup = D;
unicode = 64;
}
{
glyphname = A;
layers = (
{
anchors = (
{
name = bottom;
position = "{613, 0}";
},
{
name = ogonek;
position = "{1341, 0}";
},
{
name = top;
position = "{988, 1426}";
},
{
name = topleft;
position = "{568, 1426}";
}
);
hints = (
{
horizontal = 1;
place = (0,21);
target = up;
type = BottomGhost;
},
{
horizontal = 1;
place = (232,360);
type = Stem;
},
{
horizontal = 1;
place = (1020,406);
type = Stem;
}
);
layerId = "56A8602E-BDC2-46DE-85D6-EBC995AB5C7F";
shapes = (
{
closed = 1;
nodes = (
(414,0,l),
(475,133,o),
(542,280,o),
(602,414,cs),
(878,1020,l),
(910,1020,l),
(883,411,ls),
(877,280,o),
(870,134,o),
(865,0,c),
(1341,0,l),
(1337,150,o),
(1332,327,o),
(1328,475,cs),
(1314,975,ls),
(1309,1149,o),
(1306,1277,o),
(1302,1426,c),
(676,1426,l),
(594,1277,o),
(518,1141,o),
(426,976,cs),
(157,488,ls),
(70,332,o),
(-27,157,o),
(-114,0,c)
);
},
{
closed = 1;
nodes = (
(1025,232,l),
(1072,592,l),
(528,592,l),
(379,232,l)
);
}
);
width = 1498;
},
{
anchors = (
{
name = bottom;
position = "{572, 0}";
},
{
name = ogonek;
position = "{1229, 0}";
},
{
name = top;
position = "{947, 1426}";
},
{
name = topleft;
position = "{511, 1426}";
}
);
hints = (
{
horizontal = 1;
place = (0,21);
target = up;
type = BottomGhost;
},
{
horizontal = 1;
place = (326,197);
type = Stem;
},
{
horizontal = 1;
place = (1201,225);
type = Stem;
}
);
layerId = "7D741856-296A-45BF-88B8-057E37E60DB7";
shapes = (
{
closed = 1;
nodes = (
(199,0,l),
(291,159,o),
(388,329,o),
(479,487,cs),
(888,1201,l),
(909,1201,l),
(948,485,ls),
(957,330,o),
(967,156,o),
(975,0,c),
(1229,0,l),
(1217,149,o),
(1204,326,o),
(1191,481,cs),
(1153,974,ls),
(1140,1148,o),
(1129,1282,o),
(1118,1426,c),
(779,1426,l),
(689,1277,o),
(608,1142,o),
(507,976,cs),
(212,487,ls),
(118,332,o),
(11,155,o),
(-83,0,c)
);
},
{
closed = 1;
nodes = (
(1034,326,l),
(1064,523,l),
(386,523,l),
(310,326,l)
);
}
);
width = 1410;
},
{
anchors = (
{
name = bottom;
position = "{538, 0}";
},
{
name = ogonek;
position = "{1134, 0}";
},
{
name = top;
position = "{913, 1426}";
},
{
name = topleft;
position = "{464, 1426}";
}
);
hints = (
{
horizontal = 1;
place = (0,21);
target = up;
type = BottomGhost;
},
{
horizontal = 1;
place = (406,60);
type = Stem;
},
{
horizontal = 1;
place = (1354,72);
type = Stem;
}
);
layerId = "355BC9C9-DFF3-4FFB-B20D-156268081B81";
shapes = (
{
closed = 1;
nodes = (
(18,0,l),
(135,181,o),
(259,371,o),
(374,550,cs),
(896,1354,l),
(908,1354,l),
(1003,549,ls),
(1025,374,o),
(1048,176,o),
(1069,0,c),
(1134,0,l),
(1116,150,o),
(1095,327,o),
(1075,487,cs),
(1017,975,ls),
(997,1148,o),
(979,1288,o),
(963,1426,c),
(866,1426,l),
(770,1277,o),
(683,1143,o),
(575,977,cs),
(258,487,ls),
(158,333,o),
(42,154,o),
(-58,0,c)
);
},
{
closed = 1;
nodes = (
(1042,406,l),
(1057,466,l),
(267,466,l),
(252,406,l)
);
}
);
width = 1336;
}
);
leftKerningGroup = A2;
rightKerningGroup = A;
unicode = 65;
}
{
color = 6;
glyphname = B;
layers = (
{
hints = (
{
place = (-43,705);
type = Stem;
},
{
place = (795,491);
type = Stem;
},
{
place = (911,523);
type = Stem;
}
);
layerId = "56A8602E-BDC2-46DE-85D6-EBC995AB5C7F";
shapes = (
{
closed = 1;
nodes = (
(1090,0,o),
(1221,124,o),
(1286,371,cs),
(1338,568,o),
(1241,709,o),
(1085,752,c),
(1095,784,l),
(1259,809,o),
(1384,847,o),
(1434,1031,cs),
(1482,1215,o),
(1425,1426,o),
(896,1426,cs),
(699,1426,o),
(489,1426,o),
(337,1426,c),
(296,1271,o),
(260,1136,o),
(210,948,cs),
(80,459,ls),
(30,271,o),
(-3,149,o),
(-43,0,c),
(121,0,o),
(335,0,o),
(597,0,cs)
);
},
{
closed = 1;
nodes = (
(529,334,l),
(545,396,o),
(563,462,o),
(590,565,cs),
(664,845,ls),
(693,954,o),
(713,1029,o),
(732,1100,c),
(833,1100,ls),
(901,1100,o),
(931,1048,o),
(911,976,c),
(891,896,o),
(842,864,o),
(776,864,cs),
(551,864,l),
(474,566,l),
(712,566,ls),
(783,566,o),
(813,518,o),
(795,448,cs),
(773,366,o),
(726,334,o),
(662,334,cs)
);
}
);
width = 1362;
},
{
hints = (
{
place = (30,561);
type = Stem;
},
{
place = (937,261);
type = Stem;
},
{
place = (1063,273);
type = Stem;
}
);
layerId = "7D741856-296A-45BF-88B8-057E37E60DB7";
shapes = (
{
closed = 1;
nodes = (
(1003,0,o),
(1140,129,o),
(1198,349,cs),
(1253,560,o),
(1140,687,o),
(1008,733,c),
(1015,755,l),
(1171,793,o),
(1289,855,o),
(1336,1032,cs),
(1391,1239,o),
(1293,1426,o),
(907,1426,cs),
(719,1426,o),
(556,1426,o),
(408,1426,c),
(365,1266,o),
(329,1129,o),
(281,950,cs),
(154,469,ls),
(106,288,o),
(71,155,o),
(30,0,c),
(140,0,o),
(344,0,o),
(564,0,cs)
);
},
{
closed = 1;
nodes = (
(344,210,l),
(369,306,o),
(394,401,o),
(427,524,cs),
(524,893,ls),
(557,1016,o),
(582,1110,o),
(609,1216,c),
(874,1216,ls),
(1026,1216,o),
(1096,1142,o),
(1063,1016,cs),
(1033,900,o),
(926,820,o),
(744,820,cs),
(442,820,l),
(389,618,l),
(704,618,ls),
(888,618,o),
(975,531,o),
(937,391,cs),
(902,259,o),
(802,210,o),
(591,210,cs)
);
}
);
width = 1308;
},
{
hints = (
{
place = (90,440);
type = Stem;
},
{
place = (1065,64);
type = Stem;
},
{
place = (1198,64);
type = Stem;
}
);
layerId = "355BC9C9-DFF3-4FFB-B20D-156268081B81";
shapes = (
{
closed = 1;
nodes = (
(940,0,o),
(1076,132,o),
(1129,331,cs),
(1186,552,o),
(1065,669,o),
(950,719,c),
(955,731,l),
(1108,778,o),
(1217,862,o),
(1262,1034,cs),
(1322,1260,o),
(1189,1426,o),
(907,1426,cs),
(729,1426,o),
(610,1426,o),
(468,1426,c),
(425,1265,o),
(387,1119,o),
(342,949,cs),
(216,477,ls),
(171,307,o),
(133,161,o),
(90,0,c),
(154,0,o),
(347,0,o),
(536,0,cs)
);
},
{
closed = 1;
nodes = (
(172,62,l),
(207,196,o),
(240,322,o),
(280,474,cs),
(407,953,ls),
(446,1101,o),
(481,1232,o),
(516,1364,c),
(901,1364,ls),
(1144,1364,o),
(1251,1244,o),
(1198,1044,cs),
(1153,876,o),
(1016,756,o),
(736,756,cs),
(342,756,l),
(325,696,l),
(736,696,ls),
(989,696,o),
(1123,570,o),
(1065,344,cs),
(1015,146,o),
(870,62,o),
(530,62,cs)
);
}
);
width = 1266;
}
);
leftKerningGroup = B;
unicode = 66;
}
{
glyphname = C;
layers = (
{
anchors = (
{
name = bottom;
position = "{654, 0}";
},
{
name = top;
position = "{1029, 1426}";
}
);
hints = (
{
horizontal = 1;
place = (-32,396);
type = Stem;
},
{
horizontal = 1;
place = (1048,410);
type = Stem;
},
{
place = (126,492);
type = Stem;
}
);
layerId = "56A8602E-BDC2-46DE-85D6-EBC995AB5C7F";
shapes = (
{
closed = 1;
nodes = (
(878,-32,o),
(1051,-11,o),
(1160,30,c),
(1260,497,l),
(1110,412,o),
(969,364,o),
(867,364,cs),
(630,364,o),
(571,568,o),
(618,750,cs),
(678,982,o),
(831,1048,o),
(978,1048,cs),
(1114,1048,o),
(1231,991,o),
(1362,906,c),
(1513,1344,l),
(1374,1416,o),
(1164,1458,o),
(1001,1458,cs),
(507,1458,o),
(236,1257,o),
(126,831,cs),
(6,373,o),
(234,-32,o),
(760,-32,cs)
);
}
);
width = 1364;
},
{
anchors = (
{
name = bottom;
position = "{664, 0}";
},
{
name = top;
position = "{1028, 1426}";
}
);
hints = (
{
horizontal = 1;
place = (-24,217);
type = Stem;
},
{
horizontal = 1;
place = (1230,224);
type = Stem;
},
{
place = (162,260);
type = Stem;
}
);
layerId = "7D741856-296A-45BF-88B8-057E37E60DB7";
shapes = (
{
closed = 1;
nodes = (
(883,-24,o),
(1043,3,o),
(1151,58,c),
(1201,317,l),
(1067,232,o),
(924,193,o),
(800,193,cs),
(455,193,o),
(346,490,o),
(422,779,cs),
(508,1104,o),
(729,1230,o),
(998,1230,cs),
(1154,1230,o),
(1281,1186,o),
(1414,1092,c),
(1497,1327,l),
(1369,1409,o),
(1181,1454,o),
(1011,1454,cs),
(564,1454,o),
(273,1249,o),
(162,824,cs),
(47,388,o),
(252,-24,o),
(751,-24,cs)
);
}
);
width = 1368;
},
{
anchors = (
{
name = bottom;
position = "{673, 0}";
},
{
name = top;
position = "{1028, 1426}";
}
);
hints = (
{
horizontal = 1;
place = (-18,66);
type = Stem;
},
{
horizontal = 1;
place = (1384,66);
type = Stem;
},
{
place = (194,64);
type = Stem;
}
);
layerId = "355BC9C9-DFF3-4FFB-B20D-156268081B81";
shapes = (
{
closed = 1;
nodes = (
(889,-18,o),
(1038,14,o),
(1145,82,c),
(1153,164,l),
(1033,80,o),
(889,48,o),
(745,48,cs),
(310,48,o),
(158,424,o),
(258,804,cs),
(366,1208,o),
(644,1384,o),
(1016,1384,cs),
(1190,1384,o),
(1326,1351,o),
(1460,1250,c),
(1485,1313,l),
(1368,1402,o),
(1198,1450,o),
(1021,1450,cs),
(614,1450,o),
(307,1242,o),
(194,818,cs),
(84,401,o),
(270,-18,o),
(746,-18,cs)
);
}
);
width = 1372;
}
);
leftKerningGroup = C2;
rightKerningGroup = C;
unicode = 67;
}
{
glyphname = D;
layers = (
{
anchors = (
{
name = bottom;
position = "{578, 0}";
},
{
name = center;
position = "{786, 714}";
},
{
name = top;
position = "{953, 1426}";
}
);
hints = (
{
place = (-43,647);
type = Stem;
},
{
place = (953,502);
type = Stem;
}
);
layerId = "56A8602E-BDC2-46DE-85D6-EBC995AB5C7F";
shapes = (
{
closed = 1;
nodes = (
(124,0,o),
(314,0,o),
(546,0,cs),
(1125,0,o),
(1353,247,o),
(1455,649,cs),
(1563,1064,o),
(1358,1426,o),
(915,1426,cs),
(702,1426,o),
(478,1426,o),
(337,1426,c),
(295,1270,o),
(260,1138,o),
(210,948,cs),
(80,458,ls),
(30,271,o),
(-3,148,o),
(-43,0,c)
);
},
{
closed = 1;
nodes = (
(554,386,l),
(569,445,o),
(584,503,o),
(607,591,cs),
(670,827,ls),
(695,921,o),
(710,975,o),
(727,1040,c),
(792,1040,ls),
(959,1040,o),
(1003,885,o),
(953,697,cs),
(906,521,o),
(810,386,o),
(604,386,cs)
);
}
);
width = 1460;
},
{
anchors = (
{
name = bottom;
position = "{573, 0}";
},
{
name = center;
position = "{793, 714}";
},
{
name = top;
position = "{948, 1426}";
}
);
hints = (
{
place = (29,555);
type = Stem;
},
{
place = (1165,264);
type = Stem;
}
);
layerId = "7D741856-296A-45BF-88B8-057E37E60DB7";
shapes = (
{
closed = 1;
nodes = (
(200,0,o),
(353,0,o),
(556,0,cs),
(1103,0,o),
(1324,245,o),
(1429,651,cs),
(1535,1054,o),
(1335,1426,o),
(870,1426,cs),
(710,1426,o),
(554,1426,o),
(408,1426,c),
(366,1271,o),
(329,1130,o),
(280,946,cs),
(154,468,ls),
(106,288,o),
(70,154,o),
(29,0,c)
);
},
{
closed = 1;
nodes = (
(347,210,l),
(373,309,o),
(398,406,o),
(430,529,cs),
(526,893,ls),
(559,1019,o),
(585,1114,o),
(612,1216,c),
(804,1216,ls),
(1132,1216,o),
(1241,961,o),
(1165,682,cs),
(1089,393,o),
(945,210,o),
(584,210,cs)
);
}
);
width = 1470;
},
{
anchors = (
{
name = bottom;
position = "{570, 0}";
},
{
name = center;
position = "{799, 714}";
},
{
name = top;
position = "{945, 1426}";
}
);
hints = (
{
place = (90,477);
type = Stem;
},
{
place = (1345,64);
type = Stem;
}
);
layerId = "355BC9C9-DFF3-4FFB-B20D-156268081B81";
shapes = (
{
closed = 1;
nodes = (
(265,0,o),
(387,0,o),
(565,0,cs),
(1086,0,o),
(1301,243,o),
(1409,653,cs),
(1514,1045,o),
(1317,1426,o),
(833,1426,cs),
(717,1426,o),
(618,1426,o),
(468,1426,c),
(426,1273,o),
(388,1124,o),
(340,944,cs),
(216,476,ls),
(170,302,o),
(133,160,o),
(90,0,c)
);
},
{
closed = 1;
nodes = (
(172,62,l),
(207,194,o),
(240,324,o),
(280,476,cs),
(405,950,ls),
(445,1102,o),
(479,1232,o),
(514,1364,c),
(816,1364,ls),
(1279,1364,o),
(1443,1025,o),
(1345,670,cs),
(1245,286,o),
(1060,62,o),
(567,62,cs)
);
}
);
width = 1478;
}
);
leftKerningGroup = B;
rightKerningGroup = D;
unicode = 68;
}
{
glyphname = E;
layers = (
{
layerId = "E7B352D6-DDF7-4BB1-9248-C29C5148A582";
shapes = (
{
closed = 1;
nodes = (
(987,0,l),
(1090,386,l),
(704,386,l),
(390,386,l),
(461,80,l),
(480,155,o),
(498,223,o),
(518,296,cs),
(537,369,o),
(557,447,o),
(581,538,cs),
(668,871,ls),
(693,966,o),
(714,1045,o),
(734,1121,cs),
(754,1197,o),
(773,1269,o),
(793,1346,c),
(530,1040,l),
(844,1040,l),
(1248,1040,l),
(1348,1426,l),
(337,1426,l),
(317,1349,o),
(297,1276,o),
(277,1200,cs),
(257,1124,o),
(235,1043,o),
(210,948,cs),
(80,459,ls),
(55,366,o),
(34,287,o),
(15,215,cs),
(-5,142,o),
(-23,75,o),
(-43,0,c)
);
},
{
closed = 1;
nodes = (
(712,542,l),
(1094,542,l),
(1184,886,l),
(802,886,l),
(558,886,l),
(468,542,l)
);
}
);
width = 1200;
},
{
layerId = "1ECFA0BB-D4D0-440A-AF13-F612441316F9";
shapes = (
{
closed = 1;
nodes = (
(954,0,l),
(1014,218,l),
(564,218,l),
(214,218,l),
(295,44,l),
(315,121,o),
(334,193,o),
(354,268,cs),
(374,343,o),
(395,421,o),
(419,509,cs),
(525,911,ls),
(549,1002,o),
(570,1080,o),
(590,1157,cs),
(610,1234,o),
(630,1309,o),
(651,1389,c),
(458,1208,l),
(804,1208,l),
(1265,1208,l),
(1325,1426,l),
(407,1426,l),
(386,1345,o),
(366,1270,o),
(346,1194,cs),
(325,1117,o),
(304,1036,o),
(280,944,cs),
(153,468,ls),
(129,379,o),
(109,300,o),
(89,225,cs),
(69,149,o),
(50,77,o),
(30,0,c)
);
},
{
closed = 1;
nodes = (
(656,616,l),
(1077,616,l),
(1132,826,l),
(714,826,l),
(443,826,l),
(388,616,l)
);
}
);
width = 1190;
},
{
layerId = "3DB0A36A-4459-4A7E-AA85-C98DCD1D5A19";
shapes = (
{
closed = 1;
nodes = (
(943,0,l),
(986,156,l),
(514,156,l),
(184,156,l),
(240,30,l),
(260,108,o),
(280,182,o),
(300,258,cs),
(320,333,o),
(341,412,o),
(364,498,c),
(477,925,ls),
(501,1014,o),
(521,1092,o),
(541,1169,cs),
(561,1246,o),
(582,1321,o),
(603,1401,c),
(467,1270,l),
(792,1270,l),
(1274,1270,l),
(1317,1426,l),
(431,1426,l),
(410,1345,o),
(390,1270,o),
(370,1194,cs),
(349,1116,o),
(328,1035,o),
(304,944,cs),
(179,472,ls),
(155,383,o),
(135,304,o),
(115,228,cs),
(94,152,o),
(75,78,o),
(54,0,c)
);
},
{
closed = 1;
nodes = (
(639,647,l),
(1073,647,l),
(1112,798,l),
(682,798,l),
(403,798,l),
(363,647,l)
);
}
);
width = 1187;
},
{
layerId = "63B846B6-E5C3-431C-B192-887AE8F7062B";
shapes = (
{
closed = 1;
nodes = (
(927,0,l),
(945,62,l),
(440,62,l),
(140,62,l),
(157,8,l),
(178,88,o),
(199,165,o),
(219,242,cs),
(239,319,o),
(259,398,o),
(282,482,cs),
(405,947,ls),
(428,1032,o),
(448,1110,o),
(468,1187,cs),
(488,1263,o),
(509,1339,o),
(530,1420,c),
(480,1364,l),
(773,1364,l),
(1287,1364,l),
(1304,1426,l),
(468,1426,l),
(447,1346,o),
(427,1271,o),
(407,1193,cs),
(386,1115,o),
(365,1034,o),
(341,943,cs),
(217,477,ls),
(194,389,o),
(173,310,o),
(153,233,cs),
(132,156,o),
(112,80,o),
(91,0,c)
);
},
{
closed = 1;
nodes = (
(614,694,l),
(1066,694,l),
(1083,756,l),
(633,756,l),
(343,756,l),
(325,694,l)
);
}
);
width = 1182;
}
);
leftKerningGroup = B;
rightKerningGroup = E;
unicode = 69;
}
{
glyphname = F;
layers = (
{
layerId = "E7B352D6-DDF7-4BB1-9248-C29C5148A582";
shapes = (
{
closed = 1;
nodes = (
(438,0,l),
(457,73,o),
(475,142,o),
(495,215,cs),
(514,288,o),
(535,366,o),
(559,458,cs),
(668,868,ls),
(693,963,o),
(715,1045,o),
(735,1122,cs),
(755,1198,o),
(774,1270,o),
(794,1346,c),
(516,1022,l),
(830,1022,l),
(1234,1022,l),
(1339,1426,l),
(338,1426,l),
(317,1346,o),
(297,1274,o),
(277,1198,cs),
(256,1122,o),
(235,1043,o),
(210,948,cs),
(80,459,ls),
(55,366,o),
(34,287,o),
(15,215,cs),
(-5,142,o),
(-23,75,o),
(-43,0,c)
);
},
{
closed = 1;
nodes = (
(688,490,l),
(1070,490,l),
(1170,876,l),
(788,876,l),
(544,876,l),
(444,490,l)
);
}
);
width = 1162;
},
{
layerId = "1ECFA0BB-D4D0-440A-AF13-F612441316F9";
shapes = (
{
closed = 1;
nodes = (
(284,0,l),
(304,77,o),
(324,150,o),
(344,226,cs),
(364,301,o),
(384,380,o),
(408,469,cs),
(524,906,ls),
(548,997,o),
(570,1078,o),
(591,1156,cs),
(611,1234,o),
(631,1309,o),
(651,1386,c),
(496,1207,l),
(788,1207,l),
(1251,1207,l),
(1309,1426,l),
(408,1426,l),
(387,1347,o),
(367,1274,o),
(347,1196,cs),
(326,1118,o),
(305,1037,o),
(281,945,cs),
(154,469,ls),
(130,378,o),
(109,301,o),
(89,226,cs),
(69,150,o),
(50,79,o),
(29,0,c)
);
},
{
closed = 1;
nodes = (
(636,601,l),
(1056,601,l),
(1112,811,l),
(693,811,l),
(435,811,l),
(379,601,l)
);
}
);
width = 1151;
},
{
layerId = "3DB0A36A-4459-4A7E-AA85-C98DCD1D5A19";
shapes = (
{
closed = 1;
nodes = (
(232,0,l),
(252,79,o),
(272,153,o),
(293,229,cs),
(313,305,o),
(333,384,o),
(357,472,cs),
(476,919,ls),
(499,1009,o),
(521,1089,o),
(542,1168,cs),
(562,1246,o),
(582,1321,o),
(603,1400,c),
(489,1270,l),
(773,1270,l),
(1257,1270,l),
(1299,1426,l),
(432,1426,l),
(411,1348,o),
(391,1274,o),
(371,1196,cs),
(350,1117,o),
(329,1036,o),
(305,944,cs),
(179,472,ls),
(155,382,o),
(134,305,o),
(114,229,cs),
(94,153,o),
(74,80,o),
(53,0,c)
);
},
{
closed = 1;
nodes = (
(618,638,l),
(1051,638,l),
(1092,789,l),
(661,789,l),
(398,789,l),
(357,638,l)
);
}
);
width = 1147;
},
{
layerId = "63B846B6-E5C3-431C-B192-887AE8F7062B";
shapes = (
{
closed = 1;
nodes = (
(154,0,l),
(175,81,o),
(195,157,o),
(216,234,cs),
(236,310,o),
(257,389,o),
(280,477,cs),
(403,939,ls),
(426,1026,o),
(447,1106,o),
(468,1185,cs),
(489,1264,o),
(509,1340,o),
(530,1420,c),
(479,1364,l),
(751,1364,l),
(1265,1364,l),
(1283,1426,l),
(467,1426,l),
(447,1349,o),
(426,1274,o),
(406,1195,cs),
(385,1115,o),
(364,1034,o),
(340,943,cs),
(216,477,ls),
(193,389,o),
(172,310,o),
(152,234,cs),
(131,157,o),
(111,81,o),
(90,0,c)
);
},
{
closed = 1;
nodes = (
(592,694,l),
(1044,694,l),
(1062,756,l),
(612,756,l),
(342,756,l),
(324,694,l)
);
}
);
width = 1142;
}
);
leftKerningGroup = B;
unicode = 70;
}
{
glyphname = G;
layers = (
{
anchors = (
{
name = bottom;
position = "{654, 0}";
},
{
name = top;
position = "{1029, 1426}";
}
);
layerId = "88659256-3F30-40E7-9696-2B2DC1F8E116";
shapes = (
{
closed = 1;
nodes = (
(498,-30,o),
(303,71,o),
(196,232,cs),
(88,393,o),
(68,602,o),
(125,826,cs),
(164,975,o),
(220,1094,o),
(296,1187,cs),
(449,1375,o),
(671,1458,o),
(980,1458,cs),
(1093,1458,o),
(1201,1447,o),
(1301,1426,cs),
(1401,1405,o),
(1488,1377,o),
(1560,1342,c),
(1427,902,l),
(1366,943,o),
(1309,973,o),
(1253,994,cs),
(1144,1035,o),
(1053,1048,o),
(992,1048,cs),
(924,1048,o),
(848,1036,o),
(780,996,cs),
(712,956,o),
(653,884,o),
(616,763,cs),
(585,663,o),
(586,565,o),
(621,485,cs),
(656,405,o),
(725,354,o),
(830,354,cs),
(918,354,o),
(987,361,o),
(1055,380,cs),
(1123,399,o),
(1192,424,o),
(1269,463,c),
(1238,36,l),
(1189,17,o),
(1118,1,o),
(1037,-12,cs),
(956,-24,o),
(870,-30,o),
(789,-30,cs)
);
},
{
closed = 1;
nodes = (
(776,26,l),
(913,539,l),
(745,539,l),
(830,855,l),
(1456,855,l),
(1237,36,l)
);
}
);
width = 1450;
},
{
anchors = (
{
name = bottom;
position = "{662, 0}";
},
{
name = top;
position = "{1037, 1426}";
}
);
layerId = "21D94FDA-A95C-474B-951E-BE67C5105DB2";
shapes = (
{
closed = 1;
nodes = (
(511,-23,o),
(326,76,o),
(226,236,cs),
(125,397,o),
(105,602,o),
(162,822,cs),
(201,967,o),
(256,1084,o),
(332,1177,cs),
(485,1366,o),
(703,1454,o),
(994,1454,cs),
(1098,1454,o),
(1196,1442,o),
(1288,1418,cs),
(1380,1394,o),
(1460,1362,o),
(1528,1319,c),
(1454,1084,l),
(1401,1123,o),
(1349,1152,o),
(1297,1173,cs),
(1192,1216,o),
(1092,1230,o),
(1000,1230,cs),
(867,1230,o),
(747,1202,o),
(647,1134,cs),
(547,1065,o),
(469,956,o),
(421,785,cs),
(381,636,o),
(386,493,o),
(446,376,cs),
(506,261,o),
(623,188,o),
(803,188,cs),
(883,188,o),
(952,195,o),
(1021,212,cs),
(1090,228,o),
(1161,255,o),
(1234,294,c),
(1220,56,l),
(1168,33,o),
(1100,14,o),
(1024,-1,cs),
(947,-16,o),
(867,-23,o),
(783,-23,cs)
);
},
{
closed = 1;
nodes = (
(956,49,l),
(1104,600,l),
(725,600,l),
(786,830,l),
(1428,830,l),
(1220,54,l)
);
}
);
width = 1461;
},
{
anchors = (
{
name = bottom;
position = "{668, 0}";
},
{
name = top;
position = "{1043, 1426}";
}
);
layerId = "3D47BFF5-453B-49C2-B010-5B64E116DAF2";
shapes = (
{
closed = 1;
nodes = (
(516,-21,o),
(335,78,o),
(238,238,cs),
(139,399,o),
(119,602,o),
(176,820,cs),
(211,950,o),
(260,1057,o),
(325,1145,c),
(476,1353,o),
(702,1452,o),
(999,1452,cs),
(1096,1452,o),
(1188,1441,o),
(1275,1418,cs),
(1367,1393,o),
(1448,1358,o),
(1516,1310,c),
(1464,1153,l),
(1404,1200,o),
(1342,1232,o),
(1278,1254,c),
(1184,1288,o),
(1093,1299,o),
(1003,1299,cs),
(847,1299,o),
(712,1266,o),
(599,1188,cs),
(485,1108,o),
(399,983,o),
(347,793,c),
(303,625,o),
(310,464,o),
(379,335,cs),
(449,207,o),
(584,125,o),
(793,125,cs),
(868,125,o),
(937,132,o),
(1007,148,cs),
(1077,164,o),
(1148,191,o),
(1221,230,c),
(1213,63,l),
(1159,38,o),
(1091,18,o),
(1014,2,cs),
(939,-13,o),
(863,-21,o),
(781,-21,cs)
);
},
{
closed = 1;
nodes = (
(1040,60,l),
(1194,633,l),
(717,633,l),
(758,788,l),
(1408,788,l),
(1214,63,l)
);
}
);
width = 1466;
},
{
anchors = (
{
name = bottom;
position = "{673, 0}";
},
{
name = top;
position = "{1048, 1426}";
}
);
layerId = "CBE96DA9-FC64-4659-8F3D-7668682A4A62";
shapes = (
{
closed = 1;
nodes = (
(523,-18,o),
(347,81,o),
(252,240,cs),
(156,401,o),
(137,602,o),
(194,818,cs),
(223,930,o),
(264,1024,o),
(317,1105,cs),
(466,1338,o),
(700,1450,o),
(1005,1450,cs),
(1093,1450,o),
(1179,1440,o),
(1259,1417,cs),
(1352,1392,o),
(1433,1352,o),
(1501,1300,c),
(1476,1238,l),
(1408,1294,o),
(1334,1329,o),
(1254,1352,cs),
(1174,1375,o),
(1095,1384,o),
(1007,1384,cs),
(823,1384,o),
(669,1345,o),
(541,1253,cs),
(409,1160,o),
(314,1015,o),
(257,803,cs),
(208,611,o),
(217,429,o),
(298,284,cs),
(379,140,o),
(537,48,o),
(781,48,cs),
(850,48,o),
(918,54,o),
(990,70,cs),
(1062,86,o),
(1132,112,o),
(1204,151,c),
(1205,72,l),
(1148,45,o),
(1079,22,o),
(1002,6,cs),
(930,-9,o),
(858,-18,o),
(778,-18,cs)
);
},
{
closed = 1;
nodes = (
(1142,74,l),
(1303,674,l),
(707,674,l),
(723,736,l),
(1383,736,l),
(1206,74,l)
);
}
);
width = 1472;
}
);
leftKerningGroup = C2;
rightKerningGroup = G;
unicode = 71;
}
{
glyphname = H;
layers = (
{
anchors = (
{
name = "#exit";
position = "{1276, 0}";
},
{
name = bottom;
position = "{620, 0}";
},
{
name = center;
position = "{807, 714}";
},
{
name = top;
position = "{995, 1426}";
},
{
name = topleft;
position = "{325, 1426}";
}
);
hints = (
{
horizontal = 1;
place = (0,21);
target = up;
type = BottomGhost;
},
{
horizontal = 1;
place = (512,404);
type = Stem;
},
{
horizontal = 1;
place = (1426,-20);
target = down;
type = TopGhost;
},
{
place = (337,495);
type = Stem;
},
{
place = (1163,495);
type = Stem;
}
);
layerId = "56A8602E-BDC2-46DE-85D6-EBC995AB5C7F";
shapes = (
{
closed = 1;
nodes = (
(1278,0,l),
(1318,149,o),
(1350,271,o),
(1400,459,cs),
(1530,948,ls),
(1580,1137,o),
(1615,1267,o),
(1658,1426,c),
(1163,1426,l),
(1121,1266,o),
(1086,1136,o),
(1036,948,cs),
(906,461,ls),
(856,271,o),
(822,146,o),
(783,0,c)
);
},
{
closed = 1;
nodes = (
(452,0,l),
(492,149,o),
(524,270,o),
(574,461,cs),
(704,948,ls),
(754,1136,o),
(791,1271,o),
(832,1426,c),
(337,1426,l),
(295,1266,o),
(260,1136,o),
(210,948,cs),
(80,461,ls),
(30,271,o),
(-3,151,o),
(-43,0,c)
);
},
{
closed = 1;
nodes = (
(1047,512,l),
(1154,916,l),
(574,916,l),
(467,512,l)
);
}
);
width = 1502;
},
{
anchors = (
{
name = "#exit";
position = "{1206, 0}";
},
{
name = bottom;
position = "{620, 0}";
},
{
name = center;
position = "{807, 714}";
},
{
name = top;
position = "{995, 1426}";
},
{
name = topleft;
position = "{294, 1426}";
}
);
hints = (
{
horizontal = 1;
place = (0,21);
target = up;
type = BottomGhost;
},
{
horizontal = 1;
place = (611,219);
type = Stem;
},
{
horizontal = 1;
place = (1427,-20);
target = down;
type = TopGhost;
},
{
place = (408,261);
type = Stem;
},
{
place = (1325,261);
type = Stem;
}
);
layerId = "7D741856-296A-45BF-88B8-057E37E60DB7";
shapes = (
{
closed = 1;
nodes = (
(1207,0,l),
(1249,156,o),
(1284,288,o),
(1332,469,cs),
(1459,946,ls),
(1507,1131,o),
(1544,1270,o),
(1586,1427,c),
(1325,1427,l),
(1283,1270,o),
(1246,1130,o),
(1197,946,cs),
(1071,470,ls),
(1023,288,o),
(987,155,o),
(946,0,c)
);
},
{
closed = 1;
nodes = (
(290,0,l),
(332,155,o),
(367,288,o),
(415,469,cs),
(542,946,ls),
(590,1130,o),
(627,1269,o),
(669,1427,c),
(408,1427,l),
(366,1267,o),
(329,1130,o),
(281,946,cs),
(154,469,ls),
(106,288,o),
(71,156,o),
(29,0,c)
);
},
{
closed = 1;
nodes = (
(1192,611,l),
(1251,830,l),
(432,830,l),
(374,611,l)
);
}
);
width = 1500;
},
{
anchors = (
{
name = "#exit";
position = "{1147, 0}";
},
{
name = bottom;
position = "{620, 0}";
},
{
name = center;
position = "{808, 714}";
},
{
name = top;
position = "{995, 1426}";
},
{
name = topleft;
position = "{268, 1426}";
}
);
hints = (
{
horizontal = 1;
place = (0,21);
target = up;
type = BottomGhost;
},
{
horizontal = 1;
place = (694,62);
type = Stem;
},
{
horizontal = 1;
place = (1426,-20);
target = down;
type = TopGhost;
},
{
place = (468,64);
type = Stem;
},
{
place = (1462,64);
type = Stem;
}
);
layerId = "355BC9C9-DFF3-4FFB-B20D-156268081B81";
shapes = (
{
closed = 1;
nodes = (
(1149,0,l),
(1191,162,o),
(1229,302,o),
(1275,477,cs),
(1399,943,ls),
(1446,1124,o),
(1485,1272,o),
(1526,1426,c),
(1462,1426,l),
(1421,1273,o),
(1382,1124,o),
(1335,944,cs),
(1211,477,ls),
(1165,302,o),
(1127,162,o),
(1085,0,c)
);
},
{
closed = 1;
nodes = (
(155,0,l),
(197,160,o),
(235,302,o),
(281,476,cs),
(405,943,ls),
(452,1124,o),
(490,1267,o),
(532,1426,c),
(468,1426,l),
(426,1267,o),
(388,1124,o),
(341,944,cs),
(217,476,ls),
(171,302,o),
(133,160,o),
(91,0,c)
);
},
{
closed = 1;
nodes = (
(1315,694,l),
(1333,756,l),
(313,756,l),
(295,694,l)
);
}
);
width = 1498;
}
);
leftKerningGroup = B;
rightKerningGroup = H;
unicode = 72;
}
{
glyphname = I;
layers = (
{
anchors = (
{
name = bottom;
position = "{212, 0}";
},
{
name = ogonek;
position = "{469, 0}";
},
{
name = top;
position = "{587, 1426}";
},
{
name = topleft;
position = "{335, 1426}";
}
);
layerId = "4DEC7066-344F-4F8A-A00C-DB3202BBB1B9";
shapes = (
{
closed = 1;
nodes = (
(-32,0,l),
(-11,75,o),
(8,146,o),
(27,215,cs),
(46,284,o),
(66,366,o),
(91,459,cs),
(220,947,ls),
(245,1043,o),
(268,1127,o),
(287,1200,cs),
(306,1273,o),
(327,1347,o),
(348,1426,c),
(850,1426,l),
(829,1349,o),
(808,1273,o),
(789,1200,cs),
(769,1125,o),
(747,1043,o),
(722,947,cs),
(593,459,ls),
(568,366,o),
(548,284,o),
(529,215,cs),
(510,146,o),
(491,75,o),
(470,0,c)
);
}
);
width = 706;
},
{
anchors = (
{
name = bottom;
position = "{163, 0}";
},
{
name = ogonek;
position = "{298, 0}";
},
{
name = top;
position = "{538, 1426}";
},
{
name = topleft;
position = "{298, 1426}";
}
);
layerId = "44FDB26C-3A22-467E-AC26-FA639943C40F";
shapes = (
{
closed = 1;
nodes = (
(34,0,l),
(55,79,o),
(76,153,o),
(95,226,cs),
(114,298,o),
(135,378,o),
(159,469,cs),
(285,945,ls),
(310,1038,o),
(332,1120,o),
(352,1196,cs),
(371,1271,o),
(392,1346,o),
(413,1426,c),
(677,1426,l),
(656,1346,o),
(635,1272,o),
(616,1196,cs),
(596,1120,o),
(574,1038,o),
(549,945,cs),
(423,469,ls),
(399,378,o),
(378,298,o),
(359,226,cs),
(340,153,o),
(320,79,o),
(299,0,c)
);
}
);
width = 596;
},
{
anchors = (
{
name = bottom;
position = "{122, 0}";
},
{
name = ogonek;
position = "{154, 0}";
},
{
name = top;
position = "{497, 1426}";
},
{
name = topleft;
position = "{268, 1426}";
}
);
layerId = "9B0C9E3E-BEB6-4BC5-8110-F7258CCDF060";
shapes = (
{
closed = 1;
nodes = (
(90,0,l),
(113,81,o),
(133,158,o),
(152,234,cs),
(171,310,o),
(193,389,o),
(216,477,cs),
(340,943,ls),
(364,1035,o),
(386,1117,o),
(406,1193,cs),
(426,1269,o),
(447,1346,o),
(468,1426,c),
(532,1426,l),
(511,1346,o),
(490,1269,o),
(470,1193,cs),
(450,1117,o),
(428,1035,o),
(404,943,cs),
(280,477,ls),
(257,389,o),
(235,310,o),
(216,234,cs),
(197,158,o),
(177,81,o),
(154,0,c)
);
}
);
width = 504;
}
);
leftKerningGroup = B;
unicode = 73;
}
{
glyphname = J;
layers = (
{
layerId = "DD05D972-36B8-4829-B947-B0CCB227D6F6";
shapes = (
{
closed = 1;
nodes = (
(175,-30,o),
(120,-26,o),
(64,-15,cs),
(8,-4,o),
(-40,9,o),
(-79,26,c),
(29,419,l),
(82,394,o),
(140,376,o),
(192,376,cs),
(236,376,o),
(276,403,o),
(296,455,cs),
(300,466,o),
(310,493,o),
(315,510,cs),
(572,1426,l),
(1066,1426,l),
(772,385,ls),
(729,233,o),
(662,107,o),
(571,48,cs),
(479,-12,o),
(368,-30,o),
(231,-30,cs)
);
}
);
width = 902;
},
{
layerId = "169D2073-077B-44F5-BCEC-2735DA378421";
shapes = (
{
closed = 1;
nodes = (
(80,-24,o),
(34,-19,o),
(-9,-11,cs),
(-52,-2,o),
(-91,10,o),
(-122,25,c),
(-61,241,l),
(-12,216,o),
(46,200,o),
(106,200,cs),
(166,200,o),
(213,207,o),
(248,231,cs),
(283,254,o),
(306,292,o),
(322,352,cs),
(612,1426,l),
(873,1426,l),
(577,327,ls),
(536,174,o),
(474,77,o),
(373,25,c),
(308,-10,o),
(229,-24,o),
(125,-24,cs)
);
}
);
width = 830;
},
{
layerId = "B4BCD950-06D7-4C92-89A8-A8FD079D3312";
shapes = (
{
closed = 1;
nodes = (
(66,-21,o),
(24,-17,o),
(-15,-9,cs),
(-53,-1,o),
(-88,10,o),
(-116,25,c),
(-72,171,l),
(-24,146,o),
(34,131,o),
(97,131,c),
(171,131,o),
(228,144,o),
(267,179,c),
(307,212,o),
(337,265,o),
(358,343,cs),
(648,1426,l),
(820,1426,l),
(526,323,ls),
(487,177,o),
(432,90,o),
(348,38,c),
(284,-4,o),
(208,-21,o),
(107,-21,cs)
);
}
);
width = 796;
},
{
layerId = "55FA06AC-4879-4DE1-88D6-2E093DDAA9A7";
shapes = (
{
closed = 1;
nodes = (
(48,-18,o),
(11,-14,o),
(-22,-7,c),
(-54,1,o),
(-84,11,o),
(-109,24,c),
(-86,85,l),
(-39,60,o),
(20,46,o),
(85,46,cs),
(177,47,o),
(246,68,o),
(291,115,cs),
(336,160,o),
(374,232,o),
(401,332,cs),
(692,1426,l),
(756,1426,l),
(463,319,ls),
(426,180,o),
(381,105,o),
(318,54,cs),
(254,3,o),
(182,-18,o),
(85,-18,cs)
);
}
);
width = 754;
}
);
leftKerningGroup = B;
rightKerningGroup = H;
unicode = 74;
}
{
glyphname = K;
layers = (
{
anchors = (
{
name = "#exit";
position = "{1258, 0}";
},
{
name = bottom;
position = "{610, 0}";
},
{
name = top;
position = "{985, 1426}";
}
);
layerId = "88659256-3F30-40E7-9696-2B2DC1F8E116";
shapes = (
{
closed = 1;
nodes = (
(756,0,l),
(736,116,o),
(719,211,o),
(702,312,cs),
(659,556,l),
(573,556,l),
(655,934,l),
(733,934,l),
(872,1125,ls),
(905,1170,o),
(937,1216,o),
(972,1263,cs),
(1007,1310,o),
(1045,1362,o),
(1090,1426,c),
(1669,1426,l),
(1532,1265,o),
(1402,1116,o),
(1265,955,cs),
(1006,654,l),
(1009,872,l),
(1133,514,ls),
(1152,461,o),
(1171,404,o),
(1194,340,c),
(1237,212,o),
(1281,88,o),
(1310,0,c)
);
},
{
closed = 1;
nodes = (
(-42,0,l),
(-21,76,o),
(-2,146,o),
(17,215,cs),
(36,284,o),
(56,365,o),
(81,458,cs),
(210,947,ls),
(235,1043,o),
(257,1125,o),
(277,1198,cs),
(296,1271,o),
(317,1346,o),
(338,1426,c),
(828,1426,l),
(807,1349,o),
(786,1273,o),
(767,1200,cs),
(747,1124,o),
(725,1043,o),
(700,947,cs),
(571,459,ls),
(546,366,o),
(526,284,o),
(507,215,cs),
(488,146,o),
(469,76,o),
(448,0,c)
);
}
);
width = 1458;
},
{
anchors = (
{
name = "#exit";
position = "{1185, 0}";
},
{
name = bottom;
position = "{576, 0}";
},
{
name = top;
position = "{951, 1426}";
}
);
layerId = "21D94FDA-A95C-474B-951E-BE67C5105DB2";
shapes = (
{
closed = 1;
nodes = (
(892,0,l),
(816,133,o),
(756,242,o),
(692,355,cs),
(533,636,l),
(437,636,l),
(485,843,l),
(577,843,l),
(833,1075,ls),
(893,1131,o),
(952,1181,o),
(1012,1237,cs),
(1072,1293,o),
(1137,1354,o),
(1217,1426,c),
(1538,1426,l),
(1361,1269,o),
(1202,1124,o),
(1035,971,cs),
(718,684,l),
(717,805,l),
(910,477,ls),
(941,426,o),
(972,374,o),
(1007,314,cs),
(1075,197,o),
(1143,84,o),
(1192,0,c)
);
},
{
closed = 1;
nodes = (
(30,0,l),
(51,77,o),
(71,152,o),
(90,225,cs),
(109,298,o),
(130,379,o),
(154,468,cs),
(281,945,ls),
(305,1037,o),
(327,1119,o),
(347,1195,cs),
(367,1271,o),
(388,1346,o),
(409,1426,c),
(667,1426,l),
(646,1346,o),
(625,1272,o),
(606,1196,cs),
(586,1120,o),
(564,1038,o),
(539,945,cs),
(413,468,ls),
(389,379,o),
(368,298,o),
(349,225,cs),
(330,152,o),
(310,77,o),
(289,0,c)
);
}
);
width = 1371;
},
{
anchors = (
{
name = "#exit";
position = "{1133, 0}";
},
{
name = bottom;
position = "{553, 0}";
},
{
name = top;
position = "{928, 1426}";
}
);
layerId = "3D47BFF5-453B-49C2-B010-5B64E116DAF2";
shapes = (
{
closed = 1;
nodes = (
(944,0,l),
(848,140,o),
(769,255,o),
(688,372,cs),
(485,667,l),
(386,667,l),
(420,808,l),
(518,808,l),
(818,1056,l),
(889,1115,o),
(957,1169,o),
(1027,1228,cs),
(1096,1285,o),
(1173,1350,o),
(1266,1426,c),
(1488,1426,l),
(1297,1271,o),
(1126,1127,o),
(948,977,cs),
(609,696,l),
(606,779,l),
(825,463,ls),
(860,413,o),
(896,363,o),
(936,305,cs),
(1013,192,o),
(1091,82,o),
(1147,0,c)
);
},
{
closed = 1;
nodes = (
(57,0,l),
(79,78,o),
(99,154,o),
(118,229,cs),
(137,303,o),
(158,383,o),
(182,472,cs),
(308,945,ls),
(332,1037,o),
(354,1118,o),
(374,1194,cs),
(394,1270,o),
(415,1346,o),
(436,1426,c),
(606,1426,l),
(585,1346,o),
(564,1271,o),
(545,1195,cs),
(525,1119,o),
(503,1037,o),
(478,945,cs),
(353,472,ls),
(330,383,o),
(308,303,o),
(289,229,cs),
(270,154,o),
(250,78,o),
(228,0,c)
);
}
);
width = 1338;
},
{
anchors = (
{
name = "#exit";
position = "{1091, 0}";
},
{
name = bottom;
position = "{534, 0}";
},
{
name = top;
position = "{909, 1426}";
}
);
layerId = "CBE96DA9-FC64-4659-8F3D-7668682A4A62";
shapes = (
{
closed = 1;
nodes = (
(1007,0,l),
(886,148,o),
(784,271,o),
(684,392,cs),
(426,704,l),
(323,704,l),
(341,766,l),
(446,766,l),
(800,1032,ls),
(884,1096,o),
(964,1155,o),
(1045,1216,cs),
(1125,1276,o),
(1217,1346,o),
(1325,1426,c),
(1427,1426,l),
(1219,1273,o),
(1033,1130,o),
(841,985,cs),
(475,710,l),
(470,748,l),
(722,445,ls),
(762,398,o),
(804,349,o),
(849,293,cs),
(938,185,o),
(1027,80,o),
(1092,0,c)
);
},
{
closed = 1;
nodes = (
(90,0,l),
(113,80,o),
(133,157,o),
(152,233,cs),
(171,309,o),
(193,388,o),
(216,476,cs),
(340,944,ls),
(364,1036,o),
(386,1117,o),
(406,1193,cs),
(426,1269,o),
(447,1346,o),
(468,1426,c),
(532,1426,l),
(511,1346,o),
(490,1269,o),
(470,1193,cs),
(450,1117,o),
(428,1036,o),
(404,944,cs),
(280,476,ls),
(257,388,o),
(235,309,o),
(216,233,cs),
(197,157,o),
(177,80,o),
(154,0,c)
);
}
);
width = 1298;
}
);
leftKerningGroup = B;
rightKerningGroup = K;
unicode = 75;
}
{
glyphname = L;
layers = (
{
anchors = (
{
name = bottom;
position = "{464, 0}";
},
{
name = center;
position = "{988, 720}";
},
{
name = top;
position = "{757, 1426}";
},
{
name = topright;
position = "{785, 1004}";
}
);
layerId = "88659256-3F30-40E7-9696-2B2DC1F8E116";
shapes = (
{
closed = 1;
nodes = (
(-42,0,l),
(-21,76,o),
(-2,147,o),
(17,216,cs),
(36,285,o),
(56,366,o),
(81,459,cs),
(210,947,ls),
(235,1043,o),
(258,1127,o),
(277,1200,cs),
(296,1273,o),
(317,1346,o),
(338,1426,c),
(832,1426,l),
(811,1346,o),
(790,1271,o),
(771,1198,cs),
(751,1125,o),
(729,1043,o),
(704,947,cs),
(593,539,ls),
(569,447,o),
(548,367,o),
(529,298,cs),
(510,226,o),
(490,156,o),
(470,80,c),
(382,424,l),
(680,424,l),
(841,424,l),
(1092,424,l),
(999,0,l)
);
}
);
width = 1178;
},
{
anchors = (
{
name = bottom;
position = "{483, 0}";
},
{
name = center;
position = "{941, 717}";
},
{
name = top;
position = "{692, 1426}";
},
{
name = topright;
position = "{733, 997}";
}
);
layerId = "21D94FDA-A95C-474B-951E-BE67C5105DB2";
shapes = (
{
closed = 1;
nodes = (
(30,0,l),
(51,77,o),
(71,152,o),
(90,225,cs),
(109,298,o),
(130,379,o),
(154,468,cs),
(281,945,ls),
(305,1038,o),
(327,1120,o),
(347,1196,cs),
(367,1272,o),
(388,1346,o),
(409,1426,c),
(669,1426,l),
(648,1346,o),
(627,1271,o),
(608,1195,cs),
(588,1119,o),
(566,1038,o),
(541,945,cs),
(425,510,ls),
(401,421,o),
(379,340,o),
(360,268,cs),
(341,195,o),
(321,121,o),
(300,41,c),
(252,228,l),
(523,228,l),
(714,228,l),
(1013,228,l),
(961,0,l)
);
}
);
width = 1153;
},
{
anchors = (
{
name = bottom;
position = "{497, 0}";
},
{
name = center;
position = "{908, 716}";
},
{
name = top;
position = "{646, 1426}";
},
{
name = topright;
position = "{696, 992}";
}
);
layerId = "3D47BFF5-453B-49C2-B010-5B64E116DAF2";
shapes = (
{
closed = 1;
nodes = (
(57,0,l),
(79,78,o),
(99,154,o),
(118,229,cs),
(137,303,o),
(158,383,o),
(182,472,cs),
(308,945,ls),
(332,1037,o),
(354,1119,o),
(374,1195,cs),
(394,1271,o),
(415,1346,o),
(436,1426,c),
(607,1426,l),
(586,1346,o),
(565,1270,o),
(546,1194,cs),
(526,1118,o),
(504,1037,o),
(479,944,cs),
(361,499,ls),
(338,410,o),
(316,330,o),
(297,256,cs),
(277,182,o),
(257,107,o),
(236,26,c),
(203,153,l),
(463,153,l),
(666,153,l),
(983,153,l),
(947,0,l)
);
}
);
width = 1144;
},
{
anchors = (
{
name = bottom;
position = "{508, 0}";
},
{
name = center;
position = "{882, 714}";
},
{
name = top;
position = "{609, 1426}";
},
{
name = topright;
position = "{666, 988}";
}
);
layerId = "CBE96DA9-FC64-4659-8F3D-7668682A4A62";
shapes = (
{
closed = 1;
nodes = (
(90,0,l),
(113,80,o),
(133,157,o),
(152,233,cs),
(171,309,o),
(193,388,o),
(216,476,cs),
(340,944,ls),
(364,1036,o),
(386,1117,o),
(406,1193,cs),
(426,1269,o),
(447,1346,o),
(468,1426,c),
(532,1426,l),
(511,1346,o),
(490,1269,o),
(470,1193,cs),
(450,1117,o),
(428,1035,o),
(404,943,cs),
(283,485,ls),
(260,397,o),
(238,318,o),
(219,242,cs),
(199,166,o),
(178,89,o),
(157,8,c),
(142,62,l),
(390,62,l),
(607,62,l),
(946,62,l),
(929,0,l)
);
}
);
width = 1132;
}
);
leftKerningGroup = B;
rightKerningGroup = L;
unicode = 76;
}
{
glyphname = M;
layers = (
{
layerId = "E7B352D6-DDF7-4BB1-9248-C29C5148A582";
shapes = (
{
closed = 1;
nodes = (
(-68,0,l),
(-13,140,o),
(44,287,o),
(111,459,cs),
(297,943,ls),
(332,1031,o),
(362,1111,o),
(393,1191,cs),
(424,1271,o),
(453,1346,o),
(484,1426,c),
(969,1426,l),
(973,1294,o),
(975,1192,o),
(978,1081,cs),
(986,754,l),
(1016,754,l),
(1213,1080,ls),
(1248,1136,o),
(1280,1191,o),
(1313,1244,cs),
(1346,1297,o),
(1382,1358,o),
(1422,1426,c),
(1931,1426,l),
(1920,1349,o),
(1911,1273,o),
(1900,1193,cs),
(1889,1113,o),
(1879,1032,o),
(1867,944,cs),
(1805,458,ls),
(1794,370,o),
(1784,292,o),
(1773,219,cs),
(1762,146,o),
(1753,73,o),
(1744,0,c),
(1278,0,l),
(1305,145,o),
(1331,269,o),
(1352,382,cs),
(1399,624,l),
(1367,624,l),
(1223,367,ls),
(1187,302,o),
(1153,239,o),
(1118,178,cs),
(1083,117,o),
(1050,57,o),
(1018,0,c),
(696,0,l),
(695,39,o),
(695,78,o),
(694,119,cs),
(693,200,o),
(693,282,o),
(693,366,cs),
(691,624,l),
(659,624,l),
(552,381,ls),
(503,268,o),
(445,141,o),
(384,0,c)
);
}
);
width = 1940;
},
{
layerId = "1ECFA0BB-D4D0-440A-AF13-F612441316F9";
shapes = (
{
closed = 1;
nodes = (
(-16,0,l),
(43,151,o),
(99,298,o),
(166,470,cs),
(349,945,ls),
(384,1033,o),
(415,1112,o),
(444,1189,cs),
(473,1266,o),
(504,1345,o),
(535,1426,c),
(788,1426,l),
(809,1239,o),
(829,1073,o),
(849,904,cs),
(907,405,l),
(925,405,l),
(1255,905,ls),
(1311,990,o),
(1367,1074,o),
(1423,1158,cs),
(1479,1242,o),
(1536,1330,o),
(1600,1426,c),
(1870,1426,l),
(1859,1346,o),
(1849,1269,o),
(1838,1192,cs),
(1827,1115,o),
(1816,1033,o),
(1803,945,cs),
(1738,467,ls),
(1727,379,o),
(1716,301,o),
(1705,228,cs),
(1694,152,o),
(1684,80,o),
(1673,0,c),
(1427,0,l),
(1462,228,o),
(1493,429,o),
(1521,604,cs),
(1580,984,l),
(1562,984,l),
(1298,576,ls),
(1234,476,o),
(1170,379,o),
(1106,279,cs),
(1042,179,o),
(982,88,o),
(925,0,c),
(751,0,l),
(744,56,o),
(738,115,o),
(731,180,cs),
(715,309,o),
(699,444,o),
(686,573,cs),
(639,984,l),
(621,984,l),
(469,604,ls),
(397,425,o),
(317,228,o),
(228,0,c)
);
}
);
width = 1922;
},
{
layerId = "3DB0A36A-4459-4A7E-AA85-C98DCD1D5A19";
shapes = (
{
closed = 1;
nodes = (
(2,0,l),
(61,154,o),
(118,302,o),
(185,474,cs),
(367,946,ls),
(401,1033,o),
(432,1112,o),
(461,1189,cs),
(490,1265,o),
(521,1344,o),
(552,1426,c),
(727,1426,l),
(754,1221,o),
(779,1033,o),
(805,844,cs),
(880,287,l),
(894,287,l),
(1269,846,ls),
(1333,940,o),
(1397,1034,o),
(1461,1129,cs),
(1525,1224,o),
(1590,1322,o),
(1660,1426,c),
(1850,1426,l),
(1838,1344,o),
(1828,1268,o),
(1817,1192,cs),
(1806,1115,o),
(1794,1033,o),
(1781,945,c),
(1716,470,ls),
(1704,383,o),
(1693,305,o),
(1682,231,cs),
(1671,155,o),
(1660,80,o),
(1649,0,c),
(1477,0,l),
(1514,256,o),
(1548,483,o),
(1578,679,cs),
(1641,1106,l),
(1628,1106,l),
(1323,647,ls),
(1250,535,o),
(1176,426,o),
(1102,313,cs),
(1028,200,o),
(958,98,o),
(893,0,c),
(770,0,l),
(761,61,o),
(752,127,o),
(743,200,cs),
(723,347,o),
(701,499,o),
(684,643,c),
(621,1106,l),
(608,1106,l),
(441,679,ls),
(363,479,o),
(274,256,o),
(175,0,c)
);
}
);
width = 1916;
},
{
layerId = "63B846B6-E5C3-431C-B192-887AE8F7062B";
shapes = (
{
closed = 1;
nodes = (
(28,0,l),
(89,159,o),
(146,307,o),
(213,479,cs),
(393,947,ls),
(426,1032,o),
(458,1112,o),
(487,1188,cs),
(516,1264,o),
(546,1342,o),
(578,1426,c),
(635,1426,l),
(671,1193,o),
(705,974,o),
(740,755,cs),
(840,110,l),
(848,110,l),
(1291,757,ls),
(1367,866,o),
(1441,973,o),
(1517,1086,cs),
(1593,1198,o),
(1670,1309,o),
(1750,1426,c),
(1819,1426,l),
(1807,1342,o),
(1796,1267,o),
(1785,1191,cs),
(1774,1115,o),
(1762,1034,o),
(1749,945,cs),
(1682,474,ls),
(1670,389,o),
(1659,311,o),
(1648,235,cs),
(1637,159,o),
(1625,81,o),
(1614,0,c),
(1552,0,l),
(1593,299,o),
(1631,565,o),
(1663,792,cs),
(1733,1288,l),
(1727,1288,l),
(1361,753,ls),
(1273,624,o),
(1185,497,o),
(1096,364,cs),
(1007,231,o),
(923,113,o),
(846,0,c),
(798,0,l),
(787,69,o),
(774,146,o),
(761,231,cs),
(734,403,o),
(705,581,o),
(680,748,cs),
(595,1288,l),
(589,1288,l),
(399,792,ls),
(311,560,o),
(209,299,o),
(96,0,c)
);
}
);
width = 1906;
}
);
leftKerningGroup = M2;
rightKerningGroup = M;
unicode = 77;
}
{
glyphname = N;
layers = (
{
layerId = "E7B352D6-DDF7-4BB1-9248-C29C5148A582";
shapes = (
{
closed = 1;
nodes = (
(-42,0,l),
(-21,76,o),
(-2,146,o),
(17,215,cs),
(36,284,o),
(56,365,o),
(81,458,cs),
(210,947,ls),
(235,1043,o),
(257,1128,o),
(277,1201,cs),
(296,1274,o),
(317,1349,o),
(338,1426,c),
(764,1426,l),
(808,1277,o),
(843,1147,o),
(878,1022,cs),
(946,775,l),
(1006,775,l),
(1060,947,l),
(1085,1043,o),
(1107,1126,o),
(1127,1199,cs),
(1146,1272,o),
(1167,1346,o),
(1188,1426,c),
(1646,1426,l),
(1625,1346,o),
(1604,1273,o),
(1585,1200,cs),
(1565,1127,o),
(1543,1043,o),
(1518,947,cs),
(1389,460,ls),
(1364,364,o),
(1344,285,o),
(1325,216,cs),
(1306,147,o),
(1287,76,o),
(1266,0,c),
(852,0,l),
(811,131,o),
(774,254,o),
(730,402,cs),
(656,651,l),
(588,651,l),
(539,460,ls),
(514,364,o),
(494,285,o),
(475,216,cs),
(456,147,o),
(437,76,o),
(416,0,c)
);
}
);
width = 1492;
},
{
layerId = "1ECFA0BB-D4D0-440A-AF13-F612441316F9";
shapes = (
{
closed = 1;
nodes = (
(30,0,l),
(51,77,o),
(71,152,o),
(90,225,cs),
(109,298,o),
(130,379,o),
(154,468,cs),
(281,945,ls),
(305,1038,o),
(327,1121,o),
(347,1197,cs),
(367,1273,o),
(388,1346,o),
(409,1426,c),
(640,1426,l),
(728,1205,o),
(808,1007,o),
(885,808,cs),
(1040,414,l),
(1060,414,l),
(1217,946,l),
(1242,1039,o),
(1264,1120,o),
(1284,1196,cs),
(1303,1272,o),
(1324,1346,o),
(1345,1426,c),
(1590,1426,l),
(1569,1346,o),
(1548,1273,o),
(1528,1197,cs),
(1508,1121,o),
(1486,1039,o),
(1462,946,cs),
(1335,469,ls),
(1311,377,o),
(1290,298,o),
(1271,226,cs),
(1252,153,o),
(1232,80,o),
(1211,0,c),
(985,0,l),
(910,187,o),
(833,380,o),
(737,619,cs),
(577,1017,l),
(558,1017,l),
(398,469,l),
(374,377,o),
(353,298,o),
(334,226,cs),
(315,154,o),
(295,80,o),
(274,0,c)
);
}
);
width = 1504;
},
{
layerId = "3DB0A36A-4459-4A7E-AA85-C98DCD1D5A19";
shapes = (
{
closed = 1;
nodes = (
(54,0,l),
(76,79,o),
(96,154,o),
(115,229,cs),
(134,303,o),
(155,383,o),
(179,472,cs),
(305,945,ls),
(329,1037,o),
(351,1119,o),
(371,1196,cs),
(391,1272,o),
(412,1346,o),
(433,1426,c),
(598,1426,l),
(701,1181,o),
(796,959,o),
(887,736,c),
(1072,292,l),
(1087,292,l),
(1270,946,l),
(1295,1038,o),
(1317,1119,o),
(1337,1195,cs),
(1356,1271,o),
(1377,1346,o),
(1398,1426,c),
(1571,1426,l),
(1550,1346,o),
(1529,1272,o),
(1509,1196,cs),
(1489,1120,o),
(1467,1038,o),
(1443,946,cs),
(1317,472,ls),
(1293,381,o),
(1272,302,o),
(1253,229,cs),
(1234,155,o),
(1214,80,o),
(1192,0,c),
(1030,0,l),
(944,205,o),
(853,423,o),
(739,692,cs),
(550,1140,l),
(536,1140,l),
(350,472,l),
(327,381,o),
(306,302,o),
(287,229,cs),
(268,155,o),
(248,80,o),
(226,0,c)
);
}
);
width = 1508;
},
{
layerId = "63B846B6-E5C3-431C-B192-887AE8F7062B";
shapes = (
{
closed = 1;
nodes = (
(90,0,l),
(113,81,o),
(133,158,o),
(152,234,cs),
(171,310,o),
(193,389,o),
(216,477,cs),
(340,944,ls),
(364,1036,o),
(386,1117,o),
(406,1194,cs),
(426,1270,o),
(447,1346,o),
(468,1426,c),
(536,1426,l),
(661,1145,o),
(777,887,o),
(890,628,cs),
(1120,109,l),
(1128,109,l),
(1350,945,ls),
(1374,1037,o),
(1396,1117,o),
(1416,1193,cs),
(1436,1269,o),
(1457,1346,o),
(1478,1426,c),
(1542,1426,l),
(1521,1346,o),
(1500,1270,o),
(1480,1194,cs),
(1460,1118,o),
(1438,1037,o),
(1414,945,cs),
(1290,476,ls),
(1267,388,o),
(1245,309,o),
(1226,233,cs),
(1207,157,o),
(1187,80,o),
(1164,0,c),
(1098,0,l),
(994,233,o),
(882,487,o),
(742,802,cs),
(510,1325,l),
(502,1325,l),
(279,476,ls),
(256,388,o),
(235,309,o),
(216,233,cs),
(197,157,o),
(177,81,o),
(154,0,c)
);
}
);
width = 1514;
}
);
leftKerningGroup = B;
rightKerningGroup = H;
unicode = 78;
}
{
glyphname = P;
layers = (
{
layerId = "56A8602E-BDC2-46DE-85D6-EBC995AB5C7F";
shapes = (
{
closed = 1;
nodes = (
(-42,0,l),
(0,153,o),
(40,306,o),
(81,459,cs),
(210,947,ls),
(251,1107,o),
(295,1267,o),
(338,1426,c),
(546,1426,o),
(754,1426,o),
(962,1426,cs),
(1324,1426,o),
(1512,1269,o),
(1416,874,c),
(1330,547,o),
(1145,426,o),
(823,426,cs),
(718,426,o),
(612,426,o),
(507,426,c),
(582,770,l),
(775,770,ls),
(866,770,o),
(894,817,o),
(920,894,c),
(945,956,o),
(942,1056,o),
(853,1056,cs),
(506,1056,l),
(801,1346,l),
(758,1187,o),
(716,1027,o),
(674,867,cs),
(562,458,ls),
(523,305,o),
(482,152,o),
(440,0,c)
);
}
);
width = 1346;
},
{
hints = (
{
horizontal = 1;
place = (0,21);
target = up;
type = BottomGhost;
},
{
horizontal = 1;
place = (532,210);
type = Stem;
},
{
horizontal = 1;
place = (1216,210);
type = Stem;
},
{
place = (154,254);
type = Stem;
},
{
place = (1065,262);
type = Stem;
}
);
layerId = "7D741856-296A-45BF-88B8-057E37E60DB7";
shapes = (
{
closed = 1;
nodes = (
(30,0,l),
(72,156,o),
(107,288,o),
(154,468,cs),
(280,944,ls),
(329,1130,o),
(367,1269,o),
(408,1426,c),
(515,1426,o),
(688,1426,o),
(920,1426,cs),
(1259,1426,o),
(1410,1251,o),
(1327,941,cs),
(1254,667,o),
(1115,532,o),
(735,532,cs),
(635,532,o),
(473,532,o),
(395,532,c),
(450,742,l),
(729,742,ls),
(936,742,o),
(1020,792,o),
(1065,957,cs),
(1118,1156,o),
(985,1216,o),
(860,1216,cs),
(483,1216,l),
(651,1386,l),
(609,1227,o),
(573,1090,o),
(525,910,cs),
(408,468,ls),
(360,288,o),
(325,156,o),
(284,0,c)
);
}
);
width = 1278;
},
{
layerId = "355BC9C9-DFF3-4FFB-B20D-156268081B81";
shapes = (
{
closed = 1;
nodes = (
(90,0,l),
(135,158,o),
(175,317,o),
(216,476,cs),
(340,944,ls),
(382,1105,o),
(426,1265,o),
(468,1426,c),
(606,1426,o),
(744,1426,o),
(882,1426,cs),
(1142,1426,o),
(1334,1289,o),
(1258,998,c),
(1165,672,o),
(982,622,o),
(675,622,cs),
(552,622,o),
(430,622,o),
(307,622,c),
(324,682,l),
(683,682,ls),
(969,682,o),
(1118,727,o),
(1192,1010,cs),
(1262,1268,o),
(1106,1364,o),
(873,1364,cs),
(480,1364,l),
(529,1420,l),
(488,1262,o),
(447,1104,o),
(404,947,cs),
(280,479,ls),
(238,319,o),
(200,158,o),
(154,0,c)
);
}
);
width = 1220;
}
);
leftKerningGroup = B;
unicode = 80;
}
{
glyphname = Q;
layers = (
{
anchors = (
{
name = t.uni0308;
position = "{1857, 1426}";
},
{
name = t.uni031B_1;
position = "{2060, 1426}";
},
{
name = b.uni0324_2;
position = "{207, 0}";
},
{
name = b.uni0328_3;
position = "{1228, 0}";
}
);
layerId = "4DEC7066-344F-4F8A-A00C-DB3202BBB1B9";
shapes = (
{
closed = 1;
nodes = (
(922,-360,l),
(862,-281,o),
(800,-202,o),
(752,-141,cs),
(647,-4,l),
(930,235,l),
(1113,47,ls),
(1193,-36,o),
(1267,-111,o),
(1350,-198,c)
);
},
{
closed = 1;
nodes = (
(514,-32,o),
(317,68,o),
(206,229,cs),
(94,390,o),
(68,601,o),
(124,824,cs),
(159,957,o),
(214,1070,o),
(287,1165,cs),
(433,1354,o),
(652,1458,o),
(941,1458,cs),
(1213,1458,o),
(1411,1361,o),
(1525,1202,cs),
(1639,1043,o),
(1669,833,o),
(1610,606,cs),
(1575,479,o),
(1522,367,o),
(1449,272,cs),
(1304,80,o),
(1084,-32,o),
(795,-32,cs)
);
},
{
closed = 1;
nodes = (
(867,364,o),
(929,391,o),
(982,441,cs),
(1035,491,o),
(1079,564,o),
(1108,659,cs),
(1140,763,o),
(1139,861,o),
(1109,938,cs),
(1079,1014,o),
(1020,1062,o),
(935,1062,cs),
(866,1062,o),
(803,1033,o),
(749,981,cs),
(695,929,o),
(651,854,o),
(622,761,cs),
(589,652,o),
(595,554,o),
(630,481,cs),
(665,408,o),
(727,364,o),
(804,364,cs)
);
}
);
width = 1622;
},
{
anchors = (
{
name = t.uni0308;
position = "{1964, 1426}";
},
{
name = t.uni031B_1;
position = "{2135, 1426}";
},
{
name = b.uni0324_2;
position = "{152, 0}";
},
{
name = b.uni0328_3;
position = "{1195, 0}";
}
);
layerId = "44FDB26C-3A22-467E-AC26-FA639943C40F";
shapes = (
{
closed = 1;
nodes = (
(1041,-343,l),
(978,-271,o),
(912,-197,o),
(851,-132,c),
(729,3,l),
(882,133,l),
(1048,-32,ls),
(1119,-103,o),
(1188,-172,o),
(1271,-253,c)
);
},
{
closed = 1;
nodes = (
(545,-24,o),
(356,72,o),
(245,228,cs),
(134,384,o),
(104,590,o),
(160,813,cs),
(196,947,o),
(251,1062,o),
(325,1158,cs),
(473,1349,o),
(688,1454,o),
(955,1454,cs),
(1203,1454,o),
(1390,1356,o),
(1499,1196,cs),
(1608,1035,o),
(1638,824,o),
(1581,599,c),
(1547,475,o),
(1494,366,o),
(1421,273,cs),
(1276,85,o),
(1062,-24,o),
(798,-24,cs)
);
},
{
closed = 1;
nodes = (
(931,193,o),
(1042,239,o),
(1130,318,cs),
(1218,397,o),
(1281,506,o),
(1316,633,cs),
(1360,798,o),
(1343,946,o),
(1278,1058,cs),
(1213,1169,o),
(1101,1237,o),
(952,1237,cs),
(819,1237,o),
(706,1190,o),
(616,1109,cs),
(526,1028,o),
(461,913,o),
(422,776,cs),
(377,609,o),
(399,466,o),
(470,360,cs),
(541,254,o),
(658,193,o),
(803,193,cs)
);
}
);
width = 1631;
},
{
anchors = (
{
name = center;
position = "{878, 714}";
},
{
name = ogonek;
position = "{913, 0}";
},
{
name = top;
position = "{1066, 1426}";
},
{
name = topleft;
position = "{280, 1426}";
},
{
name = topright;
position = "{1617, 1426}";
}
);
layerId = "9B0C9E3E-BEB6-4BC5-8110-F7258CCDF060";
shapes = (
{
closed = 1;
nodes = (
(1142,-328,l),
(1077,-263,o),
(1006,-193,o),
(934,-124,cs),
(799,8,l),
(842,47,l),
(993,-98,ls),
(1057,-159,o),
(1123,-221,o),
(1204,-300,c)
);
},
{
closed = 1;
nodes = (
(570,-18,o),
(389,75,o),
(279,227,cs),
(169,379,o),
(134,581,o),
(190,804,c),
(227,939,o),
(283,1055,o),
(358,1152,cs),
(508,1344,o),
(719,1450,o),
(967,1450,cs),
(1195,1450,o),
(1372,1351,o),
(1477,1190,cs),
(1582,1029,o),
(1613,818,o),
(1556,594,cs),
(1523,472,o),
(1470,365,o),
(1397,273,cs),
(1252,89,o),
(1044,-18,o),
(801,-18,cs)
);
},
{
closed = 1;
nodes = (
(985,48,o),
(1138,111,o),
(1255,215,cs),
(1372,318,o),
(1452,458,o),
(1492,611,cs),
(1545,828,o),
(1517,1019,o),
(1421,1160,cs),
(1325,1300,o),
(1168,1384,o),
(967,1384,cs),
(778,1384,o),
(623,1323,o),
(503,1217,cs),
(383,1111,o),
(301,964,o),
(254,789,cs),
(198,574,o),
(234,390,o),
(335,257,cs),
(436,124,o),
(601,48,o),
(802,48,cs)
);
}
);
width = 1638;
}
);
leftKerningGroup = C2;
rightKerningGroup = D;
unicode = 81;
}
{
glyphname = R;
layers = (
{
layerId = "E7B352D6-DDF7-4BB1-9248-C29C5148A582";
shapes = (
{
closed = 1;
nodes = (
(-42,0,l),
(-21,76,o),
(0,152,o),
(20,229,cs),
(40,305,o),
(61,382,o),
(81,458,cs),
(210,947,ls),
(231,1027,o),
(253,1107,o),
(274,1187,cs),
(295,1266,o),
(317,1346,o),
(338,1426,c),
(946,1426,ls),
(1107,1426,o),
(1251,1395,o),
(1343,1316,cs),
(1435,1237,o),
(1475,1111,o),
(1428,920,cs),
(1388,768,o),
(1312,679,o),
(1210,628,cs),
(1108,576,o),
(981,563,o),
(844,564,c),
(1076,714,l),
(1161,422,ls),
(1181,351,o),
(1203,282,o),
(1224,211,cs),
(1244,140,o),
(1264,71,o),
(1284,0,c),
(746,0,l),
(725,104,o),
(707,191,o),
(690,283,c),
(597,697,l),
(846,502,l),
(491,502,l),
(556,796,l),
(773,796,ls),
(820,796,o),
(858,817,o),
(886,850,cs),
(913,882,o),
(929,925,o),
(929,969,cs),
(929,994,o),
(922,1017,o),
(908,1033,cs),
(894,1049,o),
(873,1058,o),
(845,1058,cs),
(382,1058,l),
(801,1346,l),
(780,1266,o),
(758,1187,o),
(738,1108,cs),
(717,1028,o),
(695,949,o),
(674,869,cs),
(563,460,ls),
(543,383,o),
(523,306,o),
(503,230,cs),
(482,153,o),
(461,76,o),
(440,0,c)
);
}
);
width = 1430;
},
{
layerId = "1ECFA0BB-D4D0-440A-AF13-F612441316F9";
shapes = (
{
closed = 1;
nodes = (
(30,0,l),
(51,79,o),
(70,150,o),
(90,225,cs),
(110,300,o),
(130,379,o),
(154,468,cs),
(280,945,ls),
(305,1040,o),
(326,1120,o),
(347,1197,cs),
(367,1273,o),
(387,1346,o),
(408,1426,c),
(904,1426,ls),
(1073,1426,o),
(1197,1381,o),
(1270,1301,cs),
(1342,1221,o),
(1362,1106,o),
(1325,966,cs),
(1293,841,o),
(1239,747,o),
(1147,684,cs),
(1055,620,o),
(925,590,o),
(738,591,c),
(852,696,l),
(987,412,ls),
(1019,347,o),
(1055,270,o),
(1090,198,cs),
(1125,125,o),
(1159,55,o),
(1184,0,c),
(896,0,l),
(845,117,o),
(801,220,o),
(754,325,cs),
(600,680,l),
(723,536,l),
(378,536,l),
(433,746,l),
(712,746,ls),
(812,746,o),
(886,758,o),
(940,792,cs),
(994,826,o),
(1029,883,o),
(1054,976,cs),
(1079,1071,o),
(1060,1131,o),
(1018,1167,cs),
(976,1203,o),
(911,1216,o),
(848,1216,cs),
(430,1216,l),
(652,1386,l),
(631,1309,o),
(611,1234,o),
(591,1158,cs),
(571,1082,o),
(550,1003,o),
(527,914,cs),
(408,468,ls),
(384,379,o),
(364,300,o),
(344,225,cs),
(324,150,o),
(305,79,o),
(284,0,c)
);
}
);
width = 1363;
},
{
layerId = "3DB0A36A-4459-4A7E-AA85-C98DCD1D5A19";
shapes = (
{
closed = 1;
nodes = (
(54,0,l),
(76,79,o),
(96,153,o),
(116,230,cs),
(136,307,o),
(156,386,o),
(179,471,cs),
(304,945,ls),
(327,1034,o),
(349,1114,o),
(370,1192,cs),
(390,1270,o),
(411,1346,o),
(432,1426,c),
(887,1426,ls),
(1038,1426,o),
(1158,1385,o),
(1231,1310,cs),
(1303,1235,o),
(1329,1124,o),
(1291,984,c),
(1256,847,o),
(1196,753,o),
(1102,694,cs),
(1008,634,o),
(880,611,o),
(705,613,c),
(775,690,l),
(928,408,l),
(965,343,o),
(1004,270,o),
(1042,200,cs),
(1080,129,o),
(1118,60,o),
(1150,0,c),
(947,0,l),
(883,122,o),
(827,230,o),
(769,339,c),
(599,674,l),
(689,578,l),
(350,578,l),
(389,728,l),
(692,728,ls),
(808,728,o),
(896,740,o),
(962,778,cs),
(1028,816,o),
(1072,883,o),
(1102,995,cs),
(1131,1101,o),
(1109,1171,o),
(1059,1215,cs),
(1010,1258,o),
(931,1275,o),
(850,1275,cs),
(450,1275,l),
(603,1400,l),
(582,1322,o),
(562,1245,o),
(542,1168,cs),
(521,1091,o),
(500,1012,o),
(478,927,cs),
(356,470,ls),
(334,385,o),
(313,306,o),
(293,229,cs),
(273,153,o),
(254,79,o),
(232,0,c)
);
}
);
width = 1340;
},
{
layerId = "63B846B6-E5C3-431C-B192-887AE8F7062B";
shapes = (
{
closed = 1;
nodes = (
(90,0,l),
(113,79,o),
(134,158,o),
(155,238,cs),
(175,317,o),
(196,396,o),
(216,476,cs),
(340,944,ls),
(361,1024,o),
(383,1105,o),
(404,1185,cs),
(425,1265,o),
(447,1346,o),
(468,1426,c),
(862,1426,ls),
(986,1426,o),
(1099,1392,o),
(1172,1324,cs),
(1245,1255,o),
(1279,1150,o),
(1240,1010,c),
(1200,855,o),
(1131,762,o),
(1035,709,cs),
(938,656,o),
(812,642,o),
(656,646,c),
(660,682,l),
(840,403,ls),
(884,336,o),
(927,269,o),
(970,202,cs),
(1013,134,o),
(1056,67,o),
(1100,0,c),
(1024,0,l),
(940,129,o),
(865,244,o),
(792,361,cs),
(597,665,l),
(638,642,l),
(307,642,l),
(324,702,l),
(663,702,ls),
(803,702,o),
(912,712,o),
(996,757,cs),
(1079,802,o),
(1137,883,o),
(1174,1023,cs),
(1209,1147,o),
(1182,1231,o),
(1121,1286,cs),
(1060,1341,o),
(962,1364,o),
(853,1364,cs),
(480,1364,l),
(529,1420,l),
(509,1341,o),
(488,1262,o),
(468,1183,cs),
(447,1104,o),
(425,1026,o),
(404,947,cs),
(279,472,ls),
(258,393,o),
(237,315,o),
(217,236,cs),
(197,157,o),
(177,79,o),
(154,0,c)
);
}
);
width = 1306;
}
);
leftKerningGroup = B;
rightKerningGroup = R;
unicode = 82;
}
{
glyphname = S;
layers = (
{
anchors = (
{
name = bottom;
position = "{484, 0}";
},
{
name = top;
position = "{859, 1426}";
}
);
layerId = "376EABCF-4C28-4B8D-84B7-F555BD3ECEE4";
shapes = (
{
closed = 1;
nodes = (
(462,-32,o),
(388,-26,o),
(312,-15,cs),
(161,9,o),
(32,50,o),
(-33,97,c),
(84,499,l),
(125,468,o),
(169,443,o),
(218,420,cs),
(315,373,o),
(419,348,o),
(516,348,cs),
(543,348,o),
(564,350,o),
(583,354,cs),
(600,357,o),
(615,363,o),
(626,372,cs),
(637,381,o),
(647,393,o),
(655,408,c),
(662,427,o),
(659,445,o),
(646,464,cs),
(621,500,o),
(561,536,o),
(477,573,cs),
(401,605,o),
(339,641,o),
(290,684,cs),
(190,768,o),
(152,889,o),
(199,1080,cs),
(220,1167,o),
(254,1237,o),
(299,1293,cs),
(390,1405,o),
(539,1458,o),
(771,1458,cs),
(875,1458,o),
(985,1443,o),
(1089,1419,cs),
(1193,1394,o),
(1282,1361,o),
(1342,1324,c),
(1220,938,l),
(1183,967,o),
(1139,992,o),
(1090,1012,c),
(1039,1031,o),
(992,1045,o),
(947,1056,c),
(902,1065,o),
(866,1070,o),
(841,1070,cs),
(820,1070,o),
(801,1069,o),
(782,1066,cs),
(763,1063,o),
(748,1057,o),
(735,1049,cs),
(720,1041,o),
(711,1030,o),
(704,1015,c),
(697,996,o),
(698,979,o),
(706,962,c),
(721,926,o),
(766,889,o),
(851,850,c),
(947,809,o),
(1021,766,o),
(1073,719,cs),
(1176,627,o),
(1199,515,o),
(1162,363,cs),
(1137,263,o),
(1101,186,o),
(1052,129,cs),
(955,14,o),
(791,-32,o),
(538,-32,cs)
);
}
);
width = 1232;
},
{
anchors = (
{
name = bottom;
position = "{468, 0}";
},
{
name = top;
position = "{843, 1426}";
}
);
layerId = "10853CE6-D5C4-42A5-A345-B8D535EFC5CA";
shapes = (
{
closed = 1;
nodes = (
(444,-24,o),
(369,-17,o),
(301,-2,cs),
(165,27,o),
(69,76,o),
(13,120,c),
(80,343,l),
(115,316,o),
(156,292,o),
(201,269,cs),
(292,222,o),
(400,192,o),
(529,192,cs),
(568,192,o),
(607,196,o),
(646,203,cs),
(685,210,o),
(717,225,o),
(748,248,cs),
(777,271,o),
(798,305,o),
(813,352,c),
(824,395,o),
(822,431,o),
(805,464,cs),
(772,528,o),
(688,581,o),
(563,637,cs),
(475,676,o),
(405,718,o),
(353,765,cs),
(248,857,o),
(213,973,o),
(253,1128,cs),
(272,1201,o),
(303,1261,o),
(347,1310,cs),
(434,1407,o),
(573,1454,o),
(773,1454,cs),
(869,1454,o),
(971,1435,o),
(1060,1411,cs),
(1149,1386,o),
(1222,1358,o),
(1257,1337,c),
(1184,1107,l),
(1149,1134,o),
(1111,1156,o),
(1064,1175,cs),
(1017,1194,o),
(972,1209,o),
(925,1220,cs),
(878,1231,o),
(835,1236,o),
(796,1236,cs),
(757,1236,o),
(721,1233,o),
(682,1226,cs),
(643,1219,o),
(610,1206,o),
(581,1187,cs),
(552,1168,o),
(531,1140,o),
(520,1103,cs),
(508,1060,o),
(508,1024,o),
(519,992,cs),
(542,928,o),
(615,875,o),
(754,811,c),
(855,767,o),
(932,721,o),
(985,672,cs),
(1092,575,o),
(1114,463,o),
(1079,331,cs),
(1058,247,o),
(1026,181,o),
(982,129,cs),
(893,25,o),
(748,-24,o),
(531,-24,cs)
);
}
);
width = 1188;
},
{
anchors = (
{
name = bottom;
position = "{456, 0}";
},
{
name = top;
position = "{831, 1426}";
}
);
layerId = "6A906F70-B0A1-4ED9-B478-C4668F59BF3C";
shapes = (
{
closed = 1;
nodes = (
(442,-18,o),
(374,-10,o),
(314,7,c),
(193,39,o),
(107,91,o),
(51,139,c),
(78,199,l),
(113,171,o),
(152,146,o),
(195,123,cs),
(279,76,o),
(382,48,o),
(522,48,cs),
(578,48,o),
(633,54,o),
(693,67,cs),
(752,80,o),
(803,105,o),
(850,144,cs),
(897,183,o),
(930,240,o),
(951,320,c),
(966,384,o),
(964,437,o),
(943,482,cs),
(902,573,o),
(794,639,o),
(637,711,cs),
(537,755,o),
(461,798,o),
(405,841,cs),
(292,925,o),
(258,1023,o),
(297,1168,cs),
(314,1231,o),
(343,1281,o),
(386,1324,cs),
(470,1408,o),
(602,1450,o),
(775,1450,cs),
(856,1450,o),
(941,1431,o),
(1017,1404,cs),
(1093,1376,o),
(1153,1345,o),
(1182,1318,c),
(1152,1256,l),
(1121,1283,o),
(1084,1306,o),
(1040,1325,cs),
(996,1344,o),
(952,1358,o),
(905,1369,cs),
(858,1380,o),
(816,1384,o),
(777,1384,cs),
(720,1384,o),
(663,1378,o),
(606,1367,cs),
(547,1356,o),
(497,1333,o),
(452,1300,cs),
(407,1267,o),
(375,1218,o),
(358,1153,cs),
(342,1092,o),
(342,1042,o),
(358,999,cs),
(389,915,o),
(488,848,o),
(675,764,cs),
(779,717,o),
(856,669,o),
(911,622,cs),
(1019,527,o),
(1043,426,o),
(1012,305,c),
(993,236,o),
(964,177,o),
(923,129,cs),
(842,33,o),
(710,-18,o),
(522,-18,cs)
);
}
);
width = 1150;
}
);
leftKerningGroup = S2;
rightKerningGroup = S;
unicode = 83;
}
{
glyphname = T;
layers = (
{
anchors = (
{
name = bottom;
position = "{522, 0}";
},
{
name = bottomright;
position = "{761, 0}";
},
{
name = center;
position = "{677, 598}";
},
{
name = top;
position = "{897, 1426}";
}
);
layerId = "88659256-3F30-40E7-9696-2B2DC1F8E116";
shapes = (
{
closed = 1;
nodes = (
(273,0,l),
(293,76,o),
(312,146,o),
(331,215,cs),
(350,284,o),
(371,366,o),
(396,459,cs),
(508,868,ls),
(533,964,o),
(556,1049,o),
(575,1122,cs),
(594,1195,o),
(614,1269,o),
(635,1346,c),
(742,1002,l),
(532,1002,l),
(194,1002,l),
(286,1426,l),
(1508,1426,l),
(1414,1002,l),
(1078,1002,l),
(868,1002,l),
(1125,1346,l),
(1104,1269,o),
(1084,1195,o),
(1065,1122,cs),
(1046,1049,o),
(1023,964,o),
(998,868,cs),
(886,459,ls),
(861,366,o),
(840,284,o),
(821,215,cs),
(802,146,o),
(783,76,o),
(763,0,c)
);
}
);
width = 1302;
},
{
anchors = (
{
name = bottom;
position = "{517, 0}";
},
{
name = bottomright;
position = "{665, 0}";
},
{
name = center;
position = "{686, 649}";
},
{
name = top;
position = "{892, 1426}";
}
);
layerId = "21D94FDA-A95C-474B-951E-BE67C5105DB2";
shapes = (
{
closed = 1;
nodes = (
(385,0,l),
(406,77,o),
(426,152,o),
(445,225,cs),
(464,298,o),
(485,379,o),
(509,468,cs),
(628,909,ls),
(652,1001,o),
(674,1081,o),
(693,1157,cs),
(712,1233,o),
(733,1306,o),
(754,1386,c),
(809,1198,l),
(630,1198,l),
(252,1198,l),
(303,1426,l),
(1478,1426,l),
(1425,1198,l),
(1048,1198,l),
(868,1198,l),
(1013,1386,l),
(992,1306,o),
(971,1233,o),
(952,1157,cs),
(933,1081,o),
(911,1001,o),
(887,909,cs),
(768,468,ls),
(744,379,o),
(723,298,o),
(704,225,cs),
(685,152,o),
(665,77,o),
(644,0,c)
);
}
);
width = 1287;
},
{
anchors = (
{
name = bottom;
position = "{513, 0}";
},
{
name = bottomright;
position = "{596, 0}";
},
{
name = center;
position = "{693, 685}";
},
{
name = top;
position = "{888, 1426}";
}
);
layerId = "3D47BFF5-453B-49C2-B010-5B64E116DAF2";
shapes = (
{
closed = 1;
nodes = (
(427,0,l),
(448,78,o),
(469,154,o),
(488,229,cs),
(507,303,o),
(529,383,o),
(552,472,cs),
(673,925,ls),
(697,1015,o),
(719,1095,o),
(738,1171,cs),
(757,1247,o),
(778,1321,o),
(799,1401,c),
(835,1273,l),
(667,1273,l),
(274,1273,l),
(310,1426,l),
(1466,1426,l),
(1429,1273,l),
(1036,1273,l),
(868,1273,l),
(971,1401,l),
(949,1321,o),
(928,1247,o),
(909,1171,cs),
(890,1095,o),
(868,1015,o),
(845,925,cs),
(723,472,ls),
(700,383,o),
(678,303,o),
(659,229,cs),
(640,154,o),
(620,78,o),
(599,0,c)
);
}
);
width = 1281;
},
{
anchors = (
{
name = bottom;
position = "{511, 0}";
},
{
name = bottomright;
position = "{541, 0}";
},
{
name = center;
position = "{698, 714}";
},
{
name = top;
position = "{886, 1426}";
}
);
layerId = "CBE96DA9-FC64-4659-8F3D-7668682A4A62";
shapes = (
{
closed = 1;
nodes = (
(479,0,l),
(500,80,o),
(521,157,o),
(541,233,cs),
(560,309,o),
(582,388,o),
(605,476,cs),
(729,944,ls),
(752,1032,o),
(774,1111,o),
(793,1187,cs),
(812,1263,o),
(832,1339,o),
(855,1420,c),
(866,1364,l),
(712,1364,l),
(300,1364,l),
(318,1426,l),
(1452,1426,l),
(1434,1364,l),
(1022,1364,l),
(868,1364,l),
(919,1420,l),
(896,1339,o),
(876,1263,o),
(857,1187,cs),
(838,1111,o),
(816,1032,o),
(793,944,cs),
(669,476,ls),
(646,388,o),
(624,309,o),
(605,233,cs),
(585,157,o),
(564,80,o),
(543,0,c)
);
}
);
width = 1274;
}
);
leftKerningGroup = T2;
rightKerningGroup = T;
unicode = 84;
}
{
glyphname = U;
layers = (
{
anchors = (
{
name = bottom;
position = "{596, 0}";
},
{
name = ogonek;
position = "{910, 0}";
},
{
name = top;
position = "{971, 1426}";
},
{
name = topright;
position = "{1675, 1426}";
}
);
layerId = "7EF4C8C3-176E-4742-B97B-8B3D28CEB20F";
shapes = (
{
closed = 1;
nodes = (
(482,-32,o),
(359,-2,o),
(271,59,cs),
(182,119,o),
(126,200,o),
(102,301,cs),
(77,402,o),
(81,515,o),
(114,640,c),
(121,661,o),
(128,688,o),
(137,721,cs),
(156,786,o),
(180,866,o),
(203,946,c),
(228,1042,o),
(251,1127,o),
(271,1200,cs),
(290,1273,o),
(311,1347,o),
(332,1426,c),
(822,1426,l),
(801,1349,o),
(780,1274,o),
(761,1201,cs),
(742,1128,o),
(720,1045,o),
(695,949,c),
(602,617,l),
(587,569,o),
(579,527,o),
(580,488,cs),
(581,449,o),
(590,420,o),
(607,397,cs),
(624,374,o),
(649,364,o),
(682,364,cs),
(717,364,o),
(747,372,o),
(774,388,cs),
(801,404,o),
(823,427,o),
(842,458,cs),
(861,489,o),
(877,523,o),
(892,566,c),
(994,945,ls),
(1019,1041,o),
(1041,1123,o),
(1061,1199,cs),
(1080,1275,o),
(1101,1349,o),
(1122,1426,c),
(1612,1426,l),
(1591,1350,o),
(1571,1275,o),
(1552,1202,cs),
(1533,1127,o),
(1511,1043,o),
(1486,947,cs),
(1471,890,o),
(1456,833,o),
(1441,773,cs),
(1409,652,o),
(1382,549,o),
(1369,497,cs),
(1341,393,o),
(1301,303,o),
(1249,223,cs),
(1196,143,o),
(1122,81,o),
(1026,36,cs),
(930,-9,o),
(803,-32,o),
(643,-32,cs)
);
}
);
width = 1452;
},
{
anchors = (
{
name = bottom;
position = "{600, 0}";
},
{
name = ogonek;
position = "{860, 0}";
},
{
name = top;
position = "{975, 1426}";
},
{
name = topright;
position = "{1647, 1426}";
}
);
layerId = "34633467-B0C3-42A4-965D-4826287A5801";
shapes = (
{
closed = 1;
nodes = (
(501,-24,o),
(390,4,o),
(310,64,cs),
(230,124,o),
(180,200,o),
(157,296,cs),
(134,392,o),
(137,497,o),
(168,610,cs),
(175,635,o),
(182,665,o),
(193,700,c),
(213,772,o),
(239,857,o),
(264,946,cs),
(289,1038,o),
(311,1121,o),
(331,1197,cs),
(351,1273,o),
(372,1347,o),
(393,1426,c),
(652,1426,l),
(631,1347,o),
(610,1272,o),
(590,1196,cs),
(570,1120,o),
(548,1038,o),
(524,946,c),
(427,601,ls),
(406,525,o),
(400,459,o),
(408,396,cs),
(416,333,o),
(440,285,o),
(483,248,cs),
(524,211,o),
(585,193,o),
(665,193,cs),
(745,193,o),
(810,207,o),
(861,235,cs),
(912,262,o),
(953,301,o),
(984,350,cs),
(1015,399,o),
(1040,457,o),
(1059,522,c),
(1171,945,ls),
(1196,1037,o),
(1218,1121,o),
(1238,1197,cs),
(1258,1273,o),
(1279,1349,o),
(1300,1426,c),
(1559,1426,l),
(1538,1349,o),
(1517,1273,o),
(1498,1197,cs),
(1478,1121,o),
(1456,1038,o),
(1431,945,c),
(1416,884,o),
(1400,824,o),
(1384,763,cs),
(1351,642,o),
(1324,537,o),
(1309,477,c),
(1282,381,o),
(1245,298,o),
(1196,222,cs),
(1145,146,o),
(1078,86,o),
(990,42,cs),
(902,-2,o),
(788,-24,o),
(645,-24,cs)
);
}
);
width = 1459;
},
{
anchors = (
{
name = bottom;
position = "{604, 0}";
},
{
name = ogonek;
position = "{818, 0}";
},
{
name = top;
position = "{979, 1426}";
},
{
name = topright;
position = "{1623, 1426}";
}
);
layerId = "C71A4940-BE13-40D7-A764-AD65D9EEA0EA";
shapes = (
{
closed = 1;
nodes = (
(516,-18,o),
(416,10,o),
(343,69,cs),
(270,126,o),
(224,200,o),
(203,292,cs),
(182,384,o),
(186,480,o),
(214,584,cs),
(221,611,o),
(230,643,o),
(241,682,cs),
(261,758,o),
(288,849,o),
(315,946,cs),
(339,1035,o),
(361,1117,o),
(382,1194,cs),
(402,1271,o),
(423,1347,o),
(444,1426,c),
(508,1426,l),
(487,1347,o),
(466,1270,o),
(446,1193,cs),
(425,1116,o),
(403,1033,o),
(379,944,cs),
(280,587,ls),
(253,490,o),
(248,401,o),
(263,318,cs),
(278,235,o),
(314,171,o),
(378,122,cs),
(442,73,o),
(530,48,o),
(650,48,cs),
(767,48,o),
(861,66,o),
(934,105,cs),
(1006,142,o),
(1063,193,o),
(1104,260,cs),
(1145,325,o),
(1177,400,o),
(1200,484,cs),
(1321,945,ls),
(1345,1034,o),
(1367,1117,o),
(1388,1194,cs),
(1408,1271,o),
(1429,1347,o),
(1450,1426,c),
(1514,1426,l),
(1493,1347,o),
(1472,1271,o),
(1452,1194,cs),
(1431,1117,o),
(1409,1035,o),
(1385,944,cs),
(1368,880,o),
(1352,817,o),
(1336,756,cs),
(1303,631,o),
(1275,526,o),
(1259,461,c),
(1234,373,o),
(1198,293,o),
(1151,221,cs),
(1104,148,o),
(1040,90,o),
(959,47,cs),
(878,4,o),
(775,-18,o),
(647,-18,cs)
);
}
);
width = 1464;
}
);
leftKerningGroup = U2;
rightKerningGroup = U;
unicode = 85;
}
{
glyphname = V;
layers = (
{
layerId = "E7B352D6-DDF7-4BB1-9248-C29C5148A582";
shapes = (
{
closed = 1;
nodes = (
(275,0,l),
(275,72,o),
(275,147,o),
(276,228,cs),
(276,309,o),
(276,382,o),
(276,450,cs),
(278,899,ls),
(278,950,o),
(278,1006,o),
(279,1067,cs),
(279,1188,o),
(279,1313,o),
(280,1426,c),
(795,1426,l),
(786,1349,o),
(777,1269,o),
(766,1181,cs),
(755,1093,o),
(745,1014,o),
(736,934,cs),
(684,494,l),
(716,494,l),
(907,935,ls),
(942,1015,o),
(976,1095,o),
(1013,1179,cs),
(1050,1263,o),
(1085,1345,o),
(1120,1426,c),
(1684,1426,l),
(1653,1369,o),
(1622,1310,o),
(1590,1249,cs),
(1525,1125,o),
(1461,1005,o),
(1405,900,cs),
(1169,454,ls),
(1132,382,o),
(1093,308,o),
(1050,227,cs),
(1007,146,o),
(967,72,o),
(930,0,c)
);
}
);
width = 1472;
},
{
layerId = "1ECFA0BB-D4D0-440A-AF13-F612441316F9";
shapes = (
{
closed = 1;
nodes = (
(397,0,l),
(392,72,o),
(387,145,o),
(380,229,cs),
(373,310,o),
(369,385,o),
(364,453,cs),
(333,897,ls),
(330,948,o),
(326,1004,o),
(322,1065,cs),
(314,1186,o),
(304,1313,o),
(296,1426,c),
(567,1426,l),
(571,1330,o),
(575,1229,o),
(580,1121,cs),
(584,1013,o),
(588,911,o),
(591,814,cs),
(613,265,l),
(635,265,l),
(948,816,ls),
(1004,913,o),
(1061,1014,o),
(1121,1119,cs),
(1181,1224,o),
(1239,1326,o),
(1296,1426,c),
(1595,1426,l),
(1560,1369,o),
(1526,1310,o),
(1489,1249,cs),
(1416,1124,o),
(1343,1004,o),
(1282,899,cs),
(1017,454,ls),
(978,386,o),
(934,312,o),
(885,231,cs),
(836,147,o),
(792,72,o),
(749,0,c)
);
}
);
width = 1398;
},
{
layerId = "3DB0A36A-4459-4A7E-AA85-C98DCD1D5A19";
shapes = (
{
closed = 1;
nodes = (
(438,0,l),
(431,72,o),
(424,145,o),
(416,229,cs),
(407,312,o),
(400,386,o),
(394,454,cs),
(352,897,ls),
(347,948,o),
(342,1003,o),
(337,1064,cs),
(326,1185,o),
(312,1311,o),
(302,1426,c),
(490,1426,l),
(499,1323,o),
(507,1215,o),
(517,1101,cs),
(526,986,o),
(534,878,o),
(542,773,cs),
(589,188,l),
(607,188,l),
(962,776,ls),
(1025,879,o),
(1089,986,o),
(1157,1099,cs),
(1225,1211,o),
(1291,1319,o),
(1355,1426,c),
(1565,1426,l),
(1529,1369,o),
(1493,1310,o),
(1455,1249,c),
(1379,1124,o),
(1304,1004,o),
(1240,899,cs),
(966,454,l),
(926,387,o),
(880,314,o),
(830,232,cs),
(778,148,o),
(732,72,o),
(688,0,c)
);
}
);
width = 1373;
},
{
layerId = "63B846B6-E5C3-431C-B192-887AE8F7062B";
shapes = (
{
closed = 1;
nodes = (
(499,0,l),
(490,72,o),
(480,146,o),
(469,230,cs),
(458,314,o),
(447,387,o),
(438,455,cs),
(380,896,ls),
(373,947,o),
(366,1002,o),
(359,1063,cs),
(343,1184,o),
(325,1309,o),
(310,1426,c),
(375,1426,l),
(390,1313,o),
(406,1195,o),
(423,1070,cs),
(439,945,o),
(454,828,o),
(469,712,cs),
(554,72,l),
(566,72,l),
(983,716,ls),
(1056,829,o),
(1132,943,o),
(1212,1068,cs),
(1292,1192,o),
(1368,1309,o),
(1444,1426,c),
(1520,1426,l),
(1483,1369,o),
(1444,1310,o),
(1404,1249,cs),
(1324,1124,o),
(1246,1003,o),
(1178,899,cs),
(889,454,ls),
(848,389,o),
(800,318,o),
(747,234,c),
(691,150,o),
(643,73,o),
(596,0,c)
);
}
);
width = 1336;
}
);
unicode = 86;
}
{
glyphname = W;
layers = (
{
anchors = (
{
name = bottom;
position = "{932, 0}";
},
{
name = top;
position = "{1307, 1426}";
}
);
layerId = "6CC8052E-A7C6-44E2-8E9C-A2068213855B";
shapes = (
{
closed = 1;
nodes = (
(241,0,l),
(242,72,o),
(243,145,o),
(246,225,cs),
(249,305,o),
(250,379,o),
(251,451,cs),
(262,896,ls),
(263,977,o),
(265,1063,o),
(268,1159,cs),
(271,1255,o),
(272,1342,o),
(273,1426,c),
(821,1426,l),
(808,1354,o),
(794,1282,o),
(779,1202,cs),
(764,1122,o),
(750,1047,o),
(737,974,cs),
(664,584,l),
(696,584,l),
(865,984,ls),
(884,1029,o),
(905,1077,o),
(926,1128,cs),
(969,1229,o),
(1013,1334,o),
(1052,1426,c),
(1559,1426,l),
(1538,1281,o),
(1513,1123,o),
(1490,978,cs),
(1430,584,l),
(1462,584,l),
(1619,982,ls),
(1647,1054,o),
(1677,1124,o),
(1708,1204,cs),
(1739,1281,o),
(1768,1354,o),
(1796,1426,c),
(2365,1426,l),
(2322,1342,o),
(2277,1255,o),
(2230,1159,cs),
(2183,1063,o),
(2139,978,o),
(2100,901,cs),
(1873,450,ls),
(1837,378,o),
(1799,304,o),
(1758,224,cs),
(1717,143,o),
(1680,69,o),
(1645,0,c),
(1052,0,l),
(1061,60,o),
(1069,120,o),
(1080,188,c),
(1089,256,o),
(1098,316,o),
(1106,376,cs),
(1155,716,l),
(1123,716,l),
(967,375,ls),
(940,318,o),
(913,257,o),
(882,189,cs),
(851,121,o),
(822,60,o),
(795,0,c)
);
}
);
width = 2152;
},
{
anchors = (
{
name = bottom;
position = "{904, 0}";
},
{
name = top;
position = "{1279, 1426}";
}
);
layerId = "A92189D3-E43F-4E85-852B-95339EDAAFD5";
shapes = (
{
closed = 1;
nodes = (
(313,0,l),
(312,72,o),
(311,146,o),
(310,227,cs),
(309,307,o),
(307,381,o),
(306,453,cs),
(301,892,ls),
(300,973,o),
(298,1061,o),
(297,1157,cs),
(296,1253,o),
(294,1342,o),
(293,1426,c),
(578,1426,l),
(575,1330,o),
(571,1231,o),
(568,1126,cs),
(564,1018,o),
(560,920,o),
(557,824,cs),
(538,307,l),
(559,307,l),
(828,839,ls),
(859,899,o),
(890,962,o),
(925,1030,cs),
(993,1167,o),
(1062,1305,o),
(1126,1426,c),
(1413,1426,l),
(1406,1230,o),
(1400,1028,o),
(1393,835,cs),
(1377,307,l),
(1398,307,l),
(1665,836,ls),
(1712,928,o),
(1762,1026,o),
(1815,1130,cs),
(1868,1234,o),
(1918,1330,o),
(1965,1426,c),
(2265,1426,l),
(2218,1341,o),
(2171,1252,o),
(2122,1159,cs),
(2071,1066,o),
(2026,980,o),
(1983,900,cs),
(1742,451,ls),
(1703,379,o),
(1662,305,o),
(1619,224,cs),
(1576,143,o),
(1536,68,o),
(1499,0,c),
(1170,0,l),
(1173,88,o),
(1174,181,o),
(1177,278,cs),
(1180,375,o),
(1181,467,o),
(1182,555,cs),
(1194,1057,l),
(1173,1057,l),
(911,555,ls),
(866,467,o),
(818,378,o),
(767,278,cs),
(716,178,o),
(668,88,o),
(621,0,c)
);
}
);
width = 2069;
},
{
anchors = (
{
name = bottom;
position = "{884, 0}";
},
{
name = top;
position = "{1259, 1426}";
}
);
layerId = "3AF8F6E5-7887-438A-A5DF-2D8A93328E8A";
shapes = (
{
closed = 1;
nodes = (
(340,0,l),
(338,72,o),
(336,146,o),
(334,227,cs),
(332,307,o),
(329,382,o),
(327,454,cs),
(316,891,ls),
(314,972,o),
(311,1060,o),
(308,1157,cs),
(305,1253,o),
(303,1342,o),
(300,1426,c),
(486,1426,l),
(486,1321,o),
(486,1213,o),
(488,1097,c),
(488,980,o),
(488,872,o),
(489,767,cs),
(490,202,l),
(507,202,l),
(814,784,ls),
(849,850,o),
(885,918,o),
(925,993,cs),
(1002,1143,o),
(1082,1292,o),
(1154,1426,c),
(1357,1426,l),
(1357,1212,o),
(1357,992,o),
(1356,781,c),
(1357,202,l),
(1374,202,l),
(1683,780,ls),
(1737,882,o),
(1794,987,o),
(1856,1102,cs),
(1918,1216,o),
(1975,1322,o),
(2029,1426,c),
(2227,1426,l),
(2179,1341,o),
(2131,1252,o),
(2081,1159,cs),
(2029,1066,o),
(1982,980,o),
(1938,900,cs),
(1692,451,ls),
(1652,379,o),
(1610,305,o),
(1566,224,cs),
(1522,143,o),
(1481,68,o),
(1443,0,c),
(1215,0,l),
(1215,99,o),
(1214,202,o),
(1214,312,cs),
(1214,421,o),
(1213,524,o),
(1211,623,c),
(1209,1186,l),
(1192,1186,l),
(890,623,ls),
(838,524,o),
(782,423,o),
(723,312,cs),
(664,201,o),
(609,99,o),
(555,0,c)
);
}
);
width = 2037;
},
{
anchors = (
{
name = bottom;
position = "{868, 0}";
},
{
name = top;
position = "{1243, 1426}";
}
);
layerId = "7B0CF4BA-321F-4E0C-A751-EA3178BD3C09";
shapes = (
{
closed = 1;
nodes = (
(373,0,l),
(370,72,o),
(366,147,o),
(363,228,cs),
(360,308,o),
(356,383,o),
(352,455,cs),
(334,889,ls),
(330,970,o),
(326,1059,o),
(322,1156,cs),
(317,1252,o),
(313,1342,o),
(309,1426,c),
(373,1426,l),
(378,1310,o),
(383,1191,o),
(390,1062,cs),
(395,933,o),
(400,814,o),
(405,698,cs),
(432,74,l),
(444,74,l),
(797,716,ls),
(837,789,o),
(879,864,o),
(924,948,cs),
(1013,1113,o),
(1107,1277,o),
(1188,1426,c),
(1289,1426,l),
(1297,1189,o),
(1304,947,o),
(1311,714,cs),
(1332,74,l),
(1344,74,l),
(1704,712,ls),
(1768,825,o),
(1834,940,o),
(1906,1068,cs),
(1978,1193,o),
(2044,1313,o),
(2108,1426,c),
(2181,1426,l),
(2132,1341,o),
(2082,1252,o),
(2030,1159,cs),
(1978,1066,o),
(1929,980,o),
(1884,900,cs),
(1631,452,ls),
(1590,380,o),
(1547,305,o),
(1502,224,c),
(1455,143,o),
(1414,68,o),
(1375,0,c),
(1270,0,l),
(1267,113,o),
(1263,228,o),
(1259,353,cs),
(1255,478,o),
(1251,593,o),
(1247,706,cs),
(1227,1344,l),
(1215,1344,l),
(864,706,ls),
(803,594,o),
(739,478,o),
(670,353,cs),
(601,228,o),
(536,112,o),
(475,0,c)
);
}
);
width = 1998;
}
);
leftKerningGroup = W2;
rightKerningGroup = W;
unicode = 87;
}
{
glyphname = X;
layers = (
{
anchors = (
{
name = "#exit";
position = "{1276, 0}";
}
);
layerId = "88659256-3F30-40E7-9696-2B2DC1F8E116";
shapes = (
{
closed = 1;
nodes = (
(-98,0,l),
(-1,141,o),
(95,277,o),
(203,430,cs),
(463,800,l),
(436,690,l),
(369,988,ls),
(338,1124,o),
(308,1263,o),
(271,1426,c),
(797,1426,l),
(804,1333,o),
(809,1242,o),
(814,1158,cs),
(822,1004,l),
(854,1004,l),
(943,1160,l),
(988,1244,o),
(1041,1333,o),
(1094,1426,c),
(1671,1426,l),
(1554,1261,o),
(1449,1113,o),
(1360,988,cs),
(1110,634,l),
(1136,754,l),
(1215,443,ls),
(1234,366,o),
(1253,292,o),
(1272,220,cs),
(1291,148,o),
(1309,76,o),
(1328,0,c),
(780,0,l),
(776,88,o),
(773,164,o),
(768,236,c),
(759,414,l),
(727,414,l),
(623,235,ls),
(580,160,o),
(539,87,o),
(488,0,c)
);
}
);
width = 1488;
},
{
anchors = (
{
name = "#exit";
position = "{1194, 0}";
}
);
layerId = "21D94FDA-A95C-474B-951E-BE67C5105DB2";
shapes = (
{
closed = 1;
nodes = (
(-68,0,l),
(41,133,o),
(152,265,o),
(277,414,cs),
(575,770,l),
(559,701,l),
(456,995,ls),
(408,1128,o),
(362,1265,o),
(305,1426,c),
(583,1426,l),
(623,1305,o),
(660,1189,o),
(692,1085,cs),
(754,887,l),
(775,887,l),
(940,1088,ls),
(1025,1192,o),
(1122,1309,o),
(1218,1426,c),
(1529,1426,l),
(1400,1273,o),
(1283,1131,o),
(1179,1010,cs),
(901,677,l),
(917,751,l),
(1033,442,ls),
(1062,362,o),
(1090,291,o),
(1117,219,cs),
(1144,147,o),
(1171,76,o),
(1199,0,c),
(910,0,l),
(873,117,o),
(838,219,o),
(805,315,cs),
(725,553,l),
(704,553,l),
(505,312,ls),
(424,213,o),
(344,116,o),
(248,0,c)
);
}
);
width = 1390;
},
{
anchors = (
{
name = "#exit";
position = "{1136, 0}";
}
);
layerId = "3D47BFF5-453B-49C2-B010-5B64E116DAF2";
shapes = (
{
closed = 1;
nodes = (
(-56,0,l),
(58,129,o),
(175,261,o),
(305,408,cs),
(617,758,l),
(605,705,l),
(489,997,ls),
(435,1130,o),
(383,1265,o),
(318,1426,c),
(502,1426,l),
(555,1294,o),
(603,1169,o),
(646,1057,cs),
(728,842,l),
(745,842,l),
(939,1061,l),
(1039,1174,o),
(1152,1300,o),
(1265,1426,c),
(1475,1426,l),
(1341,1277,o),
(1218,1139,o),
(1110,1018,cs),
(821,694,l),
(834,750,l),
(964,442,l),
(996,362,o),
(1027,291,o),
(1058,219,cs),
(1088,147,o),
(1118,76,o),
(1150,0,c),
(960,0,l),
(910,128,o),
(863,240,o),
(819,345,cs),
(712,606,l),
(695,606,l),
(460,341,ls),
(364,233,o),
(271,127,o),
(157,0,c)
);
}
);
width = 1353;
},
{
anchors = (
{
name = "#exit";
position = "{1089, 0}";
}
);
layerId = "CBE96DA9-FC64-4659-8F3D-7668682A4A62";
shapes = (
{
closed = 1;
nodes = (
(-42,0,l),
(79,125,o),
(203,256,o),
(340,401,cs),
(669,744,l),
(662,710,l),
(529,1000,ls),
(468,1133,o),
(408,1266,o),
(333,1426,c),
(403,1426,l),
(471,1281,o),
(533,1144,o),
(589,1023,cs),
(696,788,l),
(708,788,l),
(938,1027,ls),
(1055,1152,o),
(1189,1289,o),
(1322,1426,c),
(1409,1426,l),
(1268,1281,o),
(1139,1149,o),
(1026,1028,cs),
(724,714,l),
(732,748,l),
(879,441,ls),
(916,361,o),
(951,290,o),
(986,218,c),
(1019,146,o),
(1054,76,o),
(1090,0,c),
(1020,0,l),
(955,141,o),
(893,265,o),
(836,382,cs),
(697,670,l),
(685,670,l),
(406,377,ls),
(291,257,o),
(181,140,o),
(46,0,c)
);
}
);
width = 1308;
}
);
rightKerningGroup = K;
unicode = 88;
}
{
glyphname = Y;
layers = (
{
layerId = "AFF82BBF-FC41-4F44-8FB2-1B474D793435";
shapes = (
{
closed = 1;
nodes = (
(504,444,l),
(366,1041,ls),
(351,1106,o),
(337,1166,o),
(324,1226,cs),
(311,1283,o),
(295,1350,o),
(278,1426,c),
(794,1426,l),
(793,1381,o),
(793,1342,o),
(793,1309,c),
(792,1276,o),
(792,1244,o),
(792,1215,c),
(791,1184,o),
(791,1152,o),
(791,1116,c),
(788,948,l),
(818,948,l),
(904,1113,l),
(923,1152,o),
(941,1185,o),
(957,1216,cs),
(972,1247,o),
(989,1279,o),
(1006,1312,cs),
(1023,1345,o),
(1042,1383,o),
(1065,1426,c),
(1645,1426,l),
(1552,1297,o),
(1455,1166,o),
(1366,1041,cs),
(934,444,l)
);
},
{
closed = 1;
nodes = (
(338,0,l),
(358,73,o),
(377,143,o),
(396,215,cs),
(415,284,o),
(436,365,o),
(460,458,c),
(555,858,l),
(1049,858,l),
(954,458,l),
(930,365,o),
(909,284,o),
(890,215,cs),
(871,143,o),
(852,73,o),
(832,0,c)
);
}
);
width = 1426;
},
{
layerId = "846F9768-90E9-4F6E-87A4-D262F6DA6C19";
shapes = (
{
closed = 1;
nodes = (
(571,529,l),
(404,1075,ls),
(385,1135,o),
(369,1189,o),
(353,1242,cs),
(337,1295,o),
(319,1354,o),
(298,1426,c),
(570,1426,l),
(585,1366,o),
(597,1316,o),
(608,1273,cs),
(619,1230,o),
(628,1191,o),
(637,1152,cs),
(646,1113,o),
(656,1072,o),
(667,1025,cs),
(721,802,l),
(741,802,l),
(908,1018,ls),
(945,1067,o),
(978,1111,o),
(1009,1151,cs),
(1040,1190,o),
(1071,1232,o),
(1104,1275,cs),
(1137,1318,o),
(1176,1366,o),
(1221,1426,c),
(1534,1426,l),
(1438,1309,o),
(1339,1188,o),
(1247,1075,cs),
(801,529,l)
);
},
{
closed = 1;
nodes = (
(409,0,l),
(430,80,o),
(450,153,o),
(469,226,cs),
(488,298,o),
(509,379,o),
(533,468,c),
(602,746,l),
(862,746,l),
(793,468,ls),
(770,379,o),
(749,298,o),
(730,226,cs),
(711,153,o),
(690,80,o),
(669,0,c)
);
}
);
width = 1335;
},
{
layerId = "3B700FF8-47B9-4100-B03E-59DC0E1692C9";
shapes = (
{
closed = 1;
nodes = (
(628,600,l),
(436,1104,ls),
(416,1157,o),
(397,1208,o),
(378,1257,cs),
(359,1305,o),
(338,1361,o),
(314,1426,c),
(382,1426,l),
(409,1354,o),
(432,1294,o),
(451,1243,cs),
(470,1192,o),
(489,1143,o),
(506,1098,cs),
(523,1053,o),
(542,1004,o),
(563,948,cs),
(664,678,l),
(676,678,l),
(912,938,ls),
(963,995,o),
(1010,1048,o),
(1053,1095,cs),
(1096,1142,o),
(1140,1192,o),
(1187,1244,cs),
(1234,1295,o),
(1289,1354,o),
(1353,1426,c),
(1441,1426,l),
(1341,1318,o),
(1242,1207,o),
(1146,1103,cs),
(688,600,l)
);
},
{
closed = 1;
nodes = (
(468,0,l),
(491,81,o),
(511,158,o),
(530,234,cs),
(549,310,o),
(571,389,o),
(594,477,cs),
(641,652,l),
(705,652,l),
(658,477,ls),
(635,389,o),
(613,310,o),
(594,234,cs),
(575,158,o),
(555,81,o),
(532,0,c)
);
}
);
width = 1258;
}
);
leftKerningGroup = Y2;
rightKerningGroup = Y;
unicode = 89;
}
{
glyphname = Z;
layers = (
{
layerId = "DCD9BE68-FED3-41C3-ADD5-AD2185E63040";
shapes = (
{
closed = 1;
nodes = (
(-72,0,l),
(-18,248,l),
(21,284,o),
(63,324,o),
(110,371,cs),
(157,418,o),
(204,463,o),
(252,510,cs),
(299,557,o),
(343,599,o),
(383,638,cs),
(924,1164,l),
(970,1024,l),
(664,1024,l),
(242,1024,l),
(329,1426,l),
(1577,1426,l),
(1506,1104,l),
(1385,991,o),
(1275,886,o),
(1162,778,cs),
(619,262,l),
(584,402,l),
(860,402,l),
(1007,402,l),
(1166,402,l),
(1304,402,l),
(1216,0,l)
);
}
);
width = 1408;
},
{
layerId = "DED4F76D-EFC3-498C-92B4-55F170A79545";
shapes = (
{
closed = 1;
nodes = (
(-44,0,l),
(-13,141,l),
(34,186,o),
(86,238,o),
(146,295,cs),
(206,352,o),
(262,409,o),
(322,469,cs),
(382,529,o),
(436,580,o),
(487,629,cs),
(1163,1292,l),
(1209,1208,l),
(827,1208,l),
(301,1208,l),
(350,1426,l),
(1501,1426,l),
(1460,1247,l),
(1307,1098,o),
(1161,957,o),
(1012,812,cs),
(307,125,l),
(278,218,l),
(626,218,l),
(811,218,l),
(1011,218,l),
(1186,218,l),
(1136,0,l)
);
}
);
width = 1359;
},
{
layerId = "E6B2DDE4-B374-42D9-B082-10C4C39516BB";
shapes = (
{
closed = 1;
nodes = (
(-33,0,l),
(-11,100,l),
(40,149,o),
(96,204,o),
(160,266,cs),
(223,328,o),
(285,389,o),
(349,453,cs),
(413,517,o),
(471,573,o),
(526,626,c),
(1253,1341,l),
(1299,1278,l),
(889,1278,l),
(323,1278,l),
(358,1426,l),
(1472,1426,l),
(1443,1301,l),
(1276,1137,o),
(1117,984,o),
(955,825,cs),
(188,73,l),
(162,148,l),
(537,148,l),
(737,148,l),
(953,148,l),
(1141,148,l),
(1105,0,l)
);
}
);
width = 1341;
},
{
layerId = "63D0EC33-6CBF-45D2-A66C-DB5F90B9B4D9";
shapes = (
{
closed = 1;
nodes = (
(-20,0,l),
(-8,50,l),
(48,103,o),
(108,163,o),
(176,231,cs),
(244,299,o),
(313,365,o),
(382,434,cs),
(451,502,o),
(514,565,o),
(574,622,c),
(1364,1400,l),
(1410,1364,l),
(964,1364,l),
(350,1364,l),
(367,1426,l),
(1437,1426,l),
(1422,1368,l),
(1237,1185,o),
(1063,1017,o),
(886,840,cs),
(43,10,l),
(20,62,l),
(428,62,l),
(646,62,l),
(881,62,l),
(1086,62,l),
(1068,0,l)
);
}
);
width = 1318;
}
);
leftKerningGroup = Z2;
rightKerningGroup = Z;
unicode = 90;
}
{
glyphname = bracketleft;
layers = (
{
layerId = "AFF82BBF-FC41-4F44-8FB2-1B474D793435";
shapes = (
{
closed = 1;
nodes = (
(-87,-260,l),
(-68,-184,o),
(-49,-116,o),
(-30,-44,cs),
(-11,28,o),
(11,106,o),
(34,198,cs),
(262,1086,ls),
(287,1182,o),
(310,1265,o),
(329,1341,cs),
(348,1414,o),
(368,1489,o),
(388,1566,c),
(1098,1566,l),
(1021,1220,l),
(739,1220,l),
(527,1220,l),
(771,1486,l),
(750,1410,o),
(730,1337,o),
(711,1261,cs),
(692,1185,o),
(670,1102,o),
(645,1006,cs),
(451,278,ls),
(428,186,o),
(407,107,o),
(388,38,cs),
(369,-34,o),
(350,-104,o),
(330,-180,c),
(236,86,l),
(438,86,l),
(708,86,l),
(633,-260,l)
);
}
);
width = 890;
},
{
layerId = "846F9768-90E9-4F6E-87A4-D262F6DA6C19";
shapes = (
{
closed = 1;
nodes = (
(-21,-240,l),
(0,-163,o),
(20,-88,o),
(39,-15,cs),
(58,61,o),
(79,139,o),
(102,227,cs),
(319,1063,ls),
(343,1155,o),
(365,1235,o),
(385,1311,cs),
(404,1387,o),
(424,1461,o),
(444,1541,c),
(1012,1541,l),
(969,1350,l),
(663,1350,l),
(516,1350,l),
(653,1501,l),
(632,1421,o),
(611,1348,o),
(592,1272,cs),
(573,1196,o),
(551,1115,o),
(527,1023,cs),
(327,268,ls),
(304,179,o),
(283,99,o),
(264,26,cs),
(245,-47,o),
(225,-120,o),
(204,-200,c),
(151,-50,l),
(297,-50,l),
(593,-50,l),
(551,-240,l)
);
}
);
width = 782;
},
{
layerId = "3B700FF8-47B9-4100-B03E-59DC0E1692C9";
shapes = (
{
closed = 1;
nodes = (
(35,-224,l),
(56,-143,o),
(77,-65,o),
(97,11,cs),
(116,87,o),
(137,164,o),
(160,252,cs),
(367,1044,ls),
(390,1132,o),
(411,1210,o),
(431,1286,cs),
(451,1362,o),
(471,1439,o),
(492,1520,c),
(940,1520,l),
(925,1460,l),
(599,1460,l),
(507,1460,l),
(553,1514,l),
(530,1433,o),
(510,1357,o),
(491,1281,cs),
(472,1205,o),
(451,1126,o),
(428,1038,cs),
(223,259,ls),
(200,171,o),
(179,93,o),
(160,17,cs),
(140,-59,o),
(119,-136,o),
(98,-216,c),
(80,-164,l),
(178,-164,l),
(496,-164,l),
(481,-224,l)
);
}
);
width = 690;
}
);
rightKerningGroup = braceleft;
unicode = 91;
}
{
glyphname = backslash;
layers = (
{
layerId = "E7B352D6-DDF7-4BB1-9248-C29C5148A582";
shapes = (
{
closed = 1;
nodes = (
(401,0,l),
(393,73,o),
(385,143,o),
(378,215,cs),
(371,287,o),
(362,366,o),
(351,458,cs),
(297,949,ls),
(290,1013,o),
(285,1071,o),
(278,1124,c),
(266,1229,o),
(257,1322,o),
(245,1426,c),
(640,1426,l),
(649,1349,o),
(657,1274,o),
(665,1202,cs),
(673,1130,o),
(681,1048,o),
(692,952,cs),
(745,456,ls),
(756,364,o),
(764,285,o),
(771,216,cs),
(778,147,o),
(786,76,o),
(794,0,c)
);
}
);
width = 928;
},
{
layerId = "1ECFA0BB-D4D0-440A-AF13-F612441316F9";
shapes = (
{
closed = 1;
nodes = (
(512,0,l),
(501,73,o),
(490,143,o),
(479,215,cs),
(468,287,o),
(456,365,o),
(441,457,cs),
(363,950,ls),
(352,1015,o),
(344,1073,o),
(336,1126,cs),
(319,1231,o),
(305,1322,o),
(288,1426,c),
(502,1426,l),
(515,1349,o),
(527,1276,o),
(538,1204,cs),
(549,1132,o),
(562,1048,o),
(577,951,cs),
(654,456,ls),
(669,364,o),
(681,285,o),
(692,216,cs),
(703,144,o),
(714,76,o),
(725,0,c)
);
}
);
width = 900;
},
{
layerId = "3DB0A36A-4459-4A7E-AA85-C98DCD1D5A19";
shapes = (
{
closed = 1;
nodes = (
(549,0,l),
(537,73,o),
(525,143,o),
(513,215,cs),
(500,287,o),
(488,365,o),
(471,457,cs),
(385,950,ls),
(373,1015,o),
(364,1073,o),
(355,1126,cs),
(337,1231,o),
(321,1322,o),
(303,1426,c),
(456,1426,l),
(469,1349,o),
(482,1276,o),
(495,1204,cs),
(507,1132,o),
(522,1049,o),
(538,951,cs),
(623,456,l),
(640,364,o),
(653,286,o),
(665,216,cs),
(677,144,o),
(689,75,o),
(701,0,c)
);
}
);
width = 890;
},
{
layerId = "63B846B6-E5C3-431C-B192-887AE8F7062B";
shapes = (
{
closed = 1;
nodes = (
(605,0,l),
(590,73,o),
(577,143,o),
(564,215,c),
(549,287,o),
(535,364,o),
(516,456,cs),
(418,951,ls),
(405,1016,o),
(395,1074,o),
(384,1127,cs),
(363,1232,o),
(345,1322,o),
(325,1426,c),
(386,1426,l),
(401,1349,o),
(415,1276,o),
(430,1204,cs),
(445,1132,o),
(461,1050,o),
(480,950,cs),
(577,456,ls),
(596,364,o),
(610,287,o),
(625,215,c),
(638,143,o),
(651,73,o),
(666,0,c)
);
}
);
width = 876;
}
);
unicode = 92;
}
{
glyphname = bracketright;
layers = (
{
layerId = "DCD9BE68-FED3-41C3-ADD5-AD2185E63040";
shapes = (
{
closed = 1;
nodes = (
(-128,-260,l),
(-51,86,l),
(231,86,l),
(443,86,l),
(200,-180,l),
(220,-104,o),
(240,-30,o),
(260,46,cs),
(279,122,o),
(301,204,o),
(326,300,cs),
(520,1028,ls),
(543,1120,o),
(564,1200,o),
(583,1269,cs),
(602,1338,o),
(620,1410,o),
(641,1486,c),
(735,1220,l),
(533,1220,l),
(263,1220,l),
(338,1566,l),
(1058,1566,l),
(1039,1490,o),
(1020,1422,o),
(1001,1350,cs),
(982,1278,o),
(961,1200,o),
(937,1108,cs),
(708,220,ls),
(683,124,o),
(661,39,o),
(642,-34,cs),
(623,-107,o),
(603,-183,o),
(582,-260,c)
);
}
);
width = 890;
},
{
layerId = "DED4F76D-EFC3-498C-92B4-55F170A79545";
shapes = (
{
closed = 1;
nodes = (
(-150,-240,l),
(-107,-50,l),
(199,-50,l),
(346,-50,l),
(210,-201,l),
(231,-121,o),
(251,-46,o),
(271,30,cs),
(290,106,o),
(312,185,o),
(336,277,cs),
(536,1033,ls),
(559,1122,o),
(580,1202,o),
(599,1275,cs),
(618,1347,o),
(638,1420,o),
(659,1500,c),
(712,1350,l),
(566,1350,l),
(270,1350,l),
(313,1541,l),
(884,1541,l),
(864,1464,o),
(844,1389,o),
(825,1316,cs),
(806,1243,o),
(784,1162,o),
(761,1073,cs),
(543,237,ls),
(520,145,o),
(498,66,o),
(479,-10,cs),
(460,-86,o),
(439,-160,o),
(418,-240,c)
);
}
);
width = 782;
},
{
layerId = "E6B2DDE4-B374-42D9-B082-10C4C39516BB";
shapes = (
{
closed = 1;
nodes = (
(-159,-233,l),
(-128,-101,l),
(187,-101,l),
(309,-101,l),
(214,-209,l),
(235,-128,o),
(256,-52,o),
(276,24,cs),
(295,100,o),
(316,178,o),
(340,268,cs),
(542,1035,ls),
(565,1123,o),
(585,1202,o),
(605,1277,cs),
(624,1351,o),
(645,1425,o),
(666,1505,c),
(703,1400,l),
(579,1400,l),
(273,1400,l),
(303,1532,l),
(818,1532,l),
(797,1453,o),
(777,1377,o),
(758,1303,cs),
(739,1228,o),
(717,1149,o),
(694,1060,cs),
(480,244,ls),
(457,154,o),
(436,75,o),
(417,-1,cs),
(398,-77,o),
(377,-152,o),
(355,-233,c)
);
}
);
width = 741;
},
{
layerId = "63D0EC33-6CBF-45D2-A66C-DB5F90B9B4D9";
shapes = (
{
closed = 1;
nodes = (
(-169,-224,l),
(-154,-164,l),
(172,-164,l),
(264,-164,l),
(219,-218,l),
(240,-137,o),
(261,-60,o),
(281,16,cs),
(300,92,o),
(321,170,o),
(344,258,cs),
(549,1037,ls),
(572,1125,o),
(592,1203,o),
(612,1279,cs),
(632,1355,o),
(653,1432,o),
(674,1512,c),
(692,1460,l),
(594,1460,l),
(276,1460,l),
(291,1520,l),
(737,1520,l),
(716,1439,o),
(696,1362,o),
(676,1286,cs),
(656,1210,o),
(635,1132,o),
(612,1044,cs),
(404,252,ls),
(381,164,o),
(361,87,o),
(342,11,cs),
(322,-65,o),
(302,-143,o),
(279,-224,c)
);
}
);
width = 690;
}
);
leftKerningGroup = braceright;
unicode = 93;
}
{
glyphname = asciicircum;
layers = (
{
layerId = "3CA9A7E0-8162-4AA0-82FE-E4D3CFC06BA1";
shapes = (
{
closed = 1;
nodes = (
(935,678,l),
(899,791,o),
(861,897,o),
(824,1006,c),
(794,1006,l),
(706,898,o),
(624,794,o),
(536,686,c),
(126,686,l),
(282,917,o),
(440,1153,o),
(593,1380,c),
(1103,1380,l),
(1168,1144,o),
(1232,919,o),
(1300,682,c)
);
}
);
width = 1316;
},
{
layerId = "E0A1A151-DA4E-45E7-B25E-CE8CFFEFF43B";
shapes = (
{
closed = 1;
nodes = (
(998,738,l),
(938,883,o),
(879,1027,o),
(819,1172,c),
(798,1172,l),
(669,1027,o),
(542,890,o),
(409,745,c),
(177,745,l),
(353,960,o),
(520,1169,o),
(687,1373,c),
(971,1373,l),
(1047,1160,o),
(1124,954,o),
(1201,741,c)
);
}
);
width = 1242;
},
{
layerId = "C537678D-9F31-4CE8-A163-37FABCD6ED8A";
shapes = (
{
closed = 1;
nodes = (
(1022,761,l),
(953,920,o),
(886,1076,o),
(817,1235,c),
(800,1235,l),
(653,1077,o),
(510,926,o),
(361,767,c),
(196,767,l),
(380,977,o),
(551,1174,o),
(723,1371,c),
(921,1371,l),
(1001,1166,o),
(1082,968,o),
(1164,763,c)
);
}
);
width = 1214;
},
{
layerId = "FCB7EB2F-12FE-49E3-9961-0638D9E3BD27";
shapes = (
{
closed = 1;
nodes = (
(1051,788,l),
(971,965,o),
(894,1136,o),
(814,1312,c),
(802,1312,l),
(633,1137,o),
(471,969,o),
(302,794,c),
(220,794,l),
(412,997,o),
(588,1181,o),
(767,1368,c),
(859,1368,l),
(944,1173,o),
(1030,985,o),
(1118,790,c)
);
}
);
width = 1180;
}
);
unicode = 94;
}
{
glyphname = underscore;
layers = (
{
layerId = "7EF4C8C3-176E-4742-B97B-8B3D28CEB20F";
shapes = (
{
closed = 1;
nodes = (
(-249,-416,l),
(-173,-60,l),
(244,-60,l),
(372,-60,l),
(788,-60,l),
(711,-416,l),
(295,-416,l),
(167,-416,l)
);
}
);
width = 920;
},
{
layerId = "34633467-B0C3-42A4-965D-4826287A5801";
shapes = (
{
closed = 1;
nodes = (
(-220,-286,l),
(-178,-93,l),
(186,-93,l),
(332,-93,l),
(696,-93,l),
(653,-286,l),
(290,-286,l),
(144,-286,l)
);
}
);
width = 833;
},
{
layerId = "C71A4940-BE13-40D7-A764-AD65D9EEA0EA";
shapes = (
{
closed = 1;
nodes = (
(-195,-176,l),
(-183,-120,l),
(138,-120,l),
(298,-120,l),
(618,-120,l),
(605,-176,l),
(285,-176,l),
(125,-176,l)
);
}
);
width = 760;
}
);
unicode = 95;
}
{
glyphname = grave;
layers = (
{
layerId = "3CA9A7E0-8162-4AA0-82FE-E4D3CFC06BA1";
shapes = (
{
closed = 1;
nodes = (
(709,1106,l),
(682,1153,o),
(655,1199,o),
(627,1247,cs),
(570,1343,o),
(510,1441,o),
(450,1542,c),
(881,1552,l),
(924,1403,o),
(965,1259,o),
(1008,1110,c)
);
}
);
width = 1200;
},
{
layerId = "E0A1A151-DA4E-45E7-B25E-CE8CFFEFF43B";
shapes = (
{
closed = 1;
nodes = (
(775,1142,l),
(750,1186,o),
(724,1231,o),
(699,1276,cs),
(647,1368,o),
(593,1457,o),
(540,1550,c),
(775,1555,l),
(832,1418,o),
(888,1282,o),
(944,1145,c)
);
}
);
width = 1200;
},
{
layerId = "C537678D-9F31-4CE8-A163-37FABCD6ED8A";
shapes = (
{
closed = 1;
nodes = (
(800,1156,l),
(776,1199,o),
(751,1243,o),
(726,1287,cs),
(676,1376,o),
(625,1463,o),
(574,1553,c),
(735,1556,l),
(797,1423,o),
(858,1291,o),
(920,1158,c)
);
}
);
width = 1200;
},
{
layerId = "FCB7EB2F-12FE-49E3-9961-0638D9E3BD27";
shapes = (
{
closed = 1;
nodes = (
(831,1172,l),
(807,1215,o),
(783,1257,o),
(760,1300,c),
(712,1385,o),
(664,1471,o),
(616,1556,c),
(685,1558,l),
(754,1429,o),
(822,1303,o),
(890,1174,c)
);
}
);
width = 1200;
}
);
unicode = 96;
}
{
glyphname = a;
layers = (
{
layerId = "181BD7BB-C34D-461B-B27B-8D2A9629369B";
name = "#instance";
shapes = (
{
closed = 1;
nodes = (
(211,-23,o),
(159,-9,o),
(116,21,cs),
(30,79,o),
(-6,182,o),
(27,309,c),
(53,401,o),
(102,456,o),
(169,493,cs),
(234,528,o),
(313,547,o),
(397,561,c),
(716,614,l),
(730,652,o),
(734,684,o),
(725,712,c),
(709,768,o),
(649,800,o),
(544,800,cs),
(497,800,o),
(445,794,o),
(386,781,cs),
(328,768,o),
(265,749,o),
(200,721,c),
(245,957,l),
(292,972,o),
(352,988,o),
(418,1002,cs),
(483,1015,o),
(553,1023,o),
(620,1023,cs),
(714,1023,o),
(790,1007,o),
(848,973,cs),
(964,904,o),
(1005,781,o),
(963,622,cs),
(946,557,o),
(929,499,o),
(908,422,c),
(883,329,ls),
(858,231,o),
(826,126,o),
(793,0,c),
(572,0,l),
(595,144,l),
(574,144,l),
(547,109,o),
(520,78,o),
(489,53,cs),
(429,3,o),
(359,-23,o),
(275,-23,cs)
);
},
{
closed = 1;
nodes = (
(436,186,o),
(463,191,o),
(488,200,cs),
(538,219,o),
(584,258,o),
(634,336,c),
(684,506,l),
(396,449,ls),
(341,438,o),
(298,405,o),
(282,349,cs),
(267,295,o),
(272,255,o),
(299,227,cs),
(326,199,o),
(361,186,o),
(408,186,cs)
);
}
);
width = 1042;
},
{
layerId = "1AD4D874-E916-4D35-AED1-4CCD341C5511";
shapes = (
{
closed = 1;
nodes = (
(149,-28,o),
(99,-13,o),
(59,18,cs),
(-21,79,o),
(-51,186,o),
(-18,311,cs),
(7,403,o),
(54,460,o),
(118,499,cs),
(182,538,o),
(257,557,o),
(341,568,cs),
(619,606,l),
(626,613,o),
(627,621,o),
(620,633,cs),
(608,656,o),
(564,678,o),
(480,678,cs),
(427,678,o),
(373,670,o),
(313,657,cs),
(253,644,o),
(193,624,o),
(132,600,c),
(204,974,l),
(256,987,o),
(322,1003,o),
(395,1016,cs),
(467,1028,o),
(545,1036,o),
(618,1036,cs),
(723,1036,o),
(809,1020,o),
(877,985,cs),
(1014,916,o),
(1068,788,o),
(1024,616,cs),
(1005,544,o),
(991,486,o),
(971,422,c),
(959,375,ls),
(931,262,o),
(892,141,o),
(856,0,c),
(496,0,l),
(504,143,l),
(476,143,l),
(452,106,o),
(428,74,o),
(401,49,c),
(348,-3,o),
(286,-28,o),
(210,-28,cs)
);
},
{
closed = 1;
nodes = (
(467,306,o),
(479,308,o),
(488,312,cs),
(507,320,o),
(521,335,o),
(542,363,c),
(573,456,l),
(459,437,ls),
(434,433,o),
(411,414,o),
(402,386,cs),
(393,361,o),
(395,342,o),
(408,327,cs),
(421,312,o),
(435,306,o),
(454,306,cs)
);
}
);
width = 1050;
},
{
layerId = "6EECF198-EA47-4997-AC52-FDCC72651283";
shapes = (
{
closed = 1;
nodes = (
(228,-22,o),
(175,-6,o),
(131,27,cs),
(43,92,o),
(7,206,o),
(40,331,cs),
(65,423,o),
(114,480,o),
(179,517,cs),
(244,553,o),
(323,575,o),
(411,588,cs),
(745,642,l),
(758,677,o),
(759,707,o),
(748,735,cs),
(727,791,o),
(661,824,o),
(556,824,cs),
(509,824,o),
(459,817,o),
(399,802,cs),
(339,787,o),
(277,766,o),
(212,738,c),
(254,954,l),
(299,969,o),
(358,985,o),
(423,998,cs),
(487,1011,o),
(557,1020,o),
(622,1020,cs),
(719,1020,o),
(796,1004,o),
(856,969,cs),
(973,901,o),
(1013,779,o),
(970,622,c),
(954,558,o),
(936,500,o),
(913,420,cs),
(884,320,l),
(860,227,o),
(834,125,o),
(802,0,c),
(588,0,l),
(614,125,l),
(594,125,l),
(565,90,o),
(536,62,o),
(505,41,c),
(444,-3,o),
(376,-22,o),
(296,-22,cs)
);
},
{
closed = 1;
nodes = (
(419,164,o),
(449,171,o),
(480,184,cs),
(540,211,o),
(599,259,o),
(652,331,c),
(696,476,l),
(384,413,ls),
(328,402,o),
(295,362,o),
(280,310,cs),
(267,265,o),
(271,230,o),
(294,203,c),
(315,176,o),
(347,164,o),
(390,164,cs)
);
}
);
width = 1056;
},
{
layerId = "C478EF9B-FDD2-4ED0-8B69-07360DB9D5A9";
shapes = (
{
closed = 1;
nodes = (
(284,-18,o),
(229,-4,o),
(182,24,cs),
(89,80,o),
(47,178,o),
(80,307,c),
(107,399,o),
(159,452,o),
(228,485,cs),
(296,517,o),
(379,536,o),
(463,552,cs),
(829,624,l),
(852,697,o),
(859,757,o),
(848,804,cs),
(827,900,o),
(749,944,o),
(620,944,cs),
(579,944,o),
(529,939,o),
(472,927,cs),
(415,914,o),
(349,895,o),
(280,864,c),
(294,938,l),
(335,954,o),
(387,970,o),
(444,985,cs),
(501,1000,o),
(562,1008,o),
(622,1008,cs),
(703,1008,o),
(767,991,o),
(814,958,c),
(906,890,o),
(931,773,o),
(892,628,cs),
(877,572,o),
(857,514,o),
(833,422,cs),
(793,274,ls),
(772,194,o),
(748,108,o),
(720,0,c),
(662,0,l),
(702,145,l),
(690,145,l),
(659,112,o),
(628,83,o),
(593,58,cs),
(524,9,o),
(445,-18,o),
(352,-18,cs)
);
},
{
closed = 1;
nodes = (
(399,46,o),
(444,54,o),
(487,69,cs),
(575,100,o),
(657,168,o),
(742,305,c),
(815,564,l),
(323,462,ls),
(231,443,o),
(165,394,o),
(142,306,cs),
(119,217,o),
(128,153,o),
(171,110,cs),
(214,67,o),
(274,46,o),
(354,46,cs)
);
}
);
width = 1032;
}
);
leftKerningGroup = a2;
rightKerningGroup = a;
unicode = 97;
}
{
glyphname = b;
layers = (
{
layerId = "88659256-3F30-40E7-9696-2B2DC1F8E116";
shapes = (
{
closed = 1;
nodes = (
(790,-32,o),
(887,20,o),
(965,106,cs),
(1043,192,o),
(1102,314,o),
(1139,455,cs),
(1179,608,o),
(1180,753,o),
(1139,861,cs),
(1098,968,o),
(1014,1037,o),
(883,1037,cs),
(843,1037,o),
(804,1027,o),
(765,1007,cs),
(726,987,o),
(689,956,o),
(654,913,c),
(622,913,l),
(642,988,ls),
(693,1179,o),
(737,1349,o),
(777,1501,c),
(325,1469,l),
(280,1297,o),
(241,1149,o),
(198,986,cs),
(50,427,ls),
(27,342,o),
(9,269,o),
(-10,201,cs),
(-28,133,o),
(-44,68,o),
(-63,0,c),
(312,0,l),
(366,114,l),
(392,114,l),
(415,65,o),
(456,28,o),
(508,4,cs),
(560,-21,o),
(621,-32,o),
(678,-32,cs)
);
},
{
closed = 1;
nodes = (
(523,346,o),
(497,360,o),
(484,377,c),
(544,607,l),
(563,646,o),
(592,668,o),
(631,668,cs),
(663,668,o),
(684,645,o),
(694,611,cs),
(704,577,o),
(703,535,o),
(692,496,c),
(681,452,o),
(663,415,o),
(639,388,cs),
(615,361,o),
(586,346,o),
(551,346,cs)
);
}
);
width = 1186;
},
{
layerId = "21D94FDA-A95C-474B-951E-BE67C5105DB2";
shapes = (
{
closed = 1;
nodes = (
(723,-24,o),
(823,20,o),
(905,100,cs),
(987,180,o),
(1050,296,o),
(1087,439,cs),
(1127,591,o),
(1123,736,o),
(1072,844,cs),
(1021,951,o),
(925,1020,o),
(781,1020,cs),
(728,1020,o),
(677,1006,o),
(630,982,cs),
(583,958,o),
(541,925,o),
(505,886,c),
(484,886,l),
(511,987,ls),
(558,1167,o),
(600,1327,o),
(643,1487,c),
(403,1464,l),
(362,1307,o),
(320,1153,o),
(276,986,cs),
(129,434,ls),
(108,353,o),
(88,281,o),
(69,211,cs),
(50,141,o),
(33,72,o),
(14,0,c),
(216,0,l),
(266,142,l),
(284,142,l),
(315,89,o),
(362,47,o),
(419,19,cs),
(475,-9,o),
(541,-24,o),
(608,-24,cs)
);
},
{
closed = 1;
nodes = (
(453,184,o),
(380,223,o),
(333,312,c),
(432,683,l),
(505,767,o),
(580,817,o),
(664,817,cs),
(753,817,o),
(811,775,o),
(841,710,cs),
(871,645,o),
(873,556,o),
(849,463,cs),
(828,382,o),
(792,311,o),
(743,262,cs),
(694,213,o),
(630,184,o),
(550,184,cs)
);
}
);
width = 1184;
},
{
layerId = "3D47BFF5-453B-49C2-B010-5B64E116DAF2";
shapes = (
{
closed = 1;
nodes = (
(697,-21,o),
(799,20,o),
(883,98,cs),
(966,176,o),
(1030,289,o),
(1067,433,cs),
(1107,585,o),
(1101,730,o),
(1047,838,cs),
(993,945,o),
(892,1015,o),
(742,1015,cs),
(683,1015,o),
(628,999,o),
(579,973,cs),
(529,948,o),
(485,914,o),
(449,877,c),
(432,877,l),
(461,987,ls),
(507,1163,o),
(549,1320,o),
(592,1483,c),
(432,1463,l),
(392,1312,o),
(350,1155,o),
(305,987,cs),
(159,437,ls),
(138,357,o),
(118,285,o),
(99,214,cs),
(80,143,o),
(62,73,o),
(43,0,c),
(180,0,l),
(228,152,l),
(243,152,l),
(277,98,o),
(326,54,o),
(385,25,cs),
(443,-5,o),
(511,-21,o),
(581,-21,cs)
);
},
{
closed = 1;
nodes = (
(426,122,o),
(335,170,o),
(275,287,c),
(390,712,l),
(483,814,o),
(574,874,o),
(677,874,cs),
(787,874,o),
(859,825,o),
(897,748,cs),
(934,671,o),
(937,565,o),
(908,451,cs),
(884,355,o),
(842,272,o),
(783,214,cs),
(723,156,o),
(646,122,o),
(550,122,cs)
);
}
);
width = 1183;
},
{
layerId = "CBE96DA9-FC64-4659-8F3D-7668682A4A62";
shapes = (
{
closed = 1;
nodes = (
(665,-18,o),
(770,20,o),
(855,95,cs),
(940,170,o),
(1006,281,o),
(1043,426,cs),
(1082,577,o),
(1074,722,o),
(1016,830,cs),
(958,938,o),
(851,1008,o),
(695,1008,cs),
(628,1008,o),
(568,990,o),
(516,963,cs),
(463,935,o),
(417,900,o),
(380,865,c),
(368,865,l),
(400,988,ls),
(445,1159,o),
(486,1311,o),
(530,1478,c),
(468,1462,l),
(429,1317,o),
(386,1157,o),
(341,988,cs),
(195,441,ls),
(174,362,o),
(155,289,o),
(136,218,cs),
(117,146,o),
(98,75,o),
(78,0,c),
(136,0,l),
(181,165,l),
(193,165,l),
(230,109,o),
(282,63,o),
(343,32,cs),
(403,0,o),
(474,-18,o),
(549,-18,cs)
);
},
{
closed = 1;
nodes = (
(393,46,o),
(280,105,o),
(205,256,c),
(338,748,l),
(455,872,o),
(567,944,o),
(692,944,cs),
(828,944,o),
(918,886,o),
(965,794,cs),
(1012,702,o),
(1016,575,o),
(981,436,cs),
(952,321,o),
(902,224,o),
(831,155,cs),
(759,86,o),
(666,46,o),
(549,46,cs)
);
}
);
width = 1182;
}
);
leftKerningGroup = b2;
rightKerningGroup = b;
unicode = 98;
}
{
glyphname = c;
layers = (
{
layerId = "E7B352D6-DDF7-4BB1-9248-C29C5148A582";
shapes = (
{
closed = 1;
nodes = (
(616,-27,o),
(653,-24,o),
(688,-18,cs),
(723,-12,o),
(753,-2,o),
(778,11,c),
(859,388,l),
(798,349,o),
(737,332,o),
(665,332,cs),
(604,332,o),
(552,349,o),
(521,384,cs),
(489,419,o),
(477,470,o),
(496,535,c),
(511,579,o),
(536,613,o),
(569,634,cs),
(602,655,o),
(641,666,o),
(681,666,cs),
(705,666,o),
(738,664,o),
(777,653,cs),
(816,641,o),
(859,622,o),
(906,587,c),
(1031,964,l),
(914,1013,o),
(797,1034,o),
(672,1034,cs),
(503,1034,o),
(367,990,o),
(263,913,cs),
(159,836,o),
(88,723,o),
(51,586,cs),
(2,394,o),
(35,240,o),
(130,136,cs),
(225,31,o),
(381,-27,o),
(577,-27,cs)
);
}
);
width = 948;
},
{
layerId = "1ECFA0BB-D4D0-440A-AF13-F612441316F9";
shapes = (
{
closed = 1;
nodes = (
(601,-22,o),
(643,-17,o),
(683,-7,cs),
(722,3,o),
(755,16,o),
(780,31,c),
(819,245,l),
(752,202,o),
(678,177,o),
(597,177,cs),
(496,177,o),
(415,210,o),
(367,272,cs),
(319,334,o),
(303,424,o),
(334,540,cs),
(359,631,o),
(406,699,o),
(466,746,cs),
(526,793,o),
(599,817,o),
(675,817,cs),
(719,817,o),
(763,811,o),
(807,798,cs),
(851,785,o),
(896,763,o),
(941,728,c),
(1012,935,l),
(915,991,o),
(798,1020,o),
(673,1020,cs),
(528,1020,o),
(401,976,o),
(303,897,cs),
(205,818,o),
(133,707,o),
(97,571,cs),
(52,392,o),
(78,244,o),
(159,141,cs),
(240,37,o),
(379,-22,o),
(556,-22,cs)
);
}
);
width = 978;
},
{
layerId = "3DB0A36A-4459-4A7E-AA85-C98DCD1D5A19";
shapes = (
{
closed = 1;
nodes = (
(597,-20,o),
(641,-15,o),
(682,-3,cs),
(723,9,o),
(756,22,o),
(782,38,c),
(806,197,l),
(737,152,o),
(659,125,o),
(575,125,cs),
(460,125,o),
(369,163,o),
(315,234,cs),
(262,305,o),
(245,409,o),
(280,542,c),
(309,648,o),
(363,729,o),
(432,784,cs),
(501,839,o),
(585,868,o),
(674,868,cs),
(725,868,o),
(773,861,o),
(818,847,cs),
(864,833,o),
(909,811,o),
(954,776,c),
(1006,925,l),
(916,984,o),
(799,1015,o),
(674,1015,cs),
(536,1015,o),
(414,971,o),
(317,892,cs),
(220,812,o),
(149,701,o),
(113,566,c),
(70,392,o),
(92,246,o),
(169,143,cs),
(246,39,o),
(379,-20,o),
(550,-20,cs)
);
}
);
width = 988;
},
{
layerId = "63B846B6-E5C3-431C-B192-887AE8F7062B";
shapes = (
{
closed = 1;
nodes = (
(591,-18,o),
(638,-11,o),
(681,3,cs),
(724,17,o),
(758,32,o),
(784,49,c),
(787,124,l),
(715,77,o),
(630,46,o),
(541,46,cs),
(405,46,o),
(299,92,o),
(238,177,cs),
(177,261,o),
(159,387,o),
(199,544,cs),
(234,673,o),
(298,773,o),
(381,841,cs),
(464,909,o),
(565,944,o),
(673,944,cs),
(734,944,o),
(787,937,o),
(835,921,cs),
(883,905,o),
(928,882,o),
(973,847,c),
(998,910,l),
(917,974,o),
(801,1008,o),
(676,1008,cs),
(549,1008,o),
(433,963,o),
(338,884,cs),
(243,804,o),
(172,692,o),
(137,559,c),
(96,391,o),
(114,248,o),
(185,145,cs),
(256,42,o),
(378,-18,o),
(541,-18,cs)
);
}
);
width = 1004;
}
);
leftKerningGroup = c;
unicode = 99;
}
{
glyphname = d;
layers = (
{
anchors = (
{
name = bottom;
position = "{512, 0}";
},
{
name = center;
position = "{592, 502}";
},
{
name = top;
position = "{897, 1466}";
},
{
name = topright;
position = "{1287, 1004}";
}
);
hints = (
{
horizontal = 1;
place = (-32,370);
type = Stem;
},
{
horizontal = 1;
place = (660,376);
type = Stem;
},
{
horizontal = 1;
place = (126,21);
target = up;
type = BottomGhost;
},
{
horizontal = 1;
place = (1500,-20);
target = down;
type = TopGhost;
},
{
place = (50,447);
type = Stem;
},
{
place = (800,444);
type = Stem;
}
);
layerId = "56A8602E-BDC2-46DE-85D6-EBC995AB5C7F";
shapes = (
{
closed = 1;
nodes = (
(409,-32,o),
(510,15,o),
(596,126,c),
(622,126,l),
(612,0,l),
(984,0,l),
(1020,138,o),
(1052,256,o),
(1097,427,cs),
(1244,987,ls),
(1294,1177,o),
(1339,1349,o),
(1379,1500,c),
(928,1468,l),
(883,1298,o),
(841,1143,o),
(800,987,cs),
(780,912,l),
(748,912,l),
(713,995,o),
(609,1036,o),
(511,1036,cs),
(285,1036,o),
(125,828,o),
(50,550,cs),
(-30,239,o),
(47,-32,o),
(306,-32,cs)
);
},
{
closed = 1;
nodes = (
(492,338,o),
(477,433,o),
(497,511,cs),
(520,597,o),
(571,660,o),
(639,660,cs),
(669,660,o),
(694,644,o),
(705,624,c),
(645,394,l),
(625,359,o),
(594,338,o),
(559,338,cs)
);
}
);
width = 1186;
},
{
anchors = (
{
name = bottom;
position = "{496, 0}";
},
{
name = center;
position = "{584, 498}";
},
{
name = top;
position = "{878, 1455}";
},
{
name = topright;
position = "{1250, 995}";
}
);
hints = (
{
horizontal = 1;
place = (-24,204);
type = Stem;
},
{
horizontal = 1;
place = (814,207);
type = Stem;
},
{
horizontal = 1;
place = (131,21);
target = up;
type = BottomGhost;
},
{
horizontal = 1;
place = (1488,-20);
target = down;
type = TopGhost;
},
{
place = (98,238);
type = Stem;
},
{
place = (930,237);
type = Stem;
}
);
layerId = "7D741856-296A-45BF-88B8-057E37E60DB7";
shapes = (
{
closed = 1;
nodes = (
(508,-24,o),
(620,21,o),
(709,131,c),
(727,131,l),
(703,0,l),
(905,0,l),
(943,145,o),
(976,268,o),
(1021,435,cs),
(1167,988,ls),
(1214,1166,o),
(1257,1330,o),
(1299,1488,c),
(1057,1465,l),
(1015,1308,o),
(973,1149,o),
(930,988,cs),
(903,883,l),
(881,883,l),
(822,963,o),
(705,1021,o),
(576,1021,cs),
(345,1021,o),
(173,839,o),
(98,557,cs),
(18,249,o),
(118,-24,o),
(405,-24,cs)
);
},
{
closed = 1;
nodes = (
(345,180,o),
(288,346,o),
(336,534,cs),
(379,696,o),
(475,814,o),
(635,814,cs),
(735,814,o),
(804,770,o),
(857,709,c),
(757,337,l),
(695,227,o),
(605,180,o),
(521,180,cs)
);
}
);
width = 1163;
},
{
anchors = (
{
name = bottom;
position = "{482, 0}";
},
{
name = center;
position = "{578, 494}";
},
{
name = top;
position = "{862, 1446}";
},
{
name = topright;
position = "{1220, 988}";
}
);
hints = (
{
horizontal = 1;
place = (-18,64);
type = Stem;
},
{
horizontal = 1;
place = (944,64);
type = Stem;
},
{
horizontal = 1;
place = (135,21);
target = up;
type = BottomGhost;
},
{
horizontal = 1;
place = (1478,-20);
target = down;
type = TopGhost;
},
{
place = (139,62);
type = Stem;
},
{
place = (1041,61);
type = Stem;
}
);
layerId = "355BC9C9-DFF3-4FFB-B20D-156268081B81";
shapes = (
{
closed = 1;
nodes = (
(593,-18,o),
(713,26,o),
(805,135,c),
(817,135,l),
(782,0,l),
(840,0,l),
(880,151,o),
(913,278,o),
(957,442,cs),
(1102,988,ls),
(1147,1157,o),
(1188,1314,o),
(1232,1478,c),
(1167,1462,l),
(1128,1317,o),
(1086,1154,o),
(1041,988,cs),
(1007,858,l),
(995,858,l),
(915,936,o),
(788,1008,o),
(633,1008,cs),
(397,1008,o),
(214,850,o),
(139,563,cs),
(59,258,o),
(179,-18,o),
(489,-18,cs)
);
},
{
closed = 1;
nodes = (
(221,46,o),
(129,272,o),
(201,553,cs),
(261,779,o),
(396,944,o),
(633,944,cs),
(792,944,o),
(897,876,o),
(987,781,c),
(852,288,l),
(755,115,o),
(615,46,o),
(491,46,cs)
);
}
);
width = 1144;
}
);
leftKerningGroup = d2;
rightKerningGroup = d;
unicode = 100;
}
